<?xml version="1.0" encoding="UTF-8" standalone="no"?>
<!-- Created with Inkscape (http://www.inkscape.org/) -->

<svg
   xmlns:dc="http://purl.org/dc/elements/1.1/"
   xmlns:cc="http://creativecommons.org/ns#"
   xmlns:rdf="http://www.w3.org/1999/02/22-rdf-syntax-ns#"
   xmlns:svg="http://www.w3.org/2000/svg"
   xmlns="http://www.w3.org/2000/svg"
   xmlns:sodipodi="http://sodipodi.sourceforge.net/DTD/sodipodi-0.dtd"
   xmlns:inkscape="http://www.inkscape.org/namespaces/inkscape"
   version="1.1"
   id="svg826"
   xml:space="preserve"
   width="1121.3333"
   height="594.66669"
   viewBox="0 0 1121.3333 594.66669"
   sodipodi:docname="ratios.svg"
   inkscape:export-filename="C:\Users\natha\Google Drive\Statistics Articles\folding_phones\ratios.png"
   inkscape:export-xdpi="300"
   inkscape:export-ydpi="300"
   inkscape:version="0.92.3 (2405546, 2018-03-11)"><metadata
     id="metadata832"><rdf:RDF><cc:Work
         rdf:about=""><dc:format>image/svg+xml</dc:format><dc:type
           rdf:resource="http://purl.org/dc/dcmitype/StillImage" /><dc:title></dc:title></cc:Work></rdf:RDF></metadata><defs
     id="defs830"><clipPath
       clipPathUnits="userSpaceOnUse"
       id="clipPath846"><path
         d="M 32.977,423.43 H 836.524 V 44.59 H 32.977 Z"
         id="path844"
         inkscape:connector-curvature="0" /></clipPath></defs><sodipodi:namedview
     pagecolor="#ffffff"
     bordercolor="#666666"
     borderopacity="1"
     objecttolerance="10"
     gridtolerance="10"
     guidetolerance="10"
     inkscape:pageopacity="0"
     inkscape:pageshadow="2"
     inkscape:window-width="1920"
     inkscape:window-height="1001"
     id="namedview828"
     showgrid="false"
     inkscape:zoom="6.8406911"
     inkscape:cx="1033.3024"
     inkscape:cy="54.30829"
     inkscape:window-x="-9"
     inkscape:window-y="-9"
     inkscape:window-maximized="1"
     inkscape:current-layer="g834" /><g
     id="g834"
     inkscape:groupmode="layer"
     inkscape:label="ratios"
     transform="matrix(1.3333333,0,0,-1.3333333,0,594.66667)"><g
       id="g836"><path
         d="M 0,0 H 841 V 446 H 0 Z"
         style="fill:#ffffff;fill-opacity:1;fill-rule:nonzero;stroke:none"
         id="path838"
         inkscape:connector-curvature="0" /></g><g
       id="g840"><g
         id="g842"
         clip-path="url(#clipPath846)"><path
           d="M 32.977,107.035 H 835.52"
           style="fill:none;stroke:#ebebeb;stroke-width:0.53348899;stroke-linecap:butt;stroke-linejoin:round;stroke-miterlimit:10;stroke-dasharray:none;stroke-opacity:1"
           id="path848"
           inkscape:connector-curvature="0" /><path
           d="M 32.977,206.773 H 835.52"
           style="fill:none;stroke:#ebebeb;stroke-width:0.53348899;stroke-linecap:butt;stroke-linejoin:round;stroke-miterlimit:10;stroke-dasharray:none;stroke-opacity:1"
           id="path850"
           inkscape:connector-curvature="0" /><path
           d="M 32.977,306.516 H 835.52"
           style="fill:none;stroke:#ebebeb;stroke-width:0.53348899;stroke-linecap:butt;stroke-linejoin:round;stroke-miterlimit:10;stroke-dasharray:none;stroke-opacity:1"
           id="path852"
           inkscape:connector-curvature="0" /><path
           d="M 32.977,406.254 H 835.52"
           style="fill:none;stroke:#ebebeb;stroke-width:0.53348899;stroke-linecap:butt;stroke-linejoin:round;stroke-miterlimit:10;stroke-dasharray:none;stroke-opacity:1"
           id="path854"
           inkscape:connector-curvature="0" /><path
           d="M 191.051,45.59 V 423.43"
           style="fill:none;stroke:#ebebeb;stroke-width:0.53348899;stroke-linecap:butt;stroke-linejoin:round;stroke-miterlimit:10;stroke-dasharray:none;stroke-opacity:1"
           id="path856"
           inkscape:connector-curvature="0" /><path
           d="M 434.246,45.59 V 423.43"
           style="fill:none;stroke:#ebebeb;stroke-width:0.53348899;stroke-linecap:butt;stroke-linejoin:round;stroke-miterlimit:10;stroke-dasharray:none;stroke-opacity:1"
           id="path858"
           inkscape:connector-curvature="0" /><path
           d="M 677.445,45.59 V 423.43"
           style="fill:none;stroke:#ebebeb;stroke-width:0.53348899;stroke-linecap:butt;stroke-linejoin:round;stroke-miterlimit:10;stroke-dasharray:none;stroke-opacity:1"
           id="path860"
           inkscape:connector-curvature="0" /><path
           d="M 32.977,57.164 H 835.52"
           style="fill:none;stroke:#ebebeb;stroke-width:1.06697798;stroke-linecap:butt;stroke-linejoin:round;stroke-miterlimit:10;stroke-dasharray:none;stroke-opacity:1"
           id="path862"
           inkscape:connector-curvature="0" /><path
           d="M 32.977,156.906 H 835.52"
           style="fill:none;stroke:#ebebeb;stroke-width:1.06697798;stroke-linecap:butt;stroke-linejoin:round;stroke-miterlimit:10;stroke-dasharray:none;stroke-opacity:1"
           id="path864"
           inkscape:connector-curvature="0" /><path
           d="M 32.977,256.645 H 835.52"
           style="fill:none;stroke:#ebebeb;stroke-width:1.06697798;stroke-linecap:butt;stroke-linejoin:round;stroke-miterlimit:10;stroke-dasharray:none;stroke-opacity:1"
           id="path866"
           inkscape:connector-curvature="0" /><path
           d="M 32.977,356.387 H 835.52"
           style="fill:none;stroke:#ebebeb;stroke-width:1.06697798;stroke-linecap:butt;stroke-linejoin:round;stroke-miterlimit:10;stroke-dasharray:none;stroke-opacity:1"
           id="path868"
           inkscape:connector-curvature="0" /><path
           d="M 69.453,45.59 V 423.43"
           style="fill:none;stroke:#ebebeb;stroke-width:1.06697798;stroke-linecap:butt;stroke-linejoin:round;stroke-miterlimit:10;stroke-dasharray:none;stroke-opacity:1"
           id="path870"
           inkscape:connector-curvature="0" /><path
           d="M 312.648,45.59 V 423.43"
           style="fill:none;stroke:#ebebeb;stroke-width:1.06697798;stroke-linecap:butt;stroke-linejoin:round;stroke-miterlimit:10;stroke-dasharray:none;stroke-opacity:1"
           id="path872"
           inkscape:connector-curvature="0" /><path
           d="M 555.844,45.59 V 423.43"
           style="fill:none;stroke:#ebebeb;stroke-width:1.06697798;stroke-linecap:butt;stroke-linejoin:round;stroke-miterlimit:10;stroke-dasharray:none;stroke-opacity:1"
           id="path874"
           inkscape:connector-curvature="0" /><path
           d="M 799.043,45.59 V 423.43"
           style="fill:none;stroke:#ebebeb;stroke-width:1.06697798;stroke-linecap:butt;stroke-linejoin:round;stroke-miterlimit:10;stroke-dasharray:none;stroke-opacity:1"
           id="path876"
           inkscape:connector-curvature="0" /><path
           d="m 69.453,256.645 7.371,-12.274 7.371,-12.637 7.368,-13.007 7.371,-13.372 7.367,-13.738 7.371,-14.105 7.371,-14.469 7.367,-14.84 7.371,-15.203 7.367,-15.57 7.372,-15.938 7.371,-16.301 7.367,-16.668 7.371,-5.761 7.367,16.222 7.371,15.235 7.371,14.332 7.367,13.496 7.372,12.726 7.371,12.012 7.367,11.352 7.371,10.738 7.367,10.168 7.371,9.637 7.371,9.14 7.368,8.684 7.371,8.25 7.367,7.848 7.371,7.472 7.371,7.121 7.367,6.789 7.371,6.477 7.367,6.184 7.372,5.91 7.371,5.652 7.367,5.406 7.371,5.18 7.367,4.957 7.371,4.758 7.371,4.558 7.367,4.379 7.372,4.203 7.367,4.04 7.371,3.882 7.371,3.731 7.367,3.594 7.371,3.46 7.371,3.333 7.368,3.21 7.371,3.094 7.367,2.985 7.371,2.882 7.371,2.778 7.367,2.687 7.371,2.594 7.367,2.508 7.372,2.422 7.371,2.347 7.367,2.27 7.371,2.195 7.367,2.125 7.371,2.059 7.371,1.996 7.367,1.933 7.372,1.875 7.367,1.821 7.371,1.761 7.371,1.715 7.367,1.66 7.371,1.614 7.371,1.57 7.368,1.52 7.371,1.48 7.367,1.441 7.371,1.399 7.371,1.359 7.367,1.325 7.371,1.289 7.367,1.253 7.372,1.219 7.371,1.192 7.367,1.156 7.371,1.129 7.367,1.097 7.371,1.071 7.371,1.047 7.367,1.015 7.372,0.996 7.367,0.969 7.371,0.945 7.371,0.922 7.367,0.903 7.371,0.879 7.371,0.855 7.368,0.84 7.371,0.82 7.367,0.801 7.371,0.781 7.371,0.762"
           style="fill:none;stroke:#000000;stroke-width:2.13395691;stroke-linecap:butt;stroke-linejoin:round;stroke-miterlimit:10;stroke-dasharray:none;stroke-opacity:1"
           id="path878"
           inkscape:connector-curvature="0" /></g></g><text
       id="text892"
       style="font-variant:normal;font-weight:normal;font-size:8.80000019px;font-family:Arial;-inkscape-font-specification:ArialMT;writing-mode:lr-tb;fill:#4d4d4d;fill-opacity:1;fill-rule:nonzero;stroke:none"
       transform="scale(1,-1)"
       x="23.148438"
       y="-54.015625"><tspan
         id="tspan882"
         y="-54.015625"
         x="23.148438">0</tspan><tspan
         id="tspan884"
         sodipodi:role="line"
         y="-153.75391"
         x="18.253904 23.146704">25</tspan><tspan
         id="tspan886"
         sodipodi:role="line"
         y="-253.49609"
         x="18.253904 23.146704">50</tspan><tspan
         id="tspan888"
         sodipodi:role="line"
         y="-353.23438"
         x="18.253904 23.146704">75</tspan><tspan
         id="tspan890"
         sodipodi:role="line"
         y="-34.359383"
         x="67.007812 310.20312 553.39844 796.59766">1234</tspan></text>
<text
       id="text896"
       style="font-variant:normal;font-weight:normal;font-size:11px;font-family:Arial;-inkscape-font-specification:ArialMT;writing-mode:lr-tb;fill:#000000;fill-opacity:1;fill-rule:nonzero;stroke:none"
       transform="scale(1,-1)"
       x="393.28516"
       y="-21.582031"><tspan
         id="tspan894"
         sodipodi:role="line"
         x="393.28516"
         y="-21.582031"
         style="-inkscape-font-specification:'Open Sans';font-family:'Open Sans';font-weight:normal;font-style:normal;font-stretch:normal;font-variant:normal">Aspect ratio [x]:1</tspan></text>
<text
       id="text900"
       style="font-variant:normal;font-weight:normal;font-size:11px;font-family:Arial;-inkscape-font-specification:ArialMT;writing-mode:lr-tb;fill:#000000;fill-opacity:1;fill-rule:nonzero;stroke:none"
       transform="matrix(0,1,1,0,0,0)"
       x="149.50391"
       y="13.351563"><tspan
         id="tspan898"
         sodipodi:role="line"
         x="149.50391"
         y="13.351563"
         style="-inkscape-font-specification:'Open Sans';font-family:'Open Sans';font-weight:normal;font-style:normal;font-stretch:normal;font-variant:normal">% of phone front taken up by bezel</tspan></text>
<text
       id="text904"
       style="font-variant:normal;font-weight:normal;font-size:13.19999981px;font-family:Arial;-inkscape-font-specification:ArialMT;writing-mode:lr-tb;fill:#000000;fill-opacity:1;fill-rule:nonzero;stroke:none"
       transform="scale(1,-1)"
       x="32.976562"
       y="-431.07031"><tspan
         id="tspan902"
         sodipodi:role="line"
         x="32.976562"
         y="-431.07031"
         style="-inkscape-font-specification:raleway;font-family:raleway;font-weight:normal;font-style:normal;font-stretch:normal;font-variant:normal">Both phone and tablet screens share a common aspect ratio</tspan></text>
<g
       aria-label="nathancunn.com (@nathcun)"
       transform="scale(1,-1)"
       style="font-style:normal;font-weight:normal;font-size:30px;line-height:1.25;font-family:sans-serif;letter-spacing:0px;word-spacing:0px;fill:#000000;fill-opacity:1;stroke:none;stroke-width:0.75"
       id="text2613"><path
         d="m 685.5617,-6.2519875 h -0.816 v -3.492 q 0,-1.1159995 -0.336,-1.6199995 -0.324,-0.504 -1.008,-0.504 -0.36,0 -0.72,0.132 -0.36,0.132 -0.672,0.372 -0.3,0.24 -0.54,0.576 -0.24,0.324 -0.348,0.708 v 3.8279995 h -0.816 v -6.2519995 h 0.744 v 1.416 q 0.384,-0.684 1.092,-1.104 0.72,-0.42 1.56,-0.42 0.516,0 0.876,0.192 0.36,0.192 0.576,0.54 0.216,0.348 0.312,0.852 0.096,0.504 0.096,1.1159995 z"
         style="font-style:normal;font-variant:normal;font-weight:normal;font-stretch:normal;font-size:12px;font-family:raleway;-inkscape-font-specification:raleway;stroke-width:0.75"
         id="path2615" /><path
         d="m 688.88551,-6.1319875 q -0.444,0 -0.828,-0.144 -0.372,-0.156 -0.66,-0.42 -0.276,-0.264 -0.432,-0.612 -0.156,-0.36 -0.156,-0.768 0,-0.408 0.192,-0.756 0.192,-0.348 0.54,-0.6 0.348,-0.252 0.828,-0.384 0.48,-0.144 1.056,-0.144 0.48,0 0.972,0.084 0.492,0.084 0.876,0.24 v -0.5639995 q 0,-0.828 -0.468,-1.308 -0.468,-0.492 -1.296,-0.492 -0.48,0 -0.984,0.192 -0.504,0.192 -1.02,0.552 l -0.288,-0.54 q 1.212,-0.816 2.352,-0.816 1.176,0 1.848,0.66 0.672,0.66 0.672,1.824 v 2.8199995 q 0,0.336 0.3,0.336 v 0.72 q -0.204,0.036 -0.312,0.036 -0.312,0 -0.492,-0.156 -0.168,-0.156 -0.18,-0.432 l -0.024,-0.492 q -0.432,0.564 -1.092,0.864 -0.648,0.3 -1.404,0.3 z m 0.192,-0.624 q 0.636,0 1.164,-0.24 0.54,-0.24 0.816,-0.636 0.108,-0.108 0.156,-0.228 0.06,-0.132 0.06,-0.24 v -1.02 q -0.408,-0.156 -0.852,-0.24 -0.432,-0.084 -0.888,-0.084 -0.864,0 -1.404,0.36 -0.54,0.36 -0.54,0.948 0,0.288 0.108,0.54 0.12,0.252 0.312,0.444 0.204,0.18 0.48,0.288 0.276,0.108 0.588,0.108 z"
         style="font-style:normal;font-variant:normal;font-weight:normal;font-stretch:normal;font-size:12px;font-family:raleway;-inkscape-font-specification:raleway;stroke-width:0.75"
         id="path2617" /><path
         d="m 696.8057,-6.5519875 q -0.072,0.036 -0.216,0.096 -0.132,0.06 -0.312,0.12 -0.18,0.06 -0.408,0.108 -0.228,0.048 -0.48,0.048 -0.264,0 -0.504,-0.072 -0.24,-0.072 -0.42,-0.216 -0.18,-0.156 -0.288,-0.384 -0.108,-0.228 -0.108,-0.528 v -4.4759995 h -0.864 v -0.648 h 0.864 v -2.112 h 0.816 v 2.112 h 1.44 v 0.648 h -1.44 v 4.2479995 q 0.024,0.348 0.24,0.516 0.228,0.156 0.516,0.156 0.348,0 0.612,-0.108 0.264,-0.12 0.336,-0.168 z"
         style="font-style:normal;font-variant:normal;font-weight:normal;font-stretch:normal;font-size:12px;font-family:raleway;-inkscape-font-specification:raleway;stroke-width:0.75"
         id="path2619" /><path
         d="m 703.09295,-6.2519875 h -0.816 v -3.492 q 0,-1.0679995 -0.372,-1.5959995 -0.36,-0.528 -1.068,-0.528 -0.348,0 -0.696,0.144 -0.336,0.132 -0.636,0.372 -0.3,0.24 -0.528,0.564 -0.216,0.324 -0.324,0.708 v 3.8279995 h -0.816 v -8.7599995 h 0.816 v 3.924 q 0.372,-0.708 1.032,-1.116 0.66,-0.408 1.428,-0.408 0.54,0 0.912,0.204 0.372,0.192 0.612,0.552 0.24,0.348 0.348,0.852 0.108,0.492 0.108,1.0919995 z"
         style="font-style:normal;font-variant:normal;font-weight:normal;font-stretch:normal;font-size:12px;font-family:raleway;-inkscape-font-specification:raleway;stroke-width:0.75"
         id="path2621" /><path
         d="m 706.41676,-6.1319875 q -0.444,0 -0.828,-0.144 -0.372,-0.156 -0.66,-0.42 -0.276,-0.264 -0.432,-0.612 -0.156,-0.36 -0.156,-0.768 0,-0.408 0.192,-0.756 0.192,-0.348 0.54,-0.6 0.348,-0.252 0.828,-0.384 0.48,-0.144 1.056,-0.144 0.48,0 0.972,0.084 0.492,0.084 0.876,0.24 v -0.5639995 q 0,-0.828 -0.468,-1.308 -0.468,-0.492 -1.296,-0.492 -0.48,0 -0.984,0.192 -0.504,0.192 -1.02,0.552 l -0.288,-0.54 q 1.212,-0.816 2.352,-0.816 1.176,0 1.848,0.66 0.672,0.66 0.672,1.824 v 2.8199995 q 0,0.336 0.3,0.336 v 0.72 q -0.204,0.036 -0.312,0.036 -0.312,0 -0.492,-0.156 -0.168,-0.156 -0.18,-0.432 l -0.024,-0.492 q -0.432,0.564 -1.092,0.864 -0.648,0.3 -1.404,0.3 z m 0.192,-0.624 q 0.636,0 1.164,-0.24 0.54,-0.24 0.816,-0.636 0.108,-0.108 0.156,-0.228 0.06,-0.132 0.06,-0.24 v -1.02 q -0.408,-0.156 -0.852,-0.24 -0.432,-0.084 -0.888,-0.084 -0.864,0 -1.404,0.36 -0.54,0.36 -0.54,0.948 0,0.288 0.108,0.54 0.12,0.252 0.312,0.444 0.204,0.18 0.48,0.288 0.276,0.108 0.588,0.108 z"
         style="font-style:normal;font-variant:normal;font-weight:normal;font-stretch:normal;font-size:12px;font-family:raleway;-inkscape-font-specification:raleway;stroke-width:0.75"
         id="path2623" /><path
         d="m 716.63983,-6.2519875 h -0.816 v -3.492 q 0,-1.1159995 -0.336,-1.6199995 -0.324,-0.504 -1.008,-0.504 -0.36,0 -0.72,0.132 -0.36,0.132 -0.672,0.372 -0.3,0.24 -0.54,0.576 -0.24,0.324 -0.348,0.708 v 3.8279995 h -0.816 v -6.2519995 h 0.744 v 1.416 q 0.384,-0.684 1.092,-1.104 0.72,-0.42 1.56,-0.42 0.516,0 0.876,0.192 0.36,0.192 0.576,0.54 0.216,0.348 0.312,0.852 0.096,0.504 0.096,1.1159995 z"
         style="font-style:normal;font-variant:normal;font-weight:normal;font-stretch:normal;font-size:12px;font-family:raleway;-inkscape-font-specification:raleway;stroke-width:0.75"
         id="path2625" /><path
         d="m 717.95964,-9.3959875 q 0,-0.6599995 0.228,-1.2479995 0.228,-0.588 0.636,-1.02 0.42,-0.444 0.996,-0.696 0.576,-0.252 1.272,-0.252 0.888,0 1.548,0.408 0.66,0.396 0.996,1.08 l -0.792,0.252 q -0.264,-0.48 -0.744,-0.744 -0.468,-0.276 -1.044,-0.276 -0.48,0 -0.9,0.192 -0.408,0.192 -0.72,0.528 -0.3,0.324 -0.48,0.78 -0.168,0.4559995 -0.168,0.9959995 0,0.528 0.18,0.996 0.18,0.468 0.492,0.816 0.312,0.336 0.72,0.54 0.42,0.192 0.888,0.192 0.3,0 0.588,-0.084 0.3,-0.084 0.552,-0.228 0.252,-0.156 0.432,-0.348 0.18,-0.192 0.252,-0.408 l 0.804,0.24 q -0.132,0.336 -0.384,0.624 -0.252,0.276 -0.6,0.492 -0.336,0.204 -0.756,0.312 -0.408,0.12 -0.852,0.12 -0.684,0 -1.26,-0.252 -0.576,-0.264 -0.996,-0.708 -0.42,-0.456 -0.66,-1.044 -0.228,-0.588 -0.228,-1.26 z"
         style="font-style:normal;font-variant:normal;font-weight:normal;font-stretch:normal;font-size:12px;font-family:raleway;-inkscape-font-specification:raleway;stroke-width:0.75"
         id="path2627" /><path
         d="m 726.93358,-6.1319875 q -1.02,0 -1.524,-0.672 -0.492,-0.684 -0.492,-2.028 v -3.6719995 h 0.816 v 3.5279995 q 0,2.124 1.452,2.124 0.36,0 0.708,-0.12 0.348,-0.12 0.636,-0.348 0.3,-0.228 0.528,-0.54 0.24,-0.312 0.384,-0.708 v -3.9359995 h 0.816 v 5.1959995 q 0,0.336 0.288,0.336 v 0.72 q -0.144,0.024 -0.24,0.024 -0.084,0 -0.12,0 -0.288,-0.012 -0.468,-0.204 -0.18,-0.192 -0.18,-0.516 v -0.72 q -0.408,0.732 -1.116,1.14 -0.696,0.396 -1.488,0.396 z"
         style="font-style:normal;font-variant:normal;font-weight:normal;font-stretch:normal;font-size:12px;font-family:raleway;-inkscape-font-specification:raleway;stroke-width:0.75"
         id="path2629" /><path
         d="m 737.35858,-6.2519875 h -0.816 v -3.492 q 0,-1.1159995 -0.336,-1.6199995 -0.324,-0.504 -1.008,-0.504 -0.36,0 -0.72,0.132 -0.36,0.132 -0.672,0.372 -0.3,0.24 -0.54,0.576 -0.24,0.324 -0.348,0.708 v 3.8279995 h -0.816 v -6.2519995 h 0.744 v 1.416 q 0.384,-0.684 1.092,-1.104 0.72,-0.42 1.56,-0.42 0.516,0 0.876,0.192 0.36,0.192 0.576,0.54 0.216,0.348 0.312,0.852 0.096,0.504 0.096,1.1159995 z"
         style="font-style:normal;font-variant:normal;font-weight:normal;font-stretch:normal;font-size:12px;font-family:raleway;-inkscape-font-specification:raleway;stroke-width:0.75"
         id="path2631" /><path
         d="m 744.36639,-6.2519875 h -0.816 v -3.492 q 0,-1.1159995 -0.336,-1.6199995 -0.324,-0.504 -1.008,-0.504 -0.36,0 -0.72,0.132 -0.36,0.132 -0.672,0.372 -0.3,0.24 -0.54,0.576 -0.24,0.324 -0.348,0.708 v 3.8279995 h -0.816 v -6.2519995 h 0.744 v 1.416 q 0.384,-0.684 1.092,-1.104 0.72,-0.42 1.56,-0.42 0.516,0 0.876,0.192 0.36,0.192 0.576,0.54 0.216,0.348 0.312,0.852 0.096,0.504 0.096,1.1159995 z"
         style="font-style:normal;font-variant:normal;font-weight:normal;font-stretch:normal;font-size:12px;font-family:raleway;-inkscape-font-specification:raleway;stroke-width:0.75"
         id="path2633" /><path
         d="m 745.9982,-6.2519875 v -1.176 h 0.708 v 1.176 z"
         style="font-style:normal;font-variant:normal;font-weight:normal;font-stretch:normal;font-size:12px;font-family:raleway;-inkscape-font-specification:raleway;stroke-width:0.75"
         id="path2635" /><path
         d="m 747.95964,-9.3959875 q 0,-0.6599995 0.228,-1.2479995 0.228,-0.588 0.636,-1.02 0.42,-0.444 0.996,-0.696 0.576,-0.252 1.272,-0.252 0.888,0 1.548,0.408 0.66,0.396 0.996,1.08 l -0.792,0.252 q -0.264,-0.48 -0.744,-0.744 -0.468,-0.276 -1.044,-0.276 -0.48,0 -0.9,0.192 -0.408,0.192 -0.72,0.528 -0.3,0.324 -0.48,0.78 -0.168,0.4559995 -0.168,0.9959995 0,0.528 0.18,0.996 0.18,0.468 0.492,0.816 0.312,0.336 0.72,0.54 0.42,0.192 0.888,0.192 0.3,0 0.588,-0.084 0.3,-0.084 0.552,-0.228 0.252,-0.156 0.432,-0.348 0.18,-0.192 0.252,-0.408 l 0.804,0.24 q -0.132,0.336 -0.384,0.624 -0.252,0.276 -0.6,0.492 -0.336,0.204 -0.756,0.312 -0.408,0.12 -0.852,0.12 -0.684,0 -1.26,-0.252 -0.576,-0.264 -0.996,-0.708 -0.42,-0.456 -0.66,-1.044 -0.228,-0.588 -0.228,-1.26 z"
         style="font-style:normal;font-variant:normal;font-weight:normal;font-stretch:normal;font-size:12px;font-family:raleway;-inkscape-font-specification:raleway;stroke-width:0.75"
         id="path2637" /><path
         d="m 757.57126,-6.1319875 q -0.684,0 -1.248,-0.252 -0.564,-0.264 -0.984,-0.708 -0.408,-0.444 -0.636,-1.032 -0.228,-0.588 -0.228,-1.236 0,-0.6599995 0.228,-1.2479995 0.24,-0.588 0.648,-1.032 0.42,-0.444 0.984,-0.708 0.564,-0.264 1.236,-0.264 0.672,0 1.236,0.264 0.576,0.264 0.984,0.708 0.42,0.444 0.648,1.032 0.24,0.588 0.24,1.2479995 0,0.648 -0.228,1.236 -0.228,0.588 -0.648,1.032 -0.408,0.444 -0.984,0.708 -0.564,0.252 -1.248,0.252 z m -2.268,-3.216 q 0,0.528 0.18,0.984 0.18,0.444 0.48,0.792 0.312,0.336 0.72,0.528 0.42,0.192 0.888,0.192 0.468,0 0.876,-0.192 0.42,-0.204 0.732,-0.54 0.312,-0.348 0.492,-0.804 0.18,-0.456 0.18,-0.984 0,-0.516 -0.18,-0.9719995 -0.18,-0.468 -0.492,-0.804 -0.312,-0.348 -0.732,-0.54 -0.408,-0.204 -0.876,-0.204 -0.468,0 -0.876,0.204 -0.408,0.192 -0.72,0.54 -0.312,0.348 -0.492,0.816 -0.18,0.4559995 -0.18,0.9839995 z"
         style="font-style:normal;font-variant:normal;font-weight:normal;font-stretch:normal;font-size:12px;font-family:raleway;-inkscape-font-specification:raleway;stroke-width:0.75"
         id="path2639" /><path
         d="m 771.3557,-6.2519875 h -0.816 v -3.492 q 0,-1.0919995 -0.348,-1.6079995 -0.348,-0.516 -1.032,-0.516 -0.36,0 -0.684,0.132 -0.312,0.132 -0.588,0.372 -0.264,0.24 -0.468,0.576 -0.204,0.324 -0.312,0.72 v 3.8159995 h -0.816 v -3.492 q 0,-1.1159995 -0.336,-1.6199995 -0.336,-0.504 -1.032,-0.504 -0.708,0 -1.26,0.492 -0.552,0.492 -0.792,1.296 v 3.8279995 h -0.816 v -6.2519995 h 0.744 v 1.416 q 0.384,-0.72 1.008,-1.116 0.624,-0.408 1.38,-0.408 0.792,0 1.26,0.444 0.48,0.444 0.588,1.164 0.876,-1.608 2.412,-1.608 0.528,0 0.888,0.192 0.372,0.192 0.588,0.552 0.228,0.348 0.324,0.852 0.108,0.492 0.108,1.1039995 z"
         style="font-style:normal;font-variant:normal;font-weight:normal;font-stretch:normal;font-size:12px;font-family:raleway;-inkscape-font-specification:raleway;stroke-width:0.75"
         id="path2641" /><path
         d="m 775.79308,-10.403987 q 0,-0.612 0.132,-1.2 0.132,-0.6 0.36,-1.176 0.228,-0.588 0.528,-1.164 0.312,-0.588 0.66,-1.176 l 0.624,0.3 q -0.24,0.36 -0.516,0.888 -0.264,0.528 -0.492,1.128 -0.228,0.6 -0.384,1.236 -0.144,0.624 -0.144,1.2 0,0.9359995 0.408,2.0519995 0.408,1.104 1.116,2.184 l -0.612,0.324 q -0.756,-1.128 -1.224,-2.28 -0.456,-1.164 -0.456,-2.3159995 z"
         style="font-style:normal;font-variant:normal;font-weight:normal;font-stretch:normal;font-size:12px;font-family:raleway;-inkscape-font-specification:raleway;stroke-width:0.75"
         id="path2643" /><path
         d="m 783.50345,-13.487987 q 0.888,0 1.68,0.336 0.792,0.324 1.392,0.936 0.6,0.6 0.948,1.44 0.348,0.8399995 0.348,1.8599995 0,0.168 -0.024,0.456 -0.012,0.276 -0.072,0.588 -0.06,0.312 -0.18,0.636 -0.108,0.324 -0.3,0.588 -0.192,0.264 -0.48,0.42 -0.288,0.168 -0.696,0.168 -0.3,0 -0.492,-0.096 -0.18,-0.084 -0.288,-0.24 -0.108,-0.156 -0.156,-0.348 -0.048,-0.204 -0.072,-0.42 -0.336,0.348 -0.864,0.6 -0.528,0.252 -1.164,0.252 -0.852,0 -1.332,-0.444 -0.468,-0.456 -0.468,-1.164 0,-0.456 0.192,-0.768 0.204,-0.312 0.516,-0.492 0.324,-0.192 0.72,-0.264 0.396,-0.084 0.792,-0.084 0.528,0 0.924,0.108 0.396,0.096 0.6,0.168 0,-0.432 -0.072,-0.7799995 -0.06,-0.36 -0.228,-0.612 -0.168,-0.252 -0.456,-0.396 -0.288,-0.144 -0.732,-0.144 -0.468,0 -0.9,0.156 -0.432,0.144 -0.78,0.408 l -0.216,-0.468 q 0.432,-0.288 0.912,-0.456 0.492,-0.168 1.056,-0.168 0.66,0 1.044,0.228 0.396,0.216 0.6,0.576 0.204,0.348 0.252,0.792 0.06,0.4319995 0.06,0.8639995 v 1.548 q 0,0.264 0.012,0.492 0.024,0.216 0.084,0.372 0.072,0.156 0.192,0.252 0.132,0.084 0.336,0.084 0.372,0 0.612,-0.252 0.24,-0.264 0.384,-0.636 0.144,-0.372 0.192,-0.792 0.06,-0.432 0.06,-0.756 0,-0.864 -0.3,-1.6199995 -0.3,-0.756 -0.84,-1.308 -0.528,-0.564 -1.248,-0.888 -0.72,-0.324 -1.56,-0.324 -0.816,0 -1.548,0.312 -0.72,0.3 -1.272,0.84 -0.54,0.54 -0.864,1.284 -0.312,0.7439995 -0.312,1.6319995 0,0.852 0.3,1.608 0.3,0.744 0.816,1.296 0.528,0.564 1.248,0.876 0.72,0.324 1.572,0.324 0.516,0 0.948,-0.12 0.444,-0.12 0.888,-0.336 l 0.156,0.384 q -0.492,0.24 -0.996,0.36 -0.504,0.12 -1.008,0.12 -0.9,0 -1.692,-0.336 -0.792,-0.336 -1.392,-0.948 -0.588,-0.6 -0.936,-1.428 -0.336,-0.828 -0.336,-1.8 0,-1.0199995 0.36,-1.8359995 0.372,-0.828 0.984,-1.416 0.624,-0.588 1.428,-0.9 0.804,-0.324 1.668,-0.324 z m 0.732,6.3959995 q 0.504,-0.24 0.636,-0.564 0.144,-0.324 0.144,-0.66 v -0.48 q -0.156,-0.024 -0.564,-0.144 -0.396,-0.12 -0.972,-0.12 -0.312,0 -0.612,0.06 -0.3,0.048 -0.528,0.18 -0.228,0.132 -0.372,0.348 -0.132,0.204 -0.132,0.528 0,0.504 0.36,0.816 0.36,0.3 0.924,0.3 0.3,0 0.588,-0.072 0.3,-0.084 0.528,-0.192 z"
         style="font-style:normal;font-variant:normal;font-weight:normal;font-stretch:normal;font-size:12px;font-family:raleway;-inkscape-font-specification:raleway;stroke-width:0.75"
         id="path2645" /><path
         d="m 794.71014,-6.2519875 h -0.816 v -3.492 q 0,-1.1159995 -0.336,-1.6199995 -0.324,-0.504 -1.008,-0.504 -0.36,0 -0.72,0.132 -0.36,0.132 -0.672,0.372 -0.3,0.24 -0.54,0.576 -0.24,0.324 -0.348,0.708 v 3.8279995 h -0.816 v -6.2519995 h 0.744 v 1.416 q 0.384,-0.684 1.092,-1.104 0.72,-0.42 1.56,-0.42 0.516,0 0.876,0.192 0.36,0.192 0.576,0.54 0.216,0.348 0.312,0.852 0.096,0.504 0.096,1.1159995 z"
         style="font-style:normal;font-variant:normal;font-weight:normal;font-stretch:normal;font-size:12px;font-family:raleway;-inkscape-font-specification:raleway;stroke-width:0.75"
         id="path2647" /><path
         d="m 798.03395,-6.1319875 q -0.444,0 -0.828,-0.144 -0.372,-0.156 -0.66,-0.42 -0.276,-0.264 -0.432,-0.612 -0.156,-0.36 -0.156,-0.768 0,-0.408 0.192,-0.756 0.192,-0.348 0.54,-0.6 0.348,-0.252 0.828,-0.384 0.48,-0.144 1.056,-0.144 0.48,0 0.972,0.084 0.492,0.084 0.876,0.24 v -0.5639995 q 0,-0.828 -0.468,-1.308 -0.468,-0.492 -1.296,-0.492 -0.48,0 -0.984,0.192 -0.504,0.192 -1.02,0.552 l -0.288,-0.54 q 1.212,-0.816 2.352,-0.816 1.176,0 1.848,0.66 0.672,0.66 0.672,1.824 v 2.8199995 q 0,0.336 0.3,0.336 v 0.72 q -0.204,0.036 -0.312,0.036 -0.312,0 -0.492,-0.156 -0.168,-0.156 -0.18,-0.432 l -0.024,-0.492 q -0.432,0.564 -1.092,0.864 -0.648,0.3 -1.404,0.3 z m 0.192,-0.624 q 0.636,0 1.164,-0.24 0.54,-0.24 0.816,-0.636 0.108,-0.108 0.156,-0.228 0.06,-0.132 0.06,-0.24 v -1.02 q -0.408,-0.156 -0.852,-0.24 -0.432,-0.084 -0.888,-0.084 -0.864,0 -1.404,0.36 -0.54,0.36 -0.54,0.948 0,0.288 0.108,0.54 0.12,0.252 0.312,0.444 0.204,0.18 0.48,0.288 0.276,0.108 0.588,0.108 z"
         style="font-style:normal;font-variant:normal;font-weight:normal;font-stretch:normal;font-size:12px;font-family:raleway;-inkscape-font-specification:raleway;stroke-width:0.75"
         id="path2649" /><path
         d="m 805.95414,-6.5519875 q -0.072,0.036 -0.216,0.096 -0.132,0.06 -0.312,0.12 -0.18,0.06 -0.408,0.108 -0.228,0.048 -0.48,0.048 -0.264,0 -0.504,-0.072 -0.24,-0.072 -0.42,-0.216 -0.18,-0.156 -0.288,-0.384 -0.108,-0.228 -0.108,-0.528 v -4.4759995 h -0.864 v -0.648 h 0.864 v -2.112 h 0.816 v 2.112 h 1.44 v 0.648 h -1.44 v 4.2479995 q 0.024,0.348 0.24,0.516 0.228,0.156 0.516,0.156 0.348,0 0.612,-0.108 0.264,-0.12 0.336,-0.168 z"
         style="font-style:normal;font-variant:normal;font-weight:normal;font-stretch:normal;font-size:12px;font-family:raleway;-inkscape-font-specification:raleway;stroke-width:0.75"
         id="path2651" /><path
         d="m 812.24139,-6.2519875 h -0.816 v -3.492 q 0,-1.0679995 -0.372,-1.5959995 -0.36,-0.528 -1.068,-0.528 -0.348,0 -0.696,0.144 -0.336,0.132 -0.636,0.372 -0.3,0.24 -0.528,0.564 -0.216,0.324 -0.324,0.708 v 3.8279995 h -0.816 v -8.7599995 h 0.816 v 3.924 q 0.372,-0.708 1.032,-1.116 0.66,-0.408 1.428,-0.408 0.54,0 0.912,0.204 0.372,0.192 0.612,0.552 0.24,0.348 0.348,0.852 0.108,0.492 0.108,1.0919995 z"
         style="font-style:normal;font-variant:normal;font-weight:normal;font-stretch:normal;font-size:12px;font-family:raleway;-inkscape-font-specification:raleway;stroke-width:0.75"
         id="path2653" /><path
         d="m 813.5612,-9.3959875 q 0,-0.6599995 0.228,-1.2479995 0.228,-0.588 0.636,-1.02 0.42,-0.444 0.996,-0.696 0.576,-0.252 1.272,-0.252 0.888,0 1.548,0.408 0.66,0.396 0.996,1.08 l -0.792,0.252 q -0.264,-0.48 -0.744,-0.744 -0.468,-0.276 -1.044,-0.276 -0.48,0 -0.9,0.192 -0.408,0.192 -0.72,0.528 -0.3,0.324 -0.48,0.78 -0.168,0.4559995 -0.168,0.9959995 0,0.528 0.18,0.996 0.18,0.468 0.492,0.816 0.312,0.336 0.72,0.54 0.42,0.192 0.888,0.192 0.3,0 0.588,-0.084 0.3,-0.084 0.552,-0.228 0.252,-0.156 0.432,-0.348 0.18,-0.192 0.252,-0.408 l 0.804,0.24 q -0.132,0.336 -0.384,0.624 -0.252,0.276 -0.6,0.492 -0.336,0.204 -0.756,0.312 -0.408,0.12 -0.852,0.12 -0.684,0 -1.26,-0.252 -0.576,-0.264 -0.996,-0.708 -0.42,-0.456 -0.66,-1.044 -0.228,-0.588 -0.228,-1.26 z"
         style="font-style:normal;font-variant:normal;font-weight:normal;font-stretch:normal;font-size:12px;font-family:raleway;-inkscape-font-specification:raleway;stroke-width:0.75"
         id="path2655" /><path
         d="m 822.53514,-6.1319875 q -1.02,0 -1.524,-0.672 -0.492,-0.684 -0.492,-2.028 v -3.6719995 h 0.816 v 3.5279995 q 0,2.124 1.452,2.124 0.36,0 0.708,-0.12 0.348,-0.12 0.636,-0.348 0.3,-0.228 0.528,-0.54 0.24,-0.312 0.384,-0.708 v -3.9359995 h 0.816 v 5.1959995 q 0,0.336 0.288,0.336 v 0.72 q -0.144,0.024 -0.24,0.024 -0.084,0 -0.12,0 -0.288,-0.012 -0.468,-0.204 -0.18,-0.192 -0.18,-0.516 v -0.72 q -0.408,0.732 -1.116,1.14 -0.696,0.396 -1.488,0.396 z"
         style="font-style:normal;font-variant:normal;font-weight:normal;font-stretch:normal;font-size:12px;font-family:raleway;-inkscape-font-specification:raleway;stroke-width:0.75"
         id="path2657" /><path
         d="m 832.96014,-6.2519875 h -0.816 v -3.492 q 0,-1.1159995 -0.336,-1.6199995 -0.324,-0.504 -1.008,-0.504 -0.36,0 -0.72,0.132 -0.36,0.132 -0.672,0.372 -0.3,0.24 -0.54,0.576 -0.24,0.324 -0.348,0.708 v 3.8279995 h -0.816 v -6.2519995 h 0.744 v 1.416 q 0.384,-0.684 1.092,-1.104 0.72,-0.42 1.56,-0.42 0.516,0 0.876,0.192 0.36,0.192 0.576,0.54 0.216,0.348 0.312,0.852 0.096,0.504 0.096,1.1159995 z"
         style="font-style:normal;font-variant:normal;font-weight:normal;font-stretch:normal;font-size:12px;font-family:raleway;-inkscape-font-specification:raleway;stroke-width:0.75"
         id="path2659" /><path
         d="m 836.49995,-10.403987 q 0,1.1519995 -0.456,2.3159995 -0.456,1.152 -1.224,2.28 l -0.6,-0.324 q 0.348,-0.54 0.624,-1.092 0.288,-0.552 0.48,-1.092 0.204,-0.552 0.312,-1.068 0.108,-0.516 0.108,-0.9839995 0,-0.576 -0.156,-1.2 -0.144,-0.636 -0.372,-1.236 -0.228,-0.6 -0.504,-1.128 -0.264,-0.528 -0.516,-0.888 l 0.636,-0.3 q 0.348,0.588 0.648,1.176 0.312,0.576 0.528,1.164 0.228,0.576 0.36,1.176 0.132,0.588 0.132,1.2 z"
         style="font-style:normal;font-variant:normal;font-weight:normal;font-stretch:normal;font-size:12px;font-family:raleway;-inkscape-font-specification:raleway;stroke-width:0.75"
         id="path2661" /></g></g></svg>