<?xml version="1.0" encoding="UTF-8" standalone="no"?>
<!-- Created with Inkscape (http://www.inkscape.org/) -->

<svg
   xmlns:dc="http://purl.org/dc/elements/1.1/"
   xmlns:cc="http://creativecommons.org/ns#"
   xmlns:rdf="http://www.w3.org/1999/02/22-rdf-syntax-ns#"
   xmlns:svg="http://www.w3.org/2000/svg"
   xmlns="http://www.w3.org/2000/svg"
   xmlns:sodipodi="http://sodipodi.sourceforge.net/DTD/sodipodi-0.dtd"
   xmlns:inkscape="http://www.inkscape.org/namespaces/inkscape"
   version="1.1"
   id="svg392"
   xml:space="preserve"
   width="654.66669"
   height="368"
   viewBox="0 0 654.66669 368"
   sodipodi:docname="original_densities.svg"
   inkscape:version="0.92.2 (5c3e80d, 2017-08-06)"><metadata
     id="metadata398"><rdf:RDF><cc:Work
         rdf:about=""><dc:format>image/svg+xml</dc:format><dc:type
           rdf:resource="http://purl.org/dc/dcmitype/StillImage" /><dc:title></dc:title></cc:Work></rdf:RDF></metadata><defs
     id="defs396"><clipPath
       clipPathUnits="userSpaceOnUse"
       id="clipPath418"><path
         d="M 24.098,5.48 H 486.52 V 227.578 H 24.098 Z"
         id="path416"
         inkscape:connector-curvature="0" /></clipPath><clipPath
       clipPathUnits="userSpaceOnUse"
       id="clipPath426"><path
         d="M 24,5 H 487 V 228 H 24 Z"
         id="path424"
         inkscape:connector-curvature="0" /></clipPath></defs><sodipodi:namedview
     pagecolor="#ffffff"
     bordercolor="#666666"
     borderopacity="1"
     objecttolerance="10"
     gridtolerance="10"
     guidetolerance="10"
     inkscape:pageopacity="0"
     inkscape:pageshadow="2"
     inkscape:window-width="690"
     inkscape:window-height="480"
     id="namedview394"
     showgrid="false"
     inkscape:zoom="0.52698573"
     inkscape:cx="327.33334"
     inkscape:cy="184"
     inkscape:window-x="0"
     inkscape:window-y="0"
     inkscape:window-maximized="0"
     inkscape:current-layer="g400" /><g
     id="g400"
     inkscape:groupmode="layer"
     inkscape:label="original_densities"
     transform="matrix(1.3333333,0,0,1.3333333,0,9.2e-6)"><g
       id="g402"><path
         d="M 0,0 H 491 V 276 H 0 Z"
         style="fill:#ffffff;fill-opacity:1;fill-rule:nonzero;stroke:none"
         id="path404"
         inkscape:connector-curvature="0" /><path
         d="M 0,0 H 491 V 276 H 0 Z"
         style="fill:#7099e1;fill-opacity:1;fill-rule:nonzero;stroke:none"
         id="path406"
         inkscape:connector-curvature="0" /><g
         id="g408"
         transform="scale(1,-1)"><path
           d="M 0,0 H 491 V -276 H 0 Z"
           style="fill:none;stroke:#7099e1;stroke-width:1.06697798;stroke-linecap:round;stroke-linejoin:round;stroke-miterlimit:10;stroke-dasharray:none;stroke-opacity:1"
           id="path410"
           inkscape:connector-curvature="0" /></g></g><g
       id="g412"><g
         id="g414"
         clip-path="url(#clipPath418)"><g
           id="g420"><g
             id="g422" /><g
             id="g438"><g
               clip-path="url(#clipPath426)"
               id="g436"><g
                 id="g434"><path
                   d="m 45.07,215.422 h 0.825 l 0.82,0.008 0.82,0.004 1.641,0.023 0.82,0.016 0.82,0.019 0.825,0.02 1.64,0.047 1.641,0.054 1.641,0.063 0.824,0.031 0.82,0.031 0.82,0.035 0.821,0.032 1.64,0.07 0.821,0.031 0.824,0.035 2.461,0.094 1.64,0.055 0.825,0.027 2.461,0.071 0.82,0.019 0.82,0.016 0.82,0.019 0.825,0.012 0.82,0.012 2.461,0.023 0.82,0.004 h 0.821 l 0.824,-0.004 1.64,-0.008 0.821,-0.008 2.461,-0.035 0.824,-0.019 0.82,-0.016 0.821,-0.019 1.64,-0.047 0.82,-0.028 0.825,-0.023 0.82,-0.031 0.82,-0.028 1.641,-0.062 0.82,-0.035 0.821,-0.032 0.824,-0.035 0.82,-0.031 2.461,-0.105 1.641,-0.063 0.824,-0.035 0.82,-0.027 0.82,-0.032 1.641,-0.054 1.641,-0.047 0.824,-0.02 0.82,-0.019 1.641,-0.032 1.641,-0.023 0.824,-0.008 3.281,-0.015 h 0.82 l 0.821,0.003 h 2.464 l 0.821,0.004 0.82,-0.004 h 0.82 l 0.821,-0.003 0.824,-0.004 1.641,-0.024 0.82,-0.015 0.82,-0.02 0.82,-0.023 0.821,-0.032 0.824,-0.035 0.82,-0.043 0.821,-0.047 0.82,-0.058 0.82,-0.063 0.821,-0.07 0.824,-0.078 0.82,-0.086 0.82,-0.098 0.821,-0.105 0.82,-0.113 0.82,-0.125 0.821,-0.133 0.824,-0.145 0.82,-0.152 0.821,-0.16 0.82,-0.172 0.82,-0.184 0.82,-0.187 0.821,-0.2 0.824,-0.21 0.82,-0.215 0.821,-0.227 0.82,-0.234 0.82,-0.242 0.821,-0.25 0.82,-0.254 0.824,-0.266 0.82,-0.269 0.821,-0.274 1.64,-0.57 0.821,-0.293 0.824,-0.297 0.82,-0.301 1.641,-0.617 0.82,-0.316 1.641,-0.649 0.824,-0.328 0.82,-0.336 0.821,-0.34 0.82,-0.347 0.82,-0.356 0.821,-0.359 0.82,-0.371 0.824,-0.379 0.82,-0.387 0.821,-0.398 0.82,-0.415 0.82,-0.425 0.821,-0.442 0.82,-0.457 0.824,-0.476 0.82,-0.496 0.821,-0.52 0.82,-0.539 0.82,-0.566 0.821,-0.598 0.82,-0.621 0.824,-0.649 0.821,-0.679 0.82,-0.723 0.82,-0.754 0.82,-0.789 0.821,-0.82 0.824,-0.871 0.82,-0.907 0.821,-0.949 0.82,-0.98 0.82,-1.031 0.821,-1.075 0.82,-1.117 0.824,-1.152 0.82,-1.192 0.821,-1.246 0.82,-1.281 0.82,-1.316 0.821,-1.352 0.82,-1.398 0.824,-1.43 0.821,-1.465 0.82,-1.492 0.82,-1.524 0.82,-1.554 0.821,-1.578 0.82,-1.602 0.824,-1.621 0.821,-1.645 0.82,-1.66 0.82,-1.675 0.821,-1.688 0.82,-1.699 0.824,-1.707 0.82,-1.715 0.821,-1.723 0.82,-1.726 0.82,-1.731 1.641,-3.469 0.824,-1.738 0.82,-1.734 1.641,-3.477 0.82,-1.742 0.821,-1.738 0.82,-1.742 0.824,-1.746 0.821,-1.747 1.64,-3.507 0.821,-1.762 0.82,-1.77 0.82,-1.773 0.824,-1.785 0.821,-1.793 0.82,-1.801 0.82,-1.812 0.821,-1.825 0.82,-1.84 0.824,-1.851 0.82,-1.859 0.821,-1.879 0.82,-1.891 0.82,-1.906 0.821,-1.918 0.82,-1.93 0.824,-1.949 0.821,-1.957 0.82,-1.973 0.82,-1.98 0.82,-1.996 0.821,-2.004 0.82,-2.016 0.824,-2.019 0.821,-2.032 0.82,-2.035 0.82,-2.039 0.821,-2.047 0.82,-2.043 0.82,-2.047 0.824,-2.047 1.641,-4.085 0.82,-2.032 0.821,-2.023 0.82,-2.02 0.824,-2.004 0.821,-1.992 0.82,-1.972 0.82,-1.957 0.82,-1.938 0.821,-1.914 0.82,-1.883 0.824,-1.859 0.821,-1.828 0.82,-1.793 0.82,-1.746 0.821,-1.707 0.82,-1.664 0.82,-1.622 0.824,-1.55 0.821,-1.496 0.82,-1.434 0.82,-1.375 0.821,-1.293 0.82,-1.207 0.82,-1.129 0.824,-1.051 0.821,-0.957 0.82,-0.832 0.82,-0.738 0.821,-0.641 0.82,-0.531 0.824,-0.379 0.821,-0.262 0.82,-0.14 0.82,-0.02 0.821,0.137 0.82,0.293 0.82,0.426 0.824,0.558 0.821,0.711 0.82,0.895 0.82,1.031 0.821,1.168 0.82,1.309 0.82,1.504 0.824,1.632 0.821,1.77 0.82,1.894 0.82,2.055 0.821,2.188 0.82,2.296 0.82,2.403 0.825,2.519 0.82,2.629 0.82,2.711 0.82,2.781 0.821,2.848 0.82,2.922 0.824,2.961 0.821,2.992 0.82,3.016 0.82,3.031 0.821,3.023 0.82,3.016 0.82,2.992 0.824,2.961 0.821,2.902 0.82,2.856 0.82,2.793 0.821,2.726 0.82,2.622 0.82,2.535 0.825,2.453 0.82,2.355 0.82,2.227 0.82,2.113 0.821,2.008 0.82,1.898 0.82,1.77 0.825,1.637 0.82,1.527 0.82,1.418 0.821,1.301 0.82,1.156 0.82,1.059 0.82,0.957 0.825,0.859 0.82,0.73 0.82,0.641 0.821,0.559 0.82,0.476 0.82,0.383 0.824,0.305 0.821,0.238 0.82,0.18 0.82,0.121 0.821,0.051 0.82,0.007 0.82,-0.031 0.825,-0.07 0.82,-0.117 0.82,-0.145 0.821,-0.172 0.82,-0.191 0.82,-0.223 0.82,-0.238 0.825,-0.258 0.82,-0.269 0.82,-0.282 0.821,-0.3 0.82,-0.305 0.82,-0.317 0.821,-0.32 0.824,-0.336 0.82,-0.34 0.82,-0.343 0.821,-0.352 0.82,-0.359 0.82,-0.364 0.825,-0.367 0.82,-0.371 0.82,-0.375 3.281,-1.516 0.825,-0.375 0.82,-0.371 0.82,-0.367 0.821,-0.359 0.82,-0.344 0.82,-0.332 0.821,-0.32 0.824,-0.301 0.82,-0.281 0.82,-0.25 0.821,-0.227 0.82,-0.199 0.82,-0.168 0.821,-0.121 0.824,-0.086 0.82,-0.051 0.82,-0.008 0.821,0.051 0.82,0.098 0.82,0.148 0.825,0.196 0.82,0.253 0.82,0.321 0.821,0.371 0.82,0.426 0.82,0.48 0.82,0.555 0.825,0.605 0.82,0.656 0.82,0.711 0.821,0.778 0.82,0.832 0.82,0.875 0.821,0.918 0.824,0.972 0.82,1.02 0.82,1.059 0.821,1.089 0.82,1.125 0.82,1.164 0.821,1.188 0.824,1.211 0.82,1.23 0.821,1.254 0.82,1.266 0.82,1.273 0.82,1.285 0.825,1.293 2.461,3.879 0.82,1.286 0.82,1.281 0.821,1.273 0.824,1.266 0.82,1.254 0.82,1.238 0.821,1.23 0.82,1.211 0.82,1.204 0.821,1.183 0.824,1.168 0.82,1.149 0.82,1.136 0.821,1.121 0.82,1.102 0.82,1.082 0.821,1.07 0.824,1.055 0.82,1.031 0.821,1.016 0.82,1 0.82,0.984 0.821,0.965 0.824,0.949 0.82,0.934 0.82,0.918 0.821,0.898 0.82,0.883 0.82,0.867 0.821,0.852 0.824,0.836 0.82,0.816 0.82,0.805 0.821,0.793 0.82,0.777 0.82,0.758 0.821,0.746 0.824,0.734 0.82,0.727 0.821,0.707 0.82,0.699 0.82,0.688 0.82,0.679 0.821,0.672 0.824,0.66 0.82,0.653 0.821,0.648 0.82,0.645 0.82,0.637 0.821,0.632 0.824,0.629 3.281,2.5 0.82,0.621 0.821,0.625 0.824,0.625 0.82,0.621 0.821,0.629 0.82,0.625 2.461,1.887 0.824,0.629 0.82,0.629 0.821,0.633 0.82,0.629 1.641,1.25 0.82,0.621 0.824,0.621 0.82,0.613 0.821,0.609 0.82,0.602 0.82,0.594 0.821,0.586 0.824,0.582 0.82,0.566 0.82,0.559 0.821,0.547 0.82,0.535 0.82,0.523 0.821,0.508 0.824,0.496 0.82,0.484 0.821,0.469 0.82,0.449 v 7.586 H 45.07 Z"
                   style="fill:#ffffff;fill-opacity:0.70196096;fill-rule:nonzero;stroke:none"
                   id="path428"
                   inkscape:connector-curvature="0" /><g
                   transform="scale(1,-1)"
                   id="g432"><path
                     d="m 45.07,-215.422 h 0.825 l 0.82,-0.008 0.82,-0.004 1.641,-0.023 0.82,-0.016 0.82,-0.019 0.825,-0.02 1.64,-0.047 1.641,-0.054 1.641,-0.063 0.824,-0.031 0.82,-0.031 0.82,-0.035 0.821,-0.032 1.64,-0.07 0.821,-0.031 0.824,-0.035 2.461,-0.094 1.64,-0.055 0.825,-0.027 2.461,-0.071 0.82,-0.019 0.82,-0.016 0.82,-0.019 0.825,-0.012 0.82,-0.012 2.461,-0.023 0.82,-0.004 h 0.821 l 0.824,0.004 1.64,0.008 0.821,0.008 2.461,0.035 0.824,0.019 0.82,0.016 0.821,0.019 1.64,0.047 0.82,0.028 0.825,0.023 0.82,0.031 0.82,0.028 1.641,0.062 0.82,0.035 0.821,0.032 0.824,0.035 0.82,0.031 2.461,0.105 1.641,0.063 0.824,0.035 0.82,0.027 0.82,0.032 1.641,0.054 1.641,0.047 0.824,0.02 0.82,0.019 1.641,0.032 1.641,0.023 0.824,0.008 3.281,0.015 h 0.82 l 0.821,-0.003 h 2.464 l 0.821,-0.004 0.82,0.004 h 0.82 l 0.821,0.003 0.824,0.004 1.641,0.024 0.82,0.015 0.82,0.02 0.82,0.023 0.821,0.032 0.824,0.035 0.82,0.043 0.821,0.047 0.82,0.058 0.82,0.063 0.821,0.07 0.824,0.078 0.82,0.086 0.82,0.098 0.821,0.105 0.82,0.113 0.82,0.125 0.821,0.133 0.824,0.145 0.82,0.152 0.821,0.16 0.82,0.172 0.82,0.184 0.82,0.187 0.821,0.2 0.824,0.21 0.82,0.215 0.821,0.227 0.82,0.234 0.82,0.242 0.821,0.25 0.82,0.254 0.824,0.266 0.82,0.269 0.821,0.274 1.64,0.57 0.821,0.293 0.824,0.297 0.82,0.301 1.641,0.617 0.82,0.316 1.641,0.649 0.824,0.328 0.82,0.336 0.821,0.34 0.82,0.347 0.82,0.356 0.821,0.359 0.82,0.371 0.824,0.379 0.82,0.387 0.821,0.398 0.82,0.415 0.82,0.425 0.821,0.442 0.82,0.457 0.824,0.476 0.82,0.496 0.821,0.52 0.82,0.539 0.82,0.566 0.821,0.598 0.82,0.621 0.824,0.649 0.821,0.679 0.82,0.723 0.82,0.754 0.82,0.789 0.821,0.82 0.824,0.871 0.82,0.907 0.821,0.949 0.82,0.98 0.82,1.031 0.821,1.075 0.82,1.117 0.824,1.152 0.82,1.192 0.821,1.246 0.82,1.281 0.82,1.316 0.821,1.352 0.82,1.398 0.824,1.43 0.821,1.465 0.82,1.492 0.82,1.524 0.82,1.554 0.821,1.578 0.82,1.602 0.824,1.621 0.821,1.645 0.82,1.66 0.82,1.675 0.821,1.688 0.82,1.699 0.824,1.707 0.82,1.715 0.821,1.723 0.82,1.726 0.82,1.731 1.641,3.469 0.824,1.738 0.82,1.734 1.641,3.477 0.82,1.742 0.821,1.738 0.82,1.742 0.824,1.746 0.821,1.747 1.64,3.507 0.821,1.762 0.82,1.77 0.82,1.773 0.824,1.785 0.821,1.793 0.82,1.801 0.82,1.812 0.821,1.825 0.82,1.84 0.824,1.851 0.82,1.859 0.821,1.879 0.82,1.891 0.82,1.906 0.821,1.918 0.82,1.93 0.824,1.949 0.821,1.957 0.82,1.973 0.82,1.98 0.82,1.996 0.821,2.004 0.82,2.016 0.824,2.019 0.821,2.032 0.82,2.035 0.82,2.039 0.821,2.047 0.82,2.043 0.82,2.047 0.824,2.047 1.641,4.085 0.82,2.032 0.821,2.023 0.82,2.02 0.824,2.004 0.821,1.992 0.82,1.972 0.82,1.957 0.82,1.938 0.821,1.914 0.82,1.883 0.824,1.859 0.821,1.828 0.82,1.793 0.82,1.746 0.821,1.707 0.82,1.664 0.82,1.622 0.824,1.55 0.821,1.496 0.82,1.434 0.82,1.375 0.821,1.293 0.82,1.207 0.82,1.129 0.824,1.051 0.821,0.957 0.82,0.832 0.82,0.738 0.821,0.641 0.82,0.531 0.824,0.379 0.821,0.262 0.82,0.14 0.82,0.02 0.821,-0.137 0.82,-0.293 0.82,-0.426 0.824,-0.558 0.821,-0.711 0.82,-0.895 0.82,-1.031 0.821,-1.168 0.82,-1.309 0.82,-1.504 0.824,-1.632 0.821,-1.77 0.82,-1.894 0.82,-2.055 0.821,-2.188 0.82,-2.296 0.82,-2.403 0.825,-2.519 0.82,-2.629 0.82,-2.711 0.82,-2.781 0.821,-2.848 0.82,-2.922 0.824,-2.961 0.821,-2.992 0.82,-3.016 0.82,-3.031 0.821,-3.023 0.82,-3.016 0.82,-2.992 0.824,-2.961 0.821,-2.902 0.82,-2.856 0.82,-2.793 0.821,-2.726 0.82,-2.622 0.82,-2.535 0.825,-2.453 0.82,-2.355 0.82,-2.227 0.82,-2.113 0.821,-2.008 0.82,-1.898 0.82,-1.77 0.825,-1.637 0.82,-1.527 0.82,-1.418 0.821,-1.301 0.82,-1.156 0.82,-1.059 0.82,-0.957 0.825,-0.859 0.82,-0.73 0.82,-0.641 0.821,-0.559 0.82,-0.476 0.82,-0.383 0.824,-0.305 0.821,-0.238 0.82,-0.18 0.82,-0.121 0.821,-0.051 0.82,-0.007 0.82,0.031 0.825,0.07 0.82,0.117 0.82,0.145 0.821,0.172 0.82,0.191 0.82,0.223 0.82,0.238 0.825,0.258 0.82,0.269 0.82,0.282 0.821,0.3 0.82,0.305 0.82,0.317 0.821,0.32 0.824,0.336 0.82,0.34 0.82,0.343 0.821,0.352 0.82,0.359 0.82,0.364 0.825,0.367 0.82,0.371 0.82,0.375 3.281,1.516 0.825,0.375 0.82,0.371 0.82,0.367 0.821,0.359 0.82,0.344 0.82,0.332 0.821,0.32 0.824,0.301 0.82,0.281 0.82,0.25 0.821,0.227 0.82,0.199 0.82,0.168 0.821,0.121 0.824,0.086 0.82,0.051 0.82,0.008 0.821,-0.051 0.82,-0.098 0.82,-0.148 0.825,-0.196 0.82,-0.253 0.82,-0.321 0.821,-0.371 0.82,-0.426 0.82,-0.48 0.82,-0.555 0.825,-0.605 0.82,-0.656 0.82,-0.711 0.821,-0.778 0.82,-0.832 0.82,-0.875 0.821,-0.918 0.824,-0.972 0.82,-1.02 0.82,-1.059 0.821,-1.089 0.82,-1.125 0.82,-1.164 0.821,-1.188 0.824,-1.211 0.82,-1.23 0.821,-1.254 0.82,-1.266 0.82,-1.273 0.82,-1.285 0.825,-1.293 2.461,-3.879 0.82,-1.286 0.82,-1.281 0.821,-1.273 0.824,-1.266 0.82,-1.254 0.82,-1.238 0.821,-1.23 0.82,-1.211 0.82,-1.204 0.821,-1.183 0.824,-1.168 0.82,-1.149 0.82,-1.136 0.821,-1.121 0.82,-1.102 0.82,-1.082 0.821,-1.07 0.824,-1.055 0.82,-1.031 0.821,-1.016 0.82,-1 0.82,-0.984 0.821,-0.965 0.824,-0.949 0.82,-0.934 0.82,-0.918 0.821,-0.898 0.82,-0.883 0.82,-0.867 0.821,-0.852 0.824,-0.836 0.82,-0.816 0.82,-0.805 0.821,-0.793 0.82,-0.777 0.82,-0.758 0.821,-0.746 0.824,-0.734 0.82,-0.727 0.821,-0.707 0.82,-0.699 0.82,-0.688 0.82,-0.679 0.821,-0.672 0.824,-0.66 0.82,-0.653 0.821,-0.648 0.82,-0.645 0.82,-0.637 0.821,-0.632 0.824,-0.629 3.281,-2.5 0.82,-0.621 0.821,-0.625 0.824,-0.625 0.82,-0.621 0.821,-0.629 0.82,-0.625 2.461,-1.887 0.824,-0.629 0.82,-0.629 0.821,-0.633 0.82,-0.629 1.641,-1.25 0.82,-0.621 0.824,-0.621 0.82,-0.613 0.821,-0.609 0.82,-0.602 0.82,-0.594 0.821,-0.586 0.824,-0.582 0.82,-0.566 0.82,-0.559 0.821,-0.547 0.82,-0.535 0.82,-0.523 0.821,-0.508 0.824,-0.496 0.82,-0.484 0.821,-0.469 0.82,-0.449 v -7.586 H 45.07 Z"
                     style="fill:none;stroke:#ffffff;stroke-width:1.06697798;stroke-linecap:round;stroke-linejoin:round;stroke-miterlimit:10;stroke-dasharray:none;stroke-opacity:1"
                     id="path430"
                     inkscape:connector-curvature="0" /></g></g></g></g></g></g></g><g
       id="g440"><text
         transform="translate(100.46094,240.09766)"
         style="font-variant:normal;font-weight:normal;font-size:12px;font-family:Arial;-inkscape-font-specification:ArialMT;writing-mode:lr-tb;fill:#ffffff;fill-opacity:0.8;fill-rule:nonzero;stroke:none"
         id="text444"><tspan
           x="0"
           y="0"
           id="tspan442">5</tspan></text>
<text
         transform="translate(184.35546,240.09766)"
         style="font-variant:normal;font-weight:normal;font-size:12px;font-family:Arial;-inkscape-font-specification:ArialMT;writing-mode:lr-tb;fill:#ffffff;fill-opacity:0.8;fill-rule:nonzero;stroke:none"
         id="text448"><tspan
           x="0"
           y="0"
           id="tspan446">6</tspan></text>
<text
         transform="translate(268.2539,240.09766)"
         style="font-variant:normal;font-weight:normal;font-size:12px;font-family:Arial;-inkscape-font-specification:ArialMT;writing-mode:lr-tb;fill:#ffffff;fill-opacity:0.8;fill-rule:nonzero;stroke:none"
         id="text452"><tspan
           x="0"
           y="0"
           id="tspan450">7</tspan></text>
<text
         transform="translate(352.14843,240.09766)"
         style="font-variant:normal;font-weight:normal;font-size:12px;font-family:Arial;-inkscape-font-specification:ArialMT;writing-mode:lr-tb;fill:#ffffff;fill-opacity:0.8;fill-rule:nonzero;stroke:none"
         id="text456"><tspan
           x="0"
           y="0"
           id="tspan454">8</tspan></text>
<text
         transform="translate(436.04296,240.09766)"
         style="font-variant:normal;font-weight:normal;font-size:12px;font-family:Arial;-inkscape-font-specification:ArialMT;writing-mode:lr-tb;fill:#ffffff;fill-opacity:0.8;fill-rule:nonzero;stroke:none"
         id="text460"><tspan
           x="0"
           y="0"
           id="tspan458">9</tspan></text>
<text
         transform="translate(219.64843,253.45313)"
         style="font-variant:normal;font-weight:normal;font-size:11px;font-family:Arial;-inkscape-font-specification:ArialMT;writing-mode:lr-tb;fill:#fafafa;fill-opacity:0.8;fill-rule:nonzero;stroke:none"
         id="text464"><tspan
           x="0"
           y="0"
           id="tspan462">E</tspan></text>
<text
         transform="translate(226.97444,253.45313)"
         style="font-variant:normal;font-weight:normal;font-size:11px;font-family:Arial;-inkscape-font-specification:ArialMT;writing-mode:lr-tb;fill:#fafafa;fill-opacity:0.8;fill-rule:nonzero;stroke:none"
         id="text468"><tspan
           x="0"
           y="0"
           id="tspan466">p</tspan></text>
<text
         transform="translate(233.09043,253.45313)"
         style="font-variant:normal;font-weight:normal;font-size:11px;font-family:Arial;-inkscape-font-specification:ArialMT;writing-mode:lr-tb;fill:#fafafa;fill-opacity:0.8;fill-rule:nonzero;stroke:none"
         id="text472"><tspan
           x="0"
           y="0"
           id="tspan470">i</tspan></text>
<text
         transform="translate(235.53243,253.45313)"
         style="font-variant:normal;font-weight:normal;font-size:11px;font-family:Arial;-inkscape-font-specification:ArialMT;writing-mode:lr-tb;fill:#fafafa;fill-opacity:0.8;fill-rule:nonzero;stroke:none"
         id="text476"><tspan
           x="0"
           y="0"
           id="tspan474">s</tspan></text>
<text
         transform="translate(241.03243,253.45313)"
         style="font-variant:normal;font-weight:normal;font-size:11px;font-family:Arial;-inkscape-font-specification:ArialMT;writing-mode:lr-tb;fill:#fafafa;fill-opacity:0.8;fill-rule:nonzero;stroke:none"
         id="text480"><tspan
           x="0"
           y="0"
           id="tspan478">o</tspan></text>
<text
         transform="translate(247.14843,253.45313)"
         style="font-variant:normal;font-weight:normal;font-size:11px;font-family:Arial;-inkscape-font-specification:ArialMT;writing-mode:lr-tb;fill:#fafafa;fill-opacity:0.8;fill-rule:nonzero;stroke:none"
         id="text484"><tspan
           x="0"
           y="0"
           id="tspan482">d</tspan></text>
<text
         transform="translate(253.26443,253.45313)"
         style="font-variant:normal;font-weight:normal;font-size:11px;font-family:Arial;-inkscape-font-specification:ArialMT;writing-mode:lr-tb;fill:#fafafa;fill-opacity:0.8;fill-rule:nonzero;stroke:none"
         id="text488"><tspan
           x="0"
           y="0"
           id="tspan486">e</tspan></text>
<text
         transform="translate(262.42742,253.45313)"
         style="font-variant:normal;font-weight:normal;font-size:11px;font-family:Arial;-inkscape-font-specification:ArialMT;writing-mode:lr-tb;fill:#fafafa;fill-opacity:0.8;fill-rule:nonzero;stroke:none"
         id="text492"><tspan
           x="0"
           y="0"
           id="tspan490">r</tspan></text>
<text
         transform="translate(266.09045,253.45313)"
         style="font-variant:normal;font-weight:normal;font-size:11px;font-family:Arial;-inkscape-font-specification:ArialMT;writing-mode:lr-tb;fill:#fafafa;fill-opacity:0.8;fill-rule:nonzero;stroke:none"
         id="text496"><tspan
           x="0"
           y="0"
           id="tspan494">a</tspan></text>
<text
         transform="translate(272.20644,253.45313)"
         style="font-variant:normal;font-weight:normal;font-size:11px;font-family:Arial;-inkscape-font-specification:ArialMT;writing-mode:lr-tb;fill:#fafafa;fill-opacity:0.8;fill-rule:nonzero;stroke:none"
         id="text500"><tspan
           x="0"
           y="0"
           id="tspan498">t</tspan></text>
<text
         transform="translate(275.25344,253.45313)"
         style="font-variant:normal;font-weight:normal;font-size:11px;font-family:Arial;-inkscape-font-specification:ArialMT;writing-mode:lr-tb;fill:#fafafa;fill-opacity:0.8;fill-rule:nonzero;stroke:none"
         id="text504"><tspan
           x="0"
           y="0"
           id="tspan502">i</tspan></text>
<text
         transform="translate(277.69543,253.45313)"
         style="font-variant:normal;font-weight:normal;font-size:11px;font-family:Arial;-inkscape-font-specification:ArialMT;writing-mode:lr-tb;fill:#fafafa;fill-opacity:0.8;fill-rule:nonzero;stroke:none"
         id="text508"><tspan
           x="0"
           y="0"
           id="tspan506">n</tspan></text>
<text
         transform="translate(283.81142,253.45313)"
         style="font-variant:normal;font-weight:normal;font-size:11px;font-family:Arial;-inkscape-font-specification:ArialMT;writing-mode:lr-tb;fill:#fafafa;fill-opacity:0.8;fill-rule:nonzero;stroke:none"
         id="text512"><tspan
           x="0"
           y="0"
           id="tspan510">g</tspan></text>
<text
         transform="translate(292.98525,253.45313)"
         style="font-variant:normal;font-weight:normal;font-size:11px;font-family:'Segoe UI Symbol';-inkscape-font-specification:SegoeUISymbol;writing-mode:lr-tb;fill:#fafafa;fill-opacity:0.8;fill-rule:nonzero;stroke:none"
         id="text516"><tspan
           x="0"
           y="0"
           id="tspan514"></tspan></text>
<text
         transform="rotate(-90,94.964842,66.613278)"
         style="font-variant:normal;font-weight:normal;font-size:11px;font-family:Arial;-inkscape-font-specification:ArialMT;writing-mode:lr-tb;fill:#fafafa;fill-opacity:0.8;fill-rule:nonzero;stroke:none"
         id="text520"><tspan
           x="0"
           y="0"
           id="tspan518">R</tspan></text>
<text
         transform="rotate(-90,90.993846,62.642282)"
         style="font-variant:normal;font-weight:normal;font-size:11px;font-family:Arial;-inkscape-font-specification:ArialMT;writing-mode:lr-tb;fill:#fafafa;fill-opacity:0.8;fill-rule:nonzero;stroke:none"
         id="text524"><tspan
           x="0"
           y="0"
           id="tspan522">e</tspan></text>
<text
         transform="rotate(-90,87.935847,59.584283)"
         style="font-variant:normal;font-weight:normal;font-size:11px;font-family:Arial;-inkscape-font-specification:ArialMT;writing-mode:lr-tb;fill:#fafafa;fill-opacity:0.8;fill-rule:nonzero;stroke:none"
         id="text528"><tspan
           x="0"
           y="0"
           id="tspan526">l</tspan></text>
<text
         transform="rotate(-90,86.714846,58.363282)"
         style="font-variant:normal;font-weight:normal;font-size:11px;font-family:Arial;-inkscape-font-specification:ArialMT;writing-mode:lr-tb;fill:#fafafa;fill-opacity:0.8;fill-rule:nonzero;stroke:none"
         id="text532"><tspan
           x="0"
           y="0"
           id="tspan530">a</tspan></text>
<text
         transform="rotate(-90,83.656848,55.305284)"
         style="font-variant:normal;font-weight:normal;font-size:11px;font-family:Arial;-inkscape-font-specification:ArialMT;writing-mode:lr-tb;fill:#fafafa;fill-opacity:0.8;fill-rule:nonzero;stroke:none"
         id="text536"><tspan
           x="0"
           y="0"
           id="tspan534">t</tspan></text>
<text
         transform="rotate(-90,82.133341,53.781778)"
         style="font-variant:normal;font-weight:normal;font-size:11px;font-family:Arial;-inkscape-font-specification:ArialMT;writing-mode:lr-tb;fill:#fafafa;fill-opacity:0.8;fill-rule:nonzero;stroke:none"
         id="text540"><tspan
           x="0"
           y="0"
           id="tspan538">i</tspan></text>
<text
         transform="rotate(-90,80.912341,52.560777)"
         style="font-variant:normal;font-weight:normal;font-size:11px;font-family:Arial;-inkscape-font-specification:ArialMT;writing-mode:lr-tb;fill:#fafafa;fill-opacity:0.8;fill-rule:nonzero;stroke:none"
         id="text544"><tspan
           x="0"
           y="0"
           id="tspan542">v</tspan></text>
<text
         transform="rotate(-90,78.162341,49.810777)"
         style="font-variant:normal;font-weight:normal;font-size:11px;font-family:Arial;-inkscape-font-specification:ArialMT;writing-mode:lr-tb;fill:#fafafa;fill-opacity:0.8;fill-rule:nonzero;stroke:none"
         id="text548"><tspan
           x="0"
           y="0"
           id="tspan546">e</tspan></text>
<text
         transform="rotate(-90,73.580844,45.22928)"
         style="font-variant:normal;font-weight:normal;font-size:11px;font-family:Arial;-inkscape-font-specification:ArialMT;writing-mode:lr-tb;fill:#fafafa;fill-opacity:0.8;fill-rule:nonzero;stroke:none"
         id="text552"><tspan
           x="0"
           y="0"
           id="tspan550">f</tspan></text>
<text
         transform="rotate(-90,72.057346,43.705781)"
         style="font-variant:normal;font-weight:normal;font-size:11px;font-family:Arial;-inkscape-font-specification:ArialMT;writing-mode:lr-tb;fill:#fafafa;fill-opacity:0.8;fill-rule:nonzero;stroke:none"
         id="text556"><tspan
           x="0"
           y="0"
           id="tspan554">r</tspan></text>
<text
         transform="rotate(-90,70.225841,41.874276)"
         style="font-variant:normal;font-weight:normal;font-size:11px;font-family:Arial;-inkscape-font-specification:ArialMT;writing-mode:lr-tb;fill:#fafafa;fill-opacity:0.8;fill-rule:nonzero;stroke:none"
         id="text560"><tspan
           x="0"
           y="0"
           id="tspan558">e</tspan></text>
<text
         transform="rotate(-90,67.167842,38.816278)"
         style="font-variant:normal;font-weight:normal;font-size:11px;font-family:Arial;-inkscape-font-specification:ArialMT;writing-mode:lr-tb;fill:#fafafa;fill-opacity:0.8;fill-rule:nonzero;stroke:none"
         id="text564"><tspan
           x="0"
           y="0"
           id="tspan562">q</tspan></text>
<text
         transform="rotate(-90,64.109844,35.758279)"
         style="font-variant:normal;font-weight:normal;font-size:11px;font-family:Arial;-inkscape-font-specification:ArialMT;writing-mode:lr-tb;fill:#fafafa;fill-opacity:0.8;fill-rule:nonzero;stroke:none"
         id="text568"><tspan
           x="0"
           y="0"
           id="tspan566">u</tspan></text>
<text
         transform="rotate(-90,61.051845,32.700281)"
         style="font-variant:normal;font-weight:normal;font-size:11px;font-family:Arial;-inkscape-font-specification:ArialMT;writing-mode:lr-tb;fill:#fafafa;fill-opacity:0.8;fill-rule:nonzero;stroke:none"
         id="text572"><tspan
           x="0"
           y="0"
           id="tspan570">e</tspan></text>
<text
         transform="rotate(-90,57.993846,29.642282)"
         style="font-variant:normal;font-weight:normal;font-size:11px;font-family:Arial;-inkscape-font-specification:ArialMT;writing-mode:lr-tb;fill:#fafafa;fill-opacity:0.8;fill-rule:nonzero;stroke:none"
         id="text576"><tspan
           x="0"
           y="0"
           id="tspan574">n</tspan></text>
<text
         transform="rotate(-90,54.935847,26.584283)"
         style="font-variant:normal;font-weight:normal;font-size:11px;font-family:Arial;-inkscape-font-specification:ArialMT;writing-mode:lr-tb;fill:#fafafa;fill-opacity:0.8;fill-rule:nonzero;stroke:none"
         id="text580"><tspan
           x="0"
           y="0"
           id="tspan578">c</tspan></text>
<text
         transform="rotate(-90,52.185847,23.834283)"
         style="font-variant:normal;font-weight:normal;font-size:11px;font-family:Arial;-inkscape-font-specification:ArialMT;writing-mode:lr-tb;fill:#fafafa;fill-opacity:0.8;fill-rule:nonzero;stroke:none"
         id="text584"><tspan
           x="0"
           y="0"
           id="tspan582">y</tspan></text>
<text
         transform="rotate(-90,47.910457,19.558893)"
         style="font-variant:normal;font-weight:normal;font-size:11px;font-family:'Segoe UI Symbol';-inkscape-font-specification:SegoeUISymbol;writing-mode:lr-tb;fill:#fafafa;fill-opacity:0.8;fill-rule:nonzero;stroke:none"
         id="text588"><tspan
           x="0"
           y="0"
           id="tspan586"></tspan></text>
<text
         transform="translate(247.10156,267.99609)"
         style="font-variant:normal;font-weight:normal;font-size:9.89999866px;font-family:Arial;-inkscape-font-specification:ArialMT;writing-mode:lr-tb;fill:#fafafa;fill-opacity:0.8;fill-rule:nonzero;stroke:none"
         id="text592"><tspan
           x="0"
           y="0"
           id="tspan590">S</tspan></text>
<text
         transform="translate(253.69495,267.99609)"
         style="font-variant:normal;font-weight:normal;font-size:9.89999866px;font-family:Arial;-inkscape-font-specification:ArialMT;writing-mode:lr-tb;fill:#fafafa;fill-opacity:0.8;fill-rule:nonzero;stroke:none"
         id="text596"><tspan
           x="0"
           y="0"
           id="tspan594">o</tspan></text>
<text
         transform="translate(259.19936,267.99609)"
         style="font-variant:normal;font-weight:normal;font-size:9.89999866px;font-family:Arial;-inkscape-font-specification:ArialMT;writing-mode:lr-tb;fill:#fafafa;fill-opacity:0.8;fill-rule:nonzero;stroke:none"
         id="text600"><tspan
           x="0"
           y="0"
           id="tspan598">u</tspan></text>
<text
         transform="translate(264.70376,267.99609)"
         style="font-variant:normal;font-weight:normal;font-size:9.89999866px;font-family:Arial;-inkscape-font-specification:ArialMT;writing-mode:lr-tb;fill:#fafafa;fill-opacity:0.8;fill-rule:nonzero;stroke:none"
         id="text604"><tspan
           x="0"
           y="0"
           id="tspan602">r</tspan></text>
<text
         transform="translate(268.00045,267.99609)"
         style="font-variant:normal;font-weight:normal;font-size:9.89999866px;font-family:Arial;-inkscape-font-specification:ArialMT;writing-mode:lr-tb;fill:#fafafa;fill-opacity:0.8;fill-rule:nonzero;stroke:none"
         id="text608"><tspan
           x="0"
           y="0"
           id="tspan606">c</tspan></text>
<text
         transform="translate(272.95046,267.99609)"
         style="font-variant:normal;font-weight:normal;font-size:9.89999866px;font-family:Arial;-inkscape-font-specification:ArialMT;writing-mode:lr-tb;fill:#fafafa;fill-opacity:0.8;fill-rule:nonzero;stroke:none"
         id="text612"><tspan
           x="0"
           y="0"
           id="tspan610">e</tspan></text>
<text
         transform="translate(278.45486,267.99609)"
         style="font-variant:normal;font-weight:normal;font-size:9.89999866px;font-family:Arial;-inkscape-font-specification:ArialMT;writing-mode:lr-tb;fill:#fafafa;fill-opacity:0.8;fill-rule:nonzero;stroke:none"
         id="text616"><tspan
           x="0"
           y="0"
           id="tspan614">:</tspan></text>
<text
         transform="translate(283.93945,267.99609)"
         style="font-variant:normal;font-weight:normal;font-size:9.89999866px;font-family:Arial;-inkscape-font-specification:ArialMT;writing-mode:lr-tb;fill:#fafafa;fill-opacity:0.8;fill-rule:nonzero;stroke:none"
         id="text620"><tspan
           x="0"
           y="0"
           id="tspan618">n</tspan></text>
<text
         transform="translate(289.44384,267.99609)"
         style="font-variant:normal;font-weight:normal;font-size:9.89999866px;font-family:Arial;-inkscape-font-specification:ArialMT;writing-mode:lr-tb;fill:#fafafa;fill-opacity:0.8;fill-rule:nonzero;stroke:none"
         id="text624"><tspan
           x="0"
           y="0"
           id="tspan622">a</tspan></text>
<text
         transform="translate(294.94826,267.99609)"
         style="font-variant:normal;font-weight:normal;font-size:9.89999866px;font-family:Arial;-inkscape-font-specification:ArialMT;writing-mode:lr-tb;fill:#fafafa;fill-opacity:0.8;fill-rule:nonzero;stroke:none"
         id="text628"><tspan
           x="0"
           y="0"
           id="tspan626">t</tspan></text>
<text
         transform="translate(297.69054,267.99609)"
         style="font-variant:normal;font-weight:normal;font-size:9.89999866px;font-family:Arial;-inkscape-font-specification:ArialMT;writing-mode:lr-tb;fill:#fafafa;fill-opacity:0.8;fill-rule:nonzero;stroke:none"
         id="text632"><tspan
           x="0"
           y="0"
           id="tspan630">h</tspan></text>
<text
         transform="translate(303.19494,267.99609)"
         style="font-variant:normal;font-weight:normal;font-size:9.89999866px;font-family:Arial;-inkscape-font-specification:ArialMT;writing-mode:lr-tb;fill:#fafafa;fill-opacity:0.8;fill-rule:nonzero;stroke:none"
         id="text636"><tspan
           x="0"
           y="0"
           id="tspan634">a</tspan></text>
<text
         transform="translate(308.69936,267.99609)"
         style="font-variant:normal;font-weight:normal;font-size:9.89999866px;font-family:Arial;-inkscape-font-specification:ArialMT;writing-mode:lr-tb;fill:#fafafa;fill-opacity:0.8;fill-rule:nonzero;stroke:none"
         id="text640"><tspan
           x="0"
           y="0"
           id="tspan638">n</tspan></text>
<text
         transform="translate(314.20376,267.99609)"
         style="font-variant:normal;font-weight:normal;font-size:9.89999866px;font-family:Arial;-inkscape-font-specification:ArialMT;writing-mode:lr-tb;fill:#fafafa;fill-opacity:0.8;fill-rule:nonzero;stroke:none"
         id="text644"><tspan
           x="0"
           y="0"
           id="tspan642">c</tspan></text>
<text
         transform="translate(319.15374,267.99609)"
         style="font-variant:normal;font-weight:normal;font-size:9.89999866px;font-family:Arial;-inkscape-font-specification:ArialMT;writing-mode:lr-tb;fill:#fafafa;fill-opacity:0.8;fill-rule:nonzero;stroke:none"
         id="text648"><tspan
           x="0"
           y="0"
           id="tspan646">u</tspan></text>
<text
         transform="translate(324.65816,267.99609)"
         style="font-variant:normal;font-weight:normal;font-size:9.89999866px;font-family:Arial;-inkscape-font-specification:ArialMT;writing-mode:lr-tb;fill:#fafafa;fill-opacity:0.8;fill-rule:nonzero;stroke:none"
         id="text652"><tspan
           x="0"
           y="0"
           id="tspan650">n</tspan></text>
<text
         transform="translate(330.16256,267.99609)"
         style="font-variant:normal;font-weight:normal;font-size:9.89999866px;font-family:Arial;-inkscape-font-specification:ArialMT;writing-mode:lr-tb;fill:#fafafa;fill-opacity:0.8;fill-rule:nonzero;stroke:none"
         id="text656"><tspan
           x="0"
           y="0"
           id="tspan654">n</tspan></text>
<text
         transform="translate(335.66695,267.99609)"
         style="font-variant:normal;font-weight:normal;font-size:9.89999866px;font-family:Arial;-inkscape-font-specification:ArialMT;writing-mode:lr-tb;fill:#fafafa;fill-opacity:0.8;fill-rule:nonzero;stroke:none"
         id="text660"><tspan
           x="0"
           y="0"
           id="tspan658">.</tspan></text>
<text
         transform="translate(338.40926,267.99609)"
         style="font-variant:normal;font-weight:normal;font-size:9.89999866px;font-family:Arial;-inkscape-font-specification:ArialMT;writing-mode:lr-tb;fill:#fafafa;fill-opacity:0.8;fill-rule:nonzero;stroke:none"
         id="text664"><tspan
           x="0"
           y="0"
           id="tspan662">c</tspan></text>
<text
         transform="translate(343.35924,267.99609)"
         style="font-variant:normal;font-weight:normal;font-size:9.89999866px;font-family:Arial;-inkscape-font-specification:ArialMT;writing-mode:lr-tb;fill:#fafafa;fill-opacity:0.8;fill-rule:nonzero;stroke:none"
         id="text668"><tspan
           x="0"
           y="0"
           id="tspan666">o</tspan></text>
<text
         transform="translate(348.86364,267.99609)"
         style="font-variant:normal;font-weight:normal;font-size:9.89999866px;font-family:Arial;-inkscape-font-specification:ArialMT;writing-mode:lr-tb;fill:#fafafa;fill-opacity:0.8;fill-rule:nonzero;stroke:none"
         id="text672"><tspan
           x="0"
           y="0"
           id="tspan670">m</tspan></text>
<text
         transform="translate(359.85265,267.99609)"
         style="font-variant:normal;font-weight:normal;font-size:9.89999866px;font-family:Arial;-inkscape-font-specification:ArialMT;writing-mode:lr-tb;fill:#fafafa;fill-opacity:0.8;fill-rule:nonzero;stroke:none"
         id="text676"><tspan
           x="0"
           y="0"
           id="tspan674">(</tspan></text>
<text
         transform="translate(363.14934,267.99609)"
         style="font-variant:normal;font-weight:normal;font-size:9.89999866px;font-family:Arial;-inkscape-font-specification:ArialMT;writing-mode:lr-tb;fill:#fafafa;fill-opacity:0.8;fill-rule:nonzero;stroke:none"
         id="text680"><tspan
           x="0"
           y="0"
           id="tspan678">@</tspan></text>
<text
         transform="translate(373.19784,267.99609)"
         style="font-variant:normal;font-weight:normal;font-size:9.89999866px;font-family:Arial;-inkscape-font-specification:ArialMT;writing-mode:lr-tb;fill:#fafafa;fill-opacity:0.8;fill-rule:nonzero;stroke:none"
         id="text684"><tspan
           x="0"
           y="0"
           id="tspan682">n</tspan></text>
<text
         transform="translate(378.70223,267.99609)"
         style="font-variant:normal;font-weight:normal;font-size:9.89999866px;font-family:Arial;-inkscape-font-specification:ArialMT;writing-mode:lr-tb;fill:#fafafa;fill-opacity:0.8;fill-rule:nonzero;stroke:none"
         id="text688"><tspan
           x="0"
           y="0"
           id="tspan686">a</tspan></text>
<text
         transform="translate(384.20665,267.99609)"
         style="font-variant:normal;font-weight:normal;font-size:9.89999866px;font-family:Arial;-inkscape-font-specification:ArialMT;writing-mode:lr-tb;fill:#fafafa;fill-opacity:0.8;fill-rule:nonzero;stroke:none"
         id="text692"><tspan
           x="0"
           y="0"
           id="tspan690">t</tspan></text>
<text
         transform="translate(386.94893,267.99609)"
         style="font-variant:normal;font-weight:normal;font-size:9.89999866px;font-family:Arial;-inkscape-font-specification:ArialMT;writing-mode:lr-tb;fill:#fafafa;fill-opacity:0.8;fill-rule:nonzero;stroke:none"
         id="text696"><tspan
           x="0"
           y="0"
           id="tspan694">h</tspan></text>
<text
         transform="translate(392.45336,267.99609)"
         style="font-variant:normal;font-weight:normal;font-size:9.89999866px;font-family:Arial;-inkscape-font-specification:ArialMT;writing-mode:lr-tb;fill:#fafafa;fill-opacity:0.8;fill-rule:nonzero;stroke:none"
         id="text700"><tspan
           x="0"
           y="0"
           id="tspan698">c</tspan></text>
<text
         transform="translate(397.40334,267.99609)"
         style="font-variant:normal;font-weight:normal;font-size:9.89999866px;font-family:Arial;-inkscape-font-specification:ArialMT;writing-mode:lr-tb;fill:#fafafa;fill-opacity:0.8;fill-rule:nonzero;stroke:none"
         id="text704"><tspan
           x="0"
           y="0"
           id="tspan702">u</tspan></text>
<text
         transform="translate(402.90773,267.99609)"
         style="font-variant:normal;font-weight:normal;font-size:9.89999866px;font-family:Arial;-inkscape-font-specification:ArialMT;writing-mode:lr-tb;fill:#fafafa;fill-opacity:0.8;fill-rule:nonzero;stroke:none"
         id="text708"><tspan
           x="0"
           y="0"
           id="tspan706">n</tspan></text>
<text
         transform="translate(408.41213,267.99609)"
         style="font-variant:normal;font-weight:normal;font-size:9.89999866px;font-family:Arial;-inkscape-font-specification:ArialMT;writing-mode:lr-tb;fill:#fafafa;fill-opacity:0.8;fill-rule:nonzero;stroke:none"
         id="text712"><tspan
           x="0"
           y="0"
           id="tspan710">)</tspan></text>
<text
         transform="translate(411.70885,267.99609)"
         style="font-variant:normal;font-weight:normal;font-size:9.89999866px;font-family:Arial;-inkscape-font-specification:ArialMT;writing-mode:lr-tb;fill:#fafafa;fill-opacity:0.8;fill-rule:nonzero;stroke:none"
         id="text716"><tspan
           x="0"
           y="0"
           id="tspan714">;</tspan></text>
<text
         transform="translate(417.19344,267.99609)"
         style="font-variant:normal;font-weight:normal;font-size:9.89999866px;font-family:Arial;-inkscape-font-specification:ArialMT;writing-mode:lr-tb;fill:#fafafa;fill-opacity:0.8;fill-rule:nonzero;stroke:none"
         id="text720"><tspan
           x="0"
           y="0"
           id="tspan718">d</tspan></text>
<text
         transform="translate(422.69783,267.99609)"
         style="font-variant:normal;font-weight:normal;font-size:9.89999866px;font-family:Arial;-inkscape-font-specification:ArialMT;writing-mode:lr-tb;fill:#fafafa;fill-opacity:0.8;fill-rule:nonzero;stroke:none"
         id="text724"><tspan
           x="0"
           y="0"
           id="tspan722">a</tspan></text>
<text
         transform="translate(428.20223,267.99609)"
         style="font-variant:normal;font-weight:normal;font-size:9.89999866px;font-family:Arial;-inkscape-font-specification:ArialMT;writing-mode:lr-tb;fill:#fafafa;fill-opacity:0.8;fill-rule:nonzero;stroke:none"
         id="text728"><tspan
           x="0"
           y="0"
           id="tspan726">t</tspan></text>
<text
         transform="translate(430.94454,267.99609)"
         style="font-variant:normal;font-weight:normal;font-size:9.89999866px;font-family:Arial;-inkscape-font-specification:ArialMT;writing-mode:lr-tb;fill:#fafafa;fill-opacity:0.8;fill-rule:nonzero;stroke:none"
         id="text732"><tspan
           x="0"
           y="0"
           id="tspan730">a</tspan></text>
<text
         transform="translate(439.19124,267.99609)"
         style="font-variant:normal;font-weight:normal;font-size:9.89999866px;font-family:Arial;-inkscape-font-specification:ArialMT;writing-mode:lr-tb;fill:#fafafa;fill-opacity:0.8;fill-rule:nonzero;stroke:none"
         id="text736"><tspan
           x="0"
           y="0"
           id="tspan734">f</tspan></text>
<text
         transform="translate(441.93355,267.99609)"
         style="font-variant:normal;font-weight:normal;font-size:9.89999866px;font-family:Arial;-inkscape-font-specification:ArialMT;writing-mode:lr-tb;fill:#fafafa;fill-opacity:0.8;fill-rule:nonzero;stroke:none"
         id="text740"><tspan
           x="0"
           y="0"
           id="tspan738">r</tspan></text>
<text
         transform="translate(445.23024,267.99609)"
         style="font-variant:normal;font-weight:normal;font-size:9.89999866px;font-family:Arial;-inkscape-font-specification:ArialMT;writing-mode:lr-tb;fill:#fafafa;fill-opacity:0.8;fill-rule:nonzero;stroke:none"
         id="text744"><tspan
           x="0"
           y="0"
           id="tspan742">o</tspan></text>
<text
         transform="translate(450.73464,267.99609)"
         style="font-variant:normal;font-weight:normal;font-size:9.89999866px;font-family:Arial;-inkscape-font-specification:ArialMT;writing-mode:lr-tb;fill:#fafafa;fill-opacity:0.8;fill-rule:nonzero;stroke:none"
         id="text748"><tspan
           x="0"
           y="0"
           id="tspan746">m</tspan></text>
<text
         transform="translate(461.72365,267.99609)"
         style="font-variant:normal;font-weight:normal;font-size:9.89999866px;font-family:Arial;-inkscape-font-specification:ArialMT;writing-mode:lr-tb;fill:#fafafa;fill-opacity:0.8;fill-rule:nonzero;stroke:none"
         id="text752"><tspan
           x="0"
           y="0"
           id="tspan750">I</tspan></text>
<text
         transform="translate(464.46593,267.99609)"
         style="font-variant:normal;font-weight:normal;font-size:9.89999866px;font-family:Arial;-inkscape-font-specification:ArialMT;writing-mode:lr-tb;fill:#fafafa;fill-opacity:0.8;fill-rule:nonzero;stroke:none"
         id="text756"><tspan
           x="0"
           y="0"
           id="tspan754">M</tspan></text>
<text
         transform="translate(472.71263,267.99609)"
         style="font-variant:normal;font-weight:normal;font-size:9.89999866px;font-family:Arial;-inkscape-font-specification:ArialMT;writing-mode:lr-tb;fill:#fafafa;fill-opacity:0.8;fill-rule:nonzero;stroke:none"
         id="text760"><tspan
           x="0"
           y="0"
           id="tspan758">D</tspan></text>
<text
         transform="translate(479.86043,267.99609)"
         style="font-variant:normal;font-weight:normal;font-size:9.89999866px;font-family:Arial;-inkscape-font-specification:ArialMT;writing-mode:lr-tb;fill:#fafafa;fill-opacity:0.8;fill-rule:nonzero;stroke:none"
         id="text764"><tspan
           x="0"
           y="0"
           id="tspan762">b</tspan></text>
</g></g></svg>