<?xml version="1.0" encoding="UTF-8" standalone="no"?>
<!-- Created with Inkscape (http://www.inkscape.org/) -->

<svg
   xmlns:dc="http://purl.org/dc/elements/1.1/"
   xmlns:cc="http://creativecommons.org/ns#"
   xmlns:rdf="http://www.w3.org/1999/02/22-rdf-syntax-ns#"
   xmlns:svg="http://www.w3.org/2000/svg"
   xmlns="http://www.w3.org/2000/svg"
   xmlns:sodipodi="http://sodipodi.sourceforge.net/DTD/sodipodi-0.dtd"
   xmlns:inkscape="http://www.inkscape.org/namespaces/inkscape"
   version="1.1"
   id="svg766"
   xml:space="preserve"
   width="654.66669"
   height="368"
   viewBox="0 0 654.66669 368"
   sodipodi:docname="ratings.svg"
   inkscape:version="0.92.2 (5c3e80d, 2017-08-06)"><metadata
     id="metadata772"><rdf:RDF><cc:Work
         rdf:about=""><dc:format>image/svg+xml</dc:format><dc:type
           rdf:resource="http://purl.org/dc/dcmitype/StillImage" /><dc:title /></cc:Work></rdf:RDF></metadata><defs
     id="defs770"><clipPath
       clipPathUnits="userSpaceOnUse"
       id="clipPath792"><path
         d="M 32.965,5.48 H 486.524 V 227.718 H 32.965 Z"
         id="path790"
         inkscape:connector-curvature="0" /></clipPath><clipPath
       clipPathUnits="userSpaceOnUse"
       id="clipPath802"><path
         d="M 32,5 H 487 V 228 H 32 Z"
         id="path800"
         inkscape:connector-curvature="0" /></clipPath></defs><sodipodi:namedview
     pagecolor="#ffffff"
     bordercolor="#666666"
     borderopacity="1"
     objecttolerance="10"
     gridtolerance="10"
     guidetolerance="10"
     inkscape:pageopacity="0"
     inkscape:pageshadow="2"
     inkscape:window-width="1920"
     inkscape:window-height="1017"
     id="namedview768"
     showgrid="false"
     inkscape:zoom="2.5576815"
     inkscape:cx="70.343625"
     inkscape:cy="267.6479"
     inkscape:window-x="-8"
     inkscape:window-y="-8"
     inkscape:window-maximized="1"
     inkscape:current-layer="g838" /><g
     id="g774"
     inkscape:groupmode="layer"
     inkscape:label="ratings"
     transform="matrix(1.3333333,0,0,1.3333333,0,9.2e-6)"><g
       id="g776"><path
         d="M 0,0 H 491 V 276 H 0 Z"
         style="fill:#ffffff;fill-opacity:1;fill-rule:nonzero;stroke:none"
         id="path778"
         inkscape:connector-curvature="0" /><path
         d="M 0,0 H 491 V 276 H 0 Z"
         style="fill:#7099e1;fill-opacity:1;fill-rule:nonzero;stroke:none"
         id="path780"
         inkscape:connector-curvature="0" /><g
         id="g782"
         transform="scale(1,-1)"><path
           d="M 0,0 H 491 V -276 H 0 Z"
           style="fill:none;stroke:#7099e1;stroke-width:1.06697798;stroke-linecap:round;stroke-linejoin:round;stroke-miterlimit:10;stroke-dasharray:none;stroke-opacity:1"
           id="path784"
           inkscape:connector-curvature="0" /></g></g><g
       id="g786"><g
         id="g788"
         clip-path="url(#clipPath792)"><g
           id="g794"><g
             id="g796"><g
               id="g798"
               clip-path="url(#clipPath802)"><g
                 id="g804"><g
                   id="g806"
                   transform="scale(1,-1)"><path
                     d="m 195.309,-112.074 0.664,32.179 0.664,-16.089 h 0.66 l 0.664,8.043 0.66,8.046 0.664,-16.089 0.664,12.066 0.66,-12.066 0.664,-4.024 0.661,4.024 0.664,28.156 0.664,-28.156 0.66,8.043 h 0.664 l 0.66,12.066 0.664,-8.043 0.664,-12.066 0.66,-8.047 0.664,4.023 0.661,4.024 h 0.664 l 0.664,-16.09 0.66,16.09 0.664,-28.161 0.66,52.293 0.664,-24.132 h 0.664 l 0.66,-8.047 0.664,12.066 0.661,-32.18 0.664,24.137 h 0.664 l 0.66,28.156 0.664,-12.066 0.664,-8.047 0.66,-12.066 0.664,4.023 h 0.66 l 0.664,20.113 0.665,-16.089 0.66,28.156 0.664,4.023 0.66,-32.179 0.664,8.043 0.664,-24.133 0.66,12.066 h 0.664 l 0.66,12.067 0.664,-40.223 0.665,16.09 0.66,68.383 0.664,-52.293 0.66,-4.024 0.664,-8.047 0.664,20.114 0.66,-16.09 0.664,4.023 0.66,-4.023 0.664,24.136 0.665,-24.136 0.66,-8.043 0.664,4.019 0.66,12.071 0.664,4.019 0.664,-12.066 0.66,-24.133 h 0.664 l 0.66,32.18 0.664,-12.071 0.665,28.16 0.66,-84.472 0.664,84.472 0.66,-32.179 0.664,12.066 0.664,-4.023 0.66,36.203 0.664,-16.09 0.66,-12.066 0.664,-8.047 h 0.665 l 0.66,-12.067 0.664,16.09 0.66,-4.023 0.664,8.047 0.664,-16.09 0.66,-4.024 0.664,-8.047 0.66,28.161 0.664,-12.071 0.665,-8.043 0.66,20.114 0.664,-4.024 h 0.66 l 0.664,-8.047 0.664,-12.066 0.66,4.023 0.664,-4.023 0.66,40.226 0.664,-12.07 0.665,-4.019 0.66,-12.071 0.664,4.024 0.66,4.023 0.664,-28.156 0.664,24.133 0.66,-16.09 0.664,20.113 h 0.66 l 0.664,-4.023 0.665,4.023 0.66,-4.023 0.664,-12.067 h 0.66 l 0.664,4.024 0.664,-8.047 0.66,12.066 0.664,12.071 0.66,-4.024 0.664,-40.226 0.665,40.226 0.66,8.043 0.664,-16.09 0.66,4.024 0.664,-20.114 0.664,20.114 0.66,4.023 0.664,-8.047 0.66,-28.156 0.664,20.113 0.665,8.043 0.66,-4.019 0.664,4.019 0.66,-4.019 h 0.664 l 0.664,16.09 0.66,4.019 0.664,-8.043 0.66,-20.113 0.664,20.113 0.665,-4.023 0.66,4.023 0.664,-40.226 0.66,28.16 0.664,4.019 0.664,12.071 0.66,-16.09 h 0.664 l 0.66,-8.047 0.664,12.066 0.665,-8.043 0.66,-4.023 0.664,12.066 0.66,-28.156 0.664,48.27 0.664,-20.114 0.66,-20.109 h 0.664 l 0.66,28.156 0.664,-20.113 0.665,20.113 0.66,-20.113 0.664,16.09 0.66,-24.133 0.664,40.223 0.664,-36.204 0.66,4.024 0.664,12.066 0.66,-8.043 h 0.664 l 0.665,8.043 0.66,8.047 0.664,-32.18 0.66,8.043 0.664,16.09 0.664,-4.019 0.66,12.066 0.664,-8.047 0.66,-28.156 0.664,32.18 0.665,8.047 0.66,-44.25 0.664,32.179 0.66,-4.019 0.664,48.269 0.664,-36.203 0.66,-20.113 0.664,-4.024 0.66,24.137 0.664,-12.066 0.665,4.019 0.66,-16.09 0.664,20.114 h 0.66 l 0.664,40.226 0.664,-48.269 0.66,-24.137 0.664,12.066 0.66,40.227 0.664,-16.09 0.665,-20.113 0.66,-24.137 0.664,28.16 0.664,8.043 0.66,4.024 0.664,-28.157 0.66,32.18 0.664,-12.066 h 0.664 l 0.66,8.043 0.665,-24.133 0.66,20.109 0.664,4.024 0.664,-24.133 0.66,-24.137 0.664,44.246 h 0.66 l 0.664,-4.019 0.664,12.066 0.66,-36.203 0.665,20.113 0.66,16.09 h 0.664 l 0.664,-12.066 0.66,8.043 0.664,-32.18 0.66,36.203 0.664,-4.023 0.664,-20.114 0.66,-12.066 0.665,40.227 0.66,-24.137 h 0.664 l 0.664,4.023 0.66,16.09 0.664,-16.09 0.66,-4.023 0.664,16.09 0.664,-12.067 0.66,-12.066 0.665,24.133 0.66,-4.024 0.664,-52.293 0.664,36.203 0.66,12.071 h 0.664 l 0.66,12.066 0.664,-12.066 0.664,12.066 0.66,-24.137 0.665,-16.089 0.66,24.136 0.664,-4.023 0.664,16.09 h 0.66 l 0.664,-28.157 h 0.66 l 0.664,16.09 0.664,8.043 0.66,-28.156 0.665,20.113 0.66,8.043 0.664,-8.043 0.664,16.09 0.66,-24.137 0.664,-20.113 0.66,12.07 0.664,20.114 0.664,-16.09 0.66,24.133 0.665,4.023 0.66,-8.047 0.664,4.024 0.664,-4.024 0.66,-16.09 h 0.664 l 0.66,24.137 0.664,24.133 0.664,-44.246 0.66,-20.113 0.665,80.449 0.66,-84.473 0.664,36.203 0.664,-52.293 0.66,28.16 0.664,24.133 0.66,-8.043 0.664,16.09 0.664,-8.047 0.66,4.024 0.665,12.066 0.66,-20.109 0.664,-12.071 0.664,-92.515 0.66,84.472 0.664,36.204 0.66,-16.09 0.664,-8.047 0.664,-16.09 0.66,4.023 0.665,28.157 0.66,4.023 0.664,-16.09 0.664,8.043 0.66,-16.09 0.664,-8.043 0.66,24.133 0.664,-32.179 0.664,32.179 h 0.66 l 0.665,-20.109 h 0.66 l 0.664,12.066 0.664,-20.113 0.66,32.18 0.664,-4.024 0.66,-4.019 0.664,4.019 0.664,-24.133 0.66,8.043 0.665,16.09 0.66,-24.133 0.664,24.133 0.664,-20.109 0.66,44.246 0.664,-20.113 0.66,4.023 0.664,-32.18 0.664,12.067 0.66,-4.024 0.665,12.071 h 0.66 l 0.664,-16.09 0.664,24.133 0.66,-52.293 0.664,76.429 0.66,-40.226 h 0.664 l 0.664,-36.203 0.66,44.25 0.665,-20.114 0.66,36.204 0.664,-40.227 0.664,64.359 0.66,-40.222 0.664,-16.09 0.66,12.066 h 0.664 l 0.664,20.114 0.66,-56.317 0.665,16.09 0.66,16.09 0.664,-4.024 0.664,8.047 0.66,-4.023 h 0.664 l 0.66,8.047 0.664,-28.16 0.664,24.136 0.66,4.024 0.665,-40.227 0.66,32.18 0.664,20.113 0.664,12.067 0.66,-28.157 0.664,4.024 0.66,-28.16 0.664,36.203 0.664,52.293 0.66,-68.383 0.665,4.023 0.664,-4.023 0.66,-12.067 0.664,8.043 0.66,-8.043 0.664,32.18 0.664,-32.18 0.66,-4.023 0.664,32.18 0.66,-12.067 0.665,-16.09 0.664,20.114 0.66,-24.137 0.664,16.09 0.66,20.113 0.664,-4.023 0.664,-24.133 0.66,16.09 0.664,-28.16 0.66,24.136 0.665,-12.066 0.664,-16.094 0.66,40.227 0.664,-24.133 0.66,-16.094 0.664,8.047 0.664,12.066 0.66,8.047 0.664,-8.047 0.66,16.09 0.665,-32.179 0.664,36.203 0.66,-36.203 0.664,16.089 0.66,4.024 0.664,-8.043 0.664,-12.07 0.66,44.25"
                     style="fill:none;stroke:#dddddd;stroke-width:1.06697798;stroke-linecap:butt;stroke-linejoin:round;stroke-miterlimit:1;stroke-dasharray:none;stroke-opacity:1"
                     id="path808"
                     inkscape:connector-curvature="0" /></g><g
                   id="g810"
                   transform="scale(1,-1)"><path
                     d="m 53.535,-59.785 0.66,-16.09 0.664,-12.066 0.664,12.066 0.661,12.07 0.664,-20.113 0.66,12.066 0.664,-8.043 0.664,-8.046 0.66,-4.024 0.664,16.09 0.66,20.113 0.664,-16.09 0.664,12.067 0.661,4.023 h 0.664 l 0.66,-8.043 0.664,-24.136 0.664,20.113 0.66,-12.067 0.664,28.157 0.66,-12.067 0.664,-12.07 0.664,40.227 0.661,-24.137 0.664,-8.043 0.66,-20.113 0.664,28.156 0.664,-28.156 0.66,4.023 0.664,16.09 0.66,20.113 0.664,-24.137 0.664,20.114 0.661,-16.09 0.664,24.137 0.66,-36.204 0.664,20.11 0.664,20.113 0.66,-8.043 0.664,-32.18 0.66,24.133 0.664,-16.09 h 0.664 l 0.661,36.204 0.664,-24.137 h 0.66 l 0.664,12.07 0.664,-20.113 h 0.66 l 0.664,12.066 0.66,16.09 0.664,-20.113 0.664,-16.09 0.661,4.023 0.664,12.067 0.66,-16.09 h 0.664 l 0.664,16.09 0.66,12.07 0.664,-12.07 0.66,32.183 0.664,-48.273 0.664,24.137 0.661,-8.047 0.664,-16.09 0.66,16.09 0.664,24.137 0.664,-12.067 0.66,8.043 0.664,12.07 0.66,-40.226 0.664,8.043 0.664,4.023 h 0.661 l 0.664,28.16 0.664,-72.406 0.66,36.203 h 0.664 l 0.66,-16.09 0.664,20.11 0.664,12.07 0.66,24.133 0.664,-20.109 0.661,12.066 0.664,-8.047 0.664,-24.133 0.66,-16.09 0.664,40.223 0.66,-12.066 0.664,8.047 0.664,-16.094 h 0.66 l 0.664,4.023 0.661,-4.023 0.664,24.137 0.664,-12.067 0.66,-24.137 0.664,20.114 h 0.66 l 0.664,-8.047 0.664,-24.133 0.66,20.113 0.664,20.114 0.661,-20.114 0.664,-84.472 0.664,100.562 0.66,-8.047 0.664,32.18 0.66,-44.246 1.328,40.226 0.66,-40.226 0.664,-8.047 0.661,48.273 0.664,-16.089 h 1.324 l 0.664,-4.024 0.66,-24.137 0.664,24.137 0.664,-8.047 0.66,-4.023 0.664,-4.02 0.661,8.043 0.664,-4.023 0.664,20.113 0.66,16.09 0.664,-8.043 0.66,-24.137 h 0.664 l 0.664,20.114 0.66,-8.043 0.664,-4.024 0.661,20.113 1.328,-40.226 0.66,-20.113 0.664,36.203 0.66,-4.024 0.664,16.09 0.664,-40.223 h 0.66 l 0.664,16.09 0.661,32.18 0.664,-36.203 0.664,12.066 0.66,12.071 0.664,8.043 0.66,-16.09 0.664,-12.067 0.664,-4.023 0.66,12.066 0.664,4.024 0.661,32.179 0.664,-48.269 0.664,-12.067 0.66,20.11 0.664,-8.043 0.66,-4.024 0.664,36.204 0.664,-12.067 0.66,20.113 0.664,-48.273 0.661,32.184 0.664,-36.204 0.664,8.043 0.66,40.227 0.664,-28.16 0.66,-4.02 0.664,28.157 0.664,-24.137 0.66,-20.11 0.664,8.043 0.661,4.024 0.664,52.293 0.664,-84.473 0.66,24.133 0.664,52.293 0.66,-76.426 0.664,36.203 0.664,4.02 0.66,4.023 0.664,-20.113 0.661,-4.02 0.664,12.067 0.664,-16.09 h 0.66 l 0.664,-100.562 0.66,104.585 0.664,24.133 0.664,-4.023 0.66,-28.156 0.664,4.023 0.661,16.09 0.664,-4.024 0.664,16.09 0.66,-16.09 0.664,-4.023 0.66,28.16 0.664,-8.047 0.664,-24.133 0.66,16.09 0.664,-20.113 0.661,24.133 0.664,-28.156 0.664,20.113 0.66,-28.156 0.664,12.066 0.66,16.09 0.664,-28.156 0.664,36.199 0.66,-16.09 0.664,-4.02"
                     style="fill:none;stroke:#ffd43a;stroke-width:1.06697798;stroke-linecap:butt;stroke-linejoin:round;stroke-miterlimit:1;stroke-dasharray:none;stroke-opacity:1"
                     id="path812"
                     inkscape:connector-curvature="0" /></g><g
                   id="g814"
                   transform="scale(1,-1)"><path
                     d="M 194.648,-226.719 V -5.48"
                     style="fill:none;stroke:#ffd43a;stroke-width:1.06697798;stroke-linecap:butt;stroke-linejoin:round;stroke-miterlimit:10;stroke-dasharray:4.267913, 4.267913;stroke-dashoffset:0;stroke-opacity:1"
                     id="path816"
                     inkscape:connector-curvature="0" /></g></g></g></g></g><text
           transform="translate(36.359374,192.79688)"
           style="font-variant:normal;font-weight:normal;font-size:12px;font-family:Arial;-inkscape-font-specification:ArialMT;writing-mode:lr-tb;fill:#ffffff;fill-opacity:0.8;fill-rule:nonzero;stroke:none"
           id="text820"><tspan
             x="0"
             y="0"
             id="tspan818">5</tspan></text>
<text
           transform="translate(36.359374,152.57422)"
           style="font-variant:normal;font-weight:normal;font-size:12px;font-family:Arial;-inkscape-font-specification:ArialMT;writing-mode:lr-tb;fill:#ffffff;fill-opacity:0.8;fill-rule:nonzero;stroke:none"
           id="text824"><tspan
             x="0"
             y="0"
             id="tspan822">6</tspan></text>
<text
           transform="translate(36.359374,112.34766)"
           style="font-variant:normal;font-weight:normal;font-size:12px;font-family:Arial;-inkscape-font-specification:ArialMT;writing-mode:lr-tb;fill:#ffffff;fill-opacity:0.8;fill-rule:nonzero;stroke:none"
           id="text828"><tspan
             x="0"
             y="0"
             id="tspan826">7</tspan></text>
<text
           transform="translate(36.359374,72.125005)"
           style="font-variant:normal;font-weight:normal;font-size:12px;font-family:Arial;-inkscape-font-specification:ArialMT;writing-mode:lr-tb;fill:#ffffff;fill-opacity:0.8;fill-rule:nonzero;stroke:none"
           id="text832"><tspan
             x="0"
             y="0"
             id="tspan830">8</tspan></text>
<text
           transform="translate(36.359374,31.898444)"
           style="font-variant:normal;font-weight:normal;font-size:12px;font-family:Arial;-inkscape-font-specification:ArialMT;writing-mode:lr-tb;fill:#ffffff;fill-opacity:0.8;fill-rule:nonzero;stroke:none"
           id="text836"><tspan
             x="0"
             y="0"
             id="tspan834">9</tspan></text>
</g></g><g
       id="g838"><text
         transform="translate(49.535155,240.23828)"
         style="font-variant:normal;font-weight:normal;font-size:12px;font-family:Arial;-inkscape-font-specification:ArialMT;writing-mode:lr-tb;fill:#ffffff;fill-opacity:0.8;fill-rule:nonzero;stroke:none"
         id="text842"><tspan
           x="0"
           y="0"
           id="tspan840">0</tspan></text>
<text
         transform="translate(175.35937,240.23828)"
         style="font-variant:normal;font-weight:normal;font-size:12px;font-family:Arial;-inkscape-font-specification:ArialMT;writing-mode:lr-tb;fill:#ffffff;fill-opacity:0.8;fill-rule:nonzero;stroke:none"
         id="text846"><tspan
           x="0"
           y="0"
           id="tspan844">2</tspan></text>
<text
         transform="translate(182.03137,240.23828)"
         style="font-variant:normal;font-weight:normal;font-size:12px;font-family:Arial;-inkscape-font-specification:ArialMT;writing-mode:lr-tb;fill:#ffffff;fill-opacity:0.8;fill-rule:nonzero;stroke:none"
         id="text850"><tspan
           x="0"
           y="0"
           id="tspan848">0</tspan></text>
<text
         transform="translate(188.70336,240.23828)"
         style="font-variant:normal;font-weight:normal;font-size:12px;font-family:Arial;-inkscape-font-specification:ArialMT;writing-mode:lr-tb;fill:#ffffff;fill-opacity:0.8;fill-rule:nonzero;stroke:none"
         id="text854"><tspan
           x="0"
           y="0"
           id="tspan852">0</tspan></text>
<text
         transform="translate(307.86327,240.23828)"
         style="font-variant:normal;font-weight:normal;font-size:12px;font-family:Arial;-inkscape-font-specification:ArialMT;writing-mode:lr-tb;fill:#ffffff;fill-opacity:0.8;fill-rule:nonzero;stroke:none"
         id="text858"><tspan
           x="0"
           y="0"
           id="tspan856">4</tspan></text>
<text
         transform="translate(314.53527,240.23828)"
         style="font-variant:normal;font-weight:normal;font-size:12px;font-family:Arial;-inkscape-font-specification:ArialMT;writing-mode:lr-tb;fill:#ffffff;fill-opacity:0.8;fill-rule:nonzero;stroke:none"
         id="text862"><tspan
           x="0"
           y="0"
           id="tspan860">0</tspan></text>
<text
         transform="translate(321.20727,240.23828)"
         style="font-variant:normal;font-weight:normal;font-size:12px;font-family:Arial;-inkscape-font-specification:ArialMT;writing-mode:lr-tb;fill:#ffffff;fill-opacity:0.8;fill-rule:nonzero;stroke:none"
         id="text866"><tspan
           x="0"
           y="0"
           id="tspan864">0</tspan></text>
<text
         transform="translate(440.36327,240.23828)"
         style="font-variant:normal;font-weight:normal;font-size:12px;font-family:Arial;-inkscape-font-specification:ArialMT;writing-mode:lr-tb;fill:#ffffff;fill-opacity:0.8;fill-rule:nonzero;stroke:none"
         id="text870"><tspan
           x="0"
           y="0"
           id="tspan868">6</tspan></text>
<text
         transform="translate(447.03527,240.23828)"
         style="font-variant:normal;font-weight:normal;font-size:12px;font-family:Arial;-inkscape-font-specification:ArialMT;writing-mode:lr-tb;fill:#ffffff;fill-opacity:0.8;fill-rule:nonzero;stroke:none"
         id="text874"><tspan
           x="0"
           y="0"
           id="tspan872">0</tspan></text>
<text
         transform="translate(453.70726,240.23828)"
         style="font-variant:normal;font-weight:normal;font-size:12px;font-family:Arial;-inkscape-font-specification:ArialMT;writing-mode:lr-tb;fill:#ffffff;fill-opacity:0.8;fill-rule:nonzero;stroke:none"
         id="text878"><tspan
           x="0"
           y="0"
           id="tspan876">0</tspan></text>
<text
         transform="translate(230.1914,253.59375)"
         style="font-variant:normal;font-weight:normal;font-size:11px;font-family:Arial;-inkscape-font-specification:ArialMT;writing-mode:lr-tb;fill:#fafafa;fill-opacity:0.8;fill-rule:nonzero;stroke:none"
         id="text882"><tspan
           x="0"
           y="0"
           id="tspan880">E</tspan></text>
<text
         transform="translate(237.5174,253.59375)"
         style="font-variant:normal;font-weight:normal;font-size:11px;font-family:Arial;-inkscape-font-specification:ArialMT;writing-mode:lr-tb;fill:#fafafa;fill-opacity:0.8;fill-rule:nonzero;stroke:none"
         id="text886"><tspan
           x="0"
           y="0"
           id="tspan884">p</tspan></text>
<text
         transform="translate(243.6334,253.59375)"
         style="font-variant:normal;font-weight:normal;font-size:11px;font-family:Arial;-inkscape-font-specification:ArialMT;writing-mode:lr-tb;fill:#fafafa;fill-opacity:0.8;fill-rule:nonzero;stroke:none"
         id="text890"><tspan
           x="0"
           y="0"
           id="tspan888">i</tspan></text>
<text
         transform="translate(246.0754,253.59375)"
         style="font-variant:normal;font-weight:normal;font-size:11px;font-family:Arial;-inkscape-font-specification:ArialMT;writing-mode:lr-tb;fill:#fafafa;fill-opacity:0.8;fill-rule:nonzero;stroke:none"
         id="text894"><tspan
           x="0"
           y="0"
           id="tspan892">s</tspan></text>
<text
         transform="translate(251.5754,253.59375)"
         style="font-variant:normal;font-weight:normal;font-size:11px;font-family:Arial;-inkscape-font-specification:ArialMT;writing-mode:lr-tb;fill:#fafafa;fill-opacity:0.8;fill-rule:nonzero;stroke:none"
         id="text898"><tspan
           x="0"
           y="0"
           id="tspan896">o</tspan></text>
<text
         transform="translate(257.6914,253.59375)"
         style="font-variant:normal;font-weight:normal;font-size:11px;font-family:Arial;-inkscape-font-specification:ArialMT;writing-mode:lr-tb;fill:#fafafa;fill-opacity:0.8;fill-rule:nonzero;stroke:none"
         id="text902"><tspan
           x="0"
           y="0"
           id="tspan900">d</tspan></text>
<text
         transform="translate(263.8074,253.59375)"
         style="font-variant:normal;font-weight:normal;font-size:11px;font-family:Arial;-inkscape-font-specification:ArialMT;writing-mode:lr-tb;fill:#fafafa;fill-opacity:0.8;fill-rule:nonzero;stroke:none"
         id="text906"><tspan
           x="0"
           y="0"
           id="tspan904">e</tspan></text>
<text
         transform="translate(272.97039,253.59375)"
         style="font-variant:normal;font-weight:normal;font-size:11px;font-family:Arial;-inkscape-font-specification:ArialMT;writing-mode:lr-tb;fill:#fafafa;fill-opacity:0.8;fill-rule:nonzero;stroke:none"
         id="text910"><tspan
           x="0"
           y="0"
           id="tspan908">n</tspan></text>
<text
         transform="translate(279.08639,253.59375)"
         style="font-variant:normal;font-weight:normal;font-size:11px;font-family:Arial;-inkscape-font-specification:ArialMT;writing-mode:lr-tb;fill:#fafafa;fill-opacity:0.8;fill-rule:nonzero;stroke:none"
         id="text914"><tspan
           x="0"
           y="0"
           id="tspan912">o</tspan></text>
<text
         transform="translate(285.20242,253.59375)"
         style="font-variant:normal;font-weight:normal;font-size:11px;font-family:Arial;-inkscape-font-specification:ArialMT;writing-mode:lr-tb;fill:#fafafa;fill-opacity:0.8;fill-rule:nonzero;stroke:none"
         id="text918"><tspan
           x="0"
           y="0"
           id="tspan916">.</tspan></text>
<text
         transform="rotate(-90,89.80469,61.453126)"
         style="font-variant:normal;font-weight:normal;font-size:11px;font-family:Arial;-inkscape-font-specification:ArialMT;writing-mode:lr-tb;fill:#fafafa;fill-opacity:0.8;fill-rule:nonzero;stroke:none"
         id="text926"><tspan
           x="0"
           y="0"
           id="tspan924">E</tspan></text>
<text
         transform="rotate(-90,86.141688,57.790124)"
         style="font-variant:normal;font-weight:normal;font-size:11px;font-family:Arial;-inkscape-font-specification:ArialMT;writing-mode:lr-tb;fill:#fafafa;fill-opacity:0.8;fill-rule:nonzero;stroke:none"
         id="text930"><tspan
           x="0"
           y="0"
           id="tspan928">p</tspan></text>
<text
         transform="rotate(-90,83.083689,54.732125)"
         style="font-variant:normal;font-weight:normal;font-size:11px;font-family:Arial;-inkscape-font-specification:ArialMT;writing-mode:lr-tb;fill:#fafafa;fill-opacity:0.8;fill-rule:nonzero;stroke:none"
         id="text934"><tspan
           x="0"
           y="0"
           id="tspan932">i</tspan></text>
<text
         transform="rotate(-90,81.862688,53.511124)"
         style="font-variant:normal;font-weight:normal;font-size:11px;font-family:Arial;-inkscape-font-specification:ArialMT;writing-mode:lr-tb;fill:#fafafa;fill-opacity:0.8;fill-rule:nonzero;stroke:none"
         id="text938"><tspan
           x="0"
           y="0"
           id="tspan936">s</tspan></text>
<text
         transform="rotate(-90,79.112688,50.761124)"
         style="font-variant:normal;font-weight:normal;font-size:11px;font-family:Arial;-inkscape-font-specification:ArialMT;writing-mode:lr-tb;fill:#fafafa;fill-opacity:0.8;fill-rule:nonzero;stroke:none"
         id="text942"><tspan
           x="0"
           y="0"
           id="tspan940">o</tspan></text>
<text
         transform="rotate(-90,76.05469,47.703126)"
         style="font-variant:normal;font-weight:normal;font-size:11px;font-family:Arial;-inkscape-font-specification:ArialMT;writing-mode:lr-tb;fill:#fafafa;fill-opacity:0.8;fill-rule:nonzero;stroke:none"
         id="text946"><tspan
           x="0"
           y="0"
           id="tspan944">d</tspan></text>
<text
         transform="rotate(-90,72.996692,44.645127)"
         style="font-variant:normal;font-weight:normal;font-size:11px;font-family:Arial;-inkscape-font-specification:ArialMT;writing-mode:lr-tb;fill:#fafafa;fill-opacity:0.8;fill-rule:nonzero;stroke:none"
         id="text950"><tspan
           x="0"
           y="0"
           id="tspan948">e</tspan></text>
<text
         transform="rotate(-90,68.415187,40.063623)"
         style="font-variant:normal;font-weight:normal;font-size:11px;font-family:Arial;-inkscape-font-specification:ArialMT;writing-mode:lr-tb;fill:#fafafa;fill-opacity:0.8;fill-rule:nonzero;stroke:none"
         id="text954"><tspan
           x="0"
           y="0"
           id="tspan952">r</tspan></text>
<text
         transform="rotate(-90,66.58369,38.232125)"
         style="font-variant:normal;font-weight:normal;font-size:11px;font-family:Arial;-inkscape-font-specification:ArialMT;writing-mode:lr-tb;fill:#fafafa;fill-opacity:0.8;fill-rule:nonzero;stroke:none"
         id="text958"><tspan
           x="0"
           y="0"
           id="tspan956">a</tspan></text>
<text
         transform="rotate(-90,63.525691,35.174127)"
         style="font-variant:normal;font-weight:normal;font-size:11px;font-family:Arial;-inkscape-font-specification:ArialMT;writing-mode:lr-tb;fill:#fafafa;fill-opacity:0.8;fill-rule:nonzero;stroke:none"
         id="text962"><tspan
           x="0"
           y="0"
           id="tspan960">t</tspan></text>
<text
         transform="rotate(-90,62.002192,33.650628)"
         style="font-variant:normal;font-weight:normal;font-size:11px;font-family:Arial;-inkscape-font-specification:ArialMT;writing-mode:lr-tb;fill:#fafafa;fill-opacity:0.8;fill-rule:nonzero;stroke:none"
         id="text966"><tspan
           x="0"
           y="0"
           id="tspan964">i</tspan></text>
<text
         transform="rotate(-90,60.781192,32.429628)"
         style="font-variant:normal;font-weight:normal;font-size:11px;font-family:Arial;-inkscape-font-specification:ArialMT;writing-mode:lr-tb;fill:#fafafa;fill-opacity:0.8;fill-rule:nonzero;stroke:none"
         id="text970"><tspan
           x="0"
           y="0"
           id="tspan968">n</tspan></text>
<text
         transform="rotate(-90,57.723186,29.371622)"
         style="font-variant:normal;font-weight:normal;font-size:11px;font-family:Arial;-inkscape-font-specification:ArialMT;writing-mode:lr-tb;fill:#fafafa;fill-opacity:0.8;fill-rule:nonzero;stroke:none"
         id="text974"><tspan
           x="0"
           y="0"
           id="tspan972">g</tspan></text>
<text
         transform="translate(247.10156,267.99609)"
         style="font-variant:normal;font-weight:normal;font-size:9.89999866px;font-family:Arial;-inkscape-font-specification:ArialMT;writing-mode:lr-tb;fill:#fafafa;fill-opacity:0.8;fill-rule:nonzero;stroke:none"
         id="text982"><tspan
           x="0"
           y="0"
           id="tspan980">S</tspan></text>
<text
         transform="translate(253.69495,267.99609)"
         style="font-variant:normal;font-weight:normal;font-size:9.89999866px;font-family:Arial;-inkscape-font-specification:ArialMT;writing-mode:lr-tb;fill:#fafafa;fill-opacity:0.8;fill-rule:nonzero;stroke:none"
         id="text986"><tspan
           x="0"
           y="0"
           id="tspan984">o</tspan></text>
<text
         transform="translate(259.19936,267.99609)"
         style="font-variant:normal;font-weight:normal;font-size:9.89999866px;font-family:Arial;-inkscape-font-specification:ArialMT;writing-mode:lr-tb;fill:#fafafa;fill-opacity:0.8;fill-rule:nonzero;stroke:none"
         id="text990"><tspan
           x="0"
           y="0"
           id="tspan988">u</tspan></text>
<text
         transform="translate(264.70376,267.99609)"
         style="font-variant:normal;font-weight:normal;font-size:9.89999866px;font-family:Arial;-inkscape-font-specification:ArialMT;writing-mode:lr-tb;fill:#fafafa;fill-opacity:0.8;fill-rule:nonzero;stroke:none"
         id="text994"><tspan
           x="0"
           y="0"
           id="tspan992">r</tspan></text>
<text
         transform="translate(268.00045,267.99609)"
         style="font-variant:normal;font-weight:normal;font-size:9.89999866px;font-family:Arial;-inkscape-font-specification:ArialMT;writing-mode:lr-tb;fill:#fafafa;fill-opacity:0.8;fill-rule:nonzero;stroke:none"
         id="text998"><tspan
           x="0"
           y="0"
           id="tspan996">c</tspan></text>
<text
         transform="translate(272.95046,267.99609)"
         style="font-variant:normal;font-weight:normal;font-size:9.89999866px;font-family:Arial;-inkscape-font-specification:ArialMT;writing-mode:lr-tb;fill:#fafafa;fill-opacity:0.8;fill-rule:nonzero;stroke:none"
         id="text1002"><tspan
           x="0"
           y="0"
           id="tspan1000">e</tspan></text>
<text
         transform="translate(278.45486,267.99609)"
         style="font-variant:normal;font-weight:normal;font-size:9.89999866px;font-family:Arial;-inkscape-font-specification:ArialMT;writing-mode:lr-tb;fill:#fafafa;fill-opacity:0.8;fill-rule:nonzero;stroke:none"
         id="text1006"><tspan
           x="0"
           y="0"
           id="tspan1004">:</tspan></text>
<text
         transform="translate(283.93945,267.99609)"
         style="font-variant:normal;font-weight:normal;font-size:9.89999866px;font-family:Arial;-inkscape-font-specification:ArialMT;writing-mode:lr-tb;fill:#fafafa;fill-opacity:0.8;fill-rule:nonzero;stroke:none"
         id="text1010"><tspan
           x="0"
           y="0"
           id="tspan1008">n</tspan></text>
<text
         transform="translate(289.44384,267.99609)"
         style="font-variant:normal;font-weight:normal;font-size:9.89999866px;font-family:Arial;-inkscape-font-specification:ArialMT;writing-mode:lr-tb;fill:#fafafa;fill-opacity:0.8;fill-rule:nonzero;stroke:none"
         id="text1014"><tspan
           x="0"
           y="0"
           id="tspan1012">a</tspan></text>
<text
         transform="translate(294.94826,267.99609)"
         style="font-variant:normal;font-weight:normal;font-size:9.89999866px;font-family:Arial;-inkscape-font-specification:ArialMT;writing-mode:lr-tb;fill:#fafafa;fill-opacity:0.8;fill-rule:nonzero;stroke:none"
         id="text1018"><tspan
           x="0"
           y="0"
           id="tspan1016">t</tspan></text>
<text
         transform="translate(297.69054,267.99609)"
         style="font-variant:normal;font-weight:normal;font-size:9.89999866px;font-family:Arial;-inkscape-font-specification:ArialMT;writing-mode:lr-tb;fill:#fafafa;fill-opacity:0.8;fill-rule:nonzero;stroke:none"
         id="text1022"><tspan
           x="0"
           y="0"
           id="tspan1020">h</tspan></text>
<text
         transform="translate(303.19494,267.99609)"
         style="font-variant:normal;font-weight:normal;font-size:9.89999866px;font-family:Arial;-inkscape-font-specification:ArialMT;writing-mode:lr-tb;fill:#fafafa;fill-opacity:0.8;fill-rule:nonzero;stroke:none"
         id="text1026"><tspan
           x="0"
           y="0"
           id="tspan1024">a</tspan></text>
<text
         transform="translate(308.69936,267.99609)"
         style="font-variant:normal;font-weight:normal;font-size:9.89999866px;font-family:Arial;-inkscape-font-specification:ArialMT;writing-mode:lr-tb;fill:#fafafa;fill-opacity:0.8;fill-rule:nonzero;stroke:none"
         id="text1030"><tspan
           x="0"
           y="0"
           id="tspan1028">n</tspan></text>
<text
         transform="translate(314.20376,267.99609)"
         style="font-variant:normal;font-weight:normal;font-size:9.89999866px;font-family:Arial;-inkscape-font-specification:ArialMT;writing-mode:lr-tb;fill:#fafafa;fill-opacity:0.8;fill-rule:nonzero;stroke:none"
         id="text1034"><tspan
           x="0"
           y="0"
           id="tspan1032">c</tspan></text>
<text
         transform="translate(319.15374,267.99609)"
         style="font-variant:normal;font-weight:normal;font-size:9.89999866px;font-family:Arial;-inkscape-font-specification:ArialMT;writing-mode:lr-tb;fill:#fafafa;fill-opacity:0.8;fill-rule:nonzero;stroke:none"
         id="text1038"><tspan
           x="0"
           y="0"
           id="tspan1036">u</tspan></text>
<text
         transform="translate(324.65816,267.99609)"
         style="font-variant:normal;font-weight:normal;font-size:9.89999866px;font-family:Arial;-inkscape-font-specification:ArialMT;writing-mode:lr-tb;fill:#fafafa;fill-opacity:0.8;fill-rule:nonzero;stroke:none"
         id="text1042"><tspan
           x="0"
           y="0"
           id="tspan1040">n</tspan></text>
<text
         transform="translate(330.16256,267.99609)"
         style="font-variant:normal;font-weight:normal;font-size:9.89999866px;font-family:Arial;-inkscape-font-specification:ArialMT;writing-mode:lr-tb;fill:#fafafa;fill-opacity:0.8;fill-rule:nonzero;stroke:none"
         id="text1046"><tspan
           x="0"
           y="0"
           id="tspan1044">n</tspan></text>
<text
         transform="translate(335.66695,267.99609)"
         style="font-variant:normal;font-weight:normal;font-size:9.89999866px;font-family:Arial;-inkscape-font-specification:ArialMT;writing-mode:lr-tb;fill:#fafafa;fill-opacity:0.8;fill-rule:nonzero;stroke:none"
         id="text1050"><tspan
           x="0"
           y="0"
           id="tspan1048">.</tspan></text>
<text
         transform="translate(338.40926,267.99609)"
         style="font-variant:normal;font-weight:normal;font-size:9.89999866px;font-family:Arial;-inkscape-font-specification:ArialMT;writing-mode:lr-tb;fill:#fafafa;fill-opacity:0.8;fill-rule:nonzero;stroke:none"
         id="text1054"><tspan
           x="0"
           y="0"
           id="tspan1052">c</tspan></text>
<text
         transform="translate(343.35924,267.99609)"
         style="font-variant:normal;font-weight:normal;font-size:9.89999866px;font-family:Arial;-inkscape-font-specification:ArialMT;writing-mode:lr-tb;fill:#fafafa;fill-opacity:0.8;fill-rule:nonzero;stroke:none"
         id="text1058"><tspan
           x="0"
           y="0"
           id="tspan1056">o</tspan></text>
<text
         transform="translate(348.86364,267.99609)"
         style="font-variant:normal;font-weight:normal;font-size:9.89999866px;font-family:Arial;-inkscape-font-specification:ArialMT;writing-mode:lr-tb;fill:#fafafa;fill-opacity:0.8;fill-rule:nonzero;stroke:none"
         id="text1062"><tspan
           x="0"
           y="0"
           id="tspan1060">m</tspan></text>
<text
         transform="translate(359.85265,267.99609)"
         style="font-variant:normal;font-weight:normal;font-size:9.89999866px;font-family:Arial;-inkscape-font-specification:ArialMT;writing-mode:lr-tb;fill:#fafafa;fill-opacity:0.8;fill-rule:nonzero;stroke:none"
         id="text1066"><tspan
           x="0"
           y="0"
           id="tspan1064">(</tspan></text>
<text
         transform="translate(363.14934,267.99609)"
         style="font-variant:normal;font-weight:normal;font-size:9.89999866px;font-family:Arial;-inkscape-font-specification:ArialMT;writing-mode:lr-tb;fill:#fafafa;fill-opacity:0.8;fill-rule:nonzero;stroke:none"
         id="text1070"><tspan
           x="0"
           y="0"
           id="tspan1068">@</tspan></text>
<text
         transform="translate(373.19784,267.99609)"
         style="font-variant:normal;font-weight:normal;font-size:9.89999866px;font-family:Arial;-inkscape-font-specification:ArialMT;writing-mode:lr-tb;fill:#fafafa;fill-opacity:0.8;fill-rule:nonzero;stroke:none"
         id="text1074"><tspan
           x="0"
           y="0"
           id="tspan1072">n</tspan></text>
<text
         transform="translate(378.70223,267.99609)"
         style="font-variant:normal;font-weight:normal;font-size:9.89999866px;font-family:Arial;-inkscape-font-specification:ArialMT;writing-mode:lr-tb;fill:#fafafa;fill-opacity:0.8;fill-rule:nonzero;stroke:none"
         id="text1078"><tspan
           x="0"
           y="0"
           id="tspan1076">a</tspan></text>
<text
         transform="translate(384.20665,267.99609)"
         style="font-variant:normal;font-weight:normal;font-size:9.89999866px;font-family:Arial;-inkscape-font-specification:ArialMT;writing-mode:lr-tb;fill:#fafafa;fill-opacity:0.8;fill-rule:nonzero;stroke:none"
         id="text1082"><tspan
           x="0"
           y="0"
           id="tspan1080">t</tspan></text>
<text
         transform="translate(386.94893,267.99609)"
         style="font-variant:normal;font-weight:normal;font-size:9.89999866px;font-family:Arial;-inkscape-font-specification:ArialMT;writing-mode:lr-tb;fill:#fafafa;fill-opacity:0.8;fill-rule:nonzero;stroke:none"
         id="text1086"><tspan
           x="0"
           y="0"
           id="tspan1084">h</tspan></text>
<text
         transform="translate(392.45336,267.99609)"
         style="font-variant:normal;font-weight:normal;font-size:9.89999866px;font-family:Arial;-inkscape-font-specification:ArialMT;writing-mode:lr-tb;fill:#fafafa;fill-opacity:0.8;fill-rule:nonzero;stroke:none"
         id="text1090"><tspan
           x="0"
           y="0"
           id="tspan1088">c</tspan></text>
<text
         transform="translate(397.40334,267.99609)"
         style="font-variant:normal;font-weight:normal;font-size:9.89999866px;font-family:Arial;-inkscape-font-specification:ArialMT;writing-mode:lr-tb;fill:#fafafa;fill-opacity:0.8;fill-rule:nonzero;stroke:none"
         id="text1094"><tspan
           x="0"
           y="0"
           id="tspan1092">u</tspan></text>
<text
         transform="translate(402.90773,267.99609)"
         style="font-variant:normal;font-weight:normal;font-size:9.89999866px;font-family:Arial;-inkscape-font-specification:ArialMT;writing-mode:lr-tb;fill:#fafafa;fill-opacity:0.8;fill-rule:nonzero;stroke:none"
         id="text1098"><tspan
           x="0"
           y="0"
           id="tspan1096">n</tspan></text>
<text
         transform="translate(408.41213,267.99609)"
         style="font-variant:normal;font-weight:normal;font-size:9.89999866px;font-family:Arial;-inkscape-font-specification:ArialMT;writing-mode:lr-tb;fill:#fafafa;fill-opacity:0.8;fill-rule:nonzero;stroke:none"
         id="text1102"><tspan
           x="0"
           y="0"
           id="tspan1100">)</tspan></text>
<text
         transform="translate(411.70885,267.99609)"
         style="font-variant:normal;font-weight:normal;font-size:9.89999866px;font-family:Arial;-inkscape-font-specification:ArialMT;writing-mode:lr-tb;fill:#fafafa;fill-opacity:0.8;fill-rule:nonzero;stroke:none"
         id="text1106"><tspan
           x="0"
           y="0"
           id="tspan1104">;</tspan></text>
<text
         transform="translate(417.19344,267.99609)"
         style="font-variant:normal;font-weight:normal;font-size:9.89999866px;font-family:Arial;-inkscape-font-specification:ArialMT;writing-mode:lr-tb;fill:#fafafa;fill-opacity:0.8;fill-rule:nonzero;stroke:none"
         id="text1110"><tspan
           x="0"
           y="0"
           id="tspan1108">d</tspan></text>
<text
         transform="translate(422.69783,267.99609)"
         style="font-variant:normal;font-weight:normal;font-size:9.89999866px;font-family:Arial;-inkscape-font-specification:ArialMT;writing-mode:lr-tb;fill:#fafafa;fill-opacity:0.8;fill-rule:nonzero;stroke:none"
         id="text1114"><tspan
           x="0"
           y="0"
           id="tspan1112">a</tspan></text>
<text
         transform="translate(428.20223,267.99609)"
         style="font-variant:normal;font-weight:normal;font-size:9.89999866px;font-family:Arial;-inkscape-font-specification:ArialMT;writing-mode:lr-tb;fill:#fafafa;fill-opacity:0.8;fill-rule:nonzero;stroke:none"
         id="text1118"><tspan
           x="0"
           y="0"
           id="tspan1116">t</tspan></text>
<text
         transform="translate(430.94454,267.99609)"
         style="font-variant:normal;font-weight:normal;font-size:9.89999866px;font-family:Arial;-inkscape-font-specification:ArialMT;writing-mode:lr-tb;fill:#fafafa;fill-opacity:0.8;fill-rule:nonzero;stroke:none"
         id="text1122"><tspan
           x="0"
           y="0"
           id="tspan1120">a</tspan></text>
<text
         transform="translate(439.19124,267.99609)"
         style="font-variant:normal;font-weight:normal;font-size:9.89999866px;font-family:Arial;-inkscape-font-specification:ArialMT;writing-mode:lr-tb;fill:#fafafa;fill-opacity:0.8;fill-rule:nonzero;stroke:none"
         id="text1126"><tspan
           x="0"
           y="0"
           id="tspan1124">f</tspan></text>
<text
         transform="translate(441.93355,267.99609)"
         style="font-variant:normal;font-weight:normal;font-size:9.89999866px;font-family:Arial;-inkscape-font-specification:ArialMT;writing-mode:lr-tb;fill:#fafafa;fill-opacity:0.8;fill-rule:nonzero;stroke:none"
         id="text1130"><tspan
           x="0"
           y="0"
           id="tspan1128">r</tspan></text>
<text
         transform="translate(445.23024,267.99609)"
         style="font-variant:normal;font-weight:normal;font-size:9.89999866px;font-family:Arial;-inkscape-font-specification:ArialMT;writing-mode:lr-tb;fill:#fafafa;fill-opacity:0.8;fill-rule:nonzero;stroke:none"
         id="text1134"><tspan
           x="0"
           y="0"
           id="tspan1132">o</tspan></text>
<text
         transform="translate(450.73464,267.99609)"
         style="font-variant:normal;font-weight:normal;font-size:9.89999866px;font-family:Arial;-inkscape-font-specification:ArialMT;writing-mode:lr-tb;fill:#fafafa;fill-opacity:0.8;fill-rule:nonzero;stroke:none"
         id="text1138"><tspan
           x="0"
           y="0"
           id="tspan1136">m</tspan></text>
<text
         transform="translate(461.72365,267.99609)"
         style="font-variant:normal;font-weight:normal;font-size:9.89999866px;font-family:Arial;-inkscape-font-specification:ArialMT;writing-mode:lr-tb;fill:#fafafa;fill-opacity:0.8;fill-rule:nonzero;stroke:none"
         id="text1142"><tspan
           x="0"
           y="0"
           id="tspan1140">I</tspan></text>
<text
         transform="translate(464.46593,267.99609)"
         style="font-variant:normal;font-weight:normal;font-size:9.89999866px;font-family:Arial;-inkscape-font-specification:ArialMT;writing-mode:lr-tb;fill:#fafafa;fill-opacity:0.8;fill-rule:nonzero;stroke:none"
         id="text1146"><tspan
           x="0"
           y="0"
           id="tspan1144">M</tspan></text>
<text
         transform="translate(472.71263,267.99609)"
         style="font-variant:normal;font-weight:normal;font-size:9.89999866px;font-family:Arial;-inkscape-font-specification:ArialMT;writing-mode:lr-tb;fill:#fafafa;fill-opacity:0.8;fill-rule:nonzero;stroke:none"
         id="text1150"><tspan
           x="0"
           y="0"
           id="tspan1148">D</tspan></text>
<text
         transform="translate(479.86043,267.99609)"
         style="font-variant:normal;font-weight:normal;font-size:9.89999866px;font-family:Arial;-inkscape-font-specification:ArialMT;writing-mode:lr-tb;fill:#fafafa;fill-opacity:0.8;fill-rule:nonzero;stroke:none"
         id="text1154"><tspan
           x="0"
           y="0"
           id="tspan1152">b</tspan></text>
<text
         transform="translate(215.99536,200.47154)"
         style="font-variant:normal;font-weight:normal;font-size:11px;font-family:Arial;-inkscape-font-specification:ArialMT;writing-mode:lr-tb;fill:#fafafa;fill-opacity:0.8;fill-rule:nonzero;stroke:none"
         id="text1158"><tspan
           x="0"
           y="0"
           id="tspan1156">S</tspan></text>
<text
         transform="translate(223.34301,200.47154)"
         style="font-variant:normal;font-weight:normal;font-size:11px;font-family:Arial;-inkscape-font-specification:ArialMT;writing-mode:lr-tb;fill:#fafafa;fill-opacity:0.8;fill-rule:nonzero;stroke:none"
         id="text1162"><tspan
           x="0"
           y="0"
           id="tspan1160">1</tspan></text>
<text
         transform="translate(229.46606,200.47154)"
         style="font-variant:normal;font-weight:normal;font-size:11px;font-family:Arial;-inkscape-font-specification:ArialMT;writing-mode:lr-tb;fill:#fafafa;fill-opacity:0.8;fill-rule:nonzero;stroke:none"
         id="text1166"><tspan
           x="0"
           y="0"
           id="tspan1164">0</tspan></text>
<text
         transform="translate(235.5891,200.47154)"
         style="font-variant:normal;font-weight:normal;font-size:11px;font-family:Arial;-inkscape-font-specification:ArialMT;writing-mode:lr-tb;fill:#fafafa;fill-opacity:0.8;fill-rule:nonzero;stroke:none"
         id="text1170"><tspan
           x="0"
           y="0"
           id="tspan1168">E</tspan></text>
<text
         transform="translate(242.93676,200.47154)"
         style="font-variant:normal;font-weight:normal;font-size:11px;font-family:Arial;-inkscape-font-specification:ArialMT;writing-mode:lr-tb;fill:#fafafa;fill-opacity:0.8;fill-rule:nonzero;stroke:none"
         id="text1174"><tspan
           x="0"
           y="0"
           id="tspan1172">1</tspan></text>
<text
         transform="translate(248.2434,200.47154)"
         style="font-variant:normal;font-weight:normal;font-size:11px;font-family:Arial;-inkscape-font-specification:ArialMT;writing-mode:lr-tb;fill:#fafafa;fill-opacity:0.8;fill-rule:nonzero;stroke:none"
         id="text1178"><tspan
           x="0"
           y="0"
           id="tspan1176">1</tspan></text>
<g
         id="g1180"
         transform="scale(1,-1)"><path
           d="m 218.828,-203.398 c 0,0 -6.582,-13.465 -20.098,-17.086"
           style="fill:none;stroke:#dee7f5;stroke-width:0.75;stroke-linecap:butt;stroke-linejoin:miter;stroke-miterlimit:4;stroke-dasharray:none;stroke-opacity:1"
           id="path1182"
           inkscape:connector-curvature="0" /></g><g
         id="g1184"
         transform="matrix(1,-0.267949,-0.267949,-1,0,0)"><path
           d="m 134.087,-253.643 -4.749,-1.747 4.747,-1.745 c -0.759,1.031 -0.752,2.44 0.002,3.492 z"
           style="fill:#dee7f5;fill-opacity:1;fill-rule:evenodd;stroke:#dee7f5;stroke-width:0.271667;stroke-linecap:butt;stroke-linejoin:round;stroke-miterlimit:4;stroke-dasharray:none;stroke-opacity:1"
           id="path1186"
           inkscape:connector-curvature="0" /></g></g></g></svg>