<?xml version="1.0" encoding="UTF-8" standalone="no"?>
<!-- Created with Inkscape (http://www.inkscape.org/) -->

<svg
   xmlns:dc="http://purl.org/dc/elements/1.1/"
   xmlns:cc="http://creativecommons.org/ns#"
   xmlns:rdf="http://www.w3.org/1999/02/22-rdf-syntax-ns#"
   xmlns:svg="http://www.w3.org/2000/svg"
   xmlns="http://www.w3.org/2000/svg"
   xmlns:sodipodi="http://sodipodi.sourceforge.net/DTD/sodipodi-0.dtd"
   xmlns:inkscape="http://www.inkscape.org/namespaces/inkscape"
   version="1.1"
   id="svg3406"
   xml:space="preserve"
   width="654.66669"
   height="368"
   viewBox="0 0 654.66669 368"
   sodipodi:docname="densities.svg"
   inkscape:version="0.92.2 (5c3e80d, 2017-08-06)"
   inkscape:export-filename="C:\Users\ncunningham\Google Drive\Statistics Articles\Christmas_reddit\plots\densities.png"
   inkscape:export-xdpi="150.16"
   inkscape:export-ydpi="150.16"><metadata
     id="metadata3412"><rdf:RDF><cc:Work
         rdf:about=""><dc:format>image/svg+xml</dc:format><dc:type
           rdf:resource="http://purl.org/dc/dcmitype/StillImage" /><dc:title /></cc:Work></rdf:RDF></metadata><defs
     id="defs3410"><clipPath
       clipPathUnits="userSpaceOnUse"
       id="clipPath3432"><path
         d="M 24.098,251.973 H 469.262 V 199.664 H 24.098 Z"
         id="path3430"
         inkscape:connector-curvature="0" /></clipPath><clipPath
       clipPathUnits="userSpaceOnUse"
       id="clipPath3476"><path
         d="M 24.098,195.184 H 469.262 V 142.875 H 24.098 Z"
         id="path3474"
         inkscape:connector-curvature="0" /></clipPath><clipPath
       clipPathUnits="userSpaceOnUse"
       id="clipPath3520"><path
         d="M 24.098,138.398 H 469.262 V 86.089 H 24.098 Z"
         id="path3518"
         inkscape:connector-curvature="0" /></clipPath><clipPath
       clipPathUnits="userSpaceOnUse"
       id="clipPath3564"><path
         d="M 468.262,251.973 H 486.52 V 199.664 H 468.262 Z"
         id="path3562"
         inkscape:connector-curvature="0" /></clipPath><clipPath
       clipPathUnits="userSpaceOnUse"
       id="clipPath3576"><path
         d="M 468.262,195.184 H 486.52 V 142.875 H 468.262 Z"
         id="path3574"
         inkscape:connector-curvature="0" /></clipPath><clipPath
       clipPathUnits="userSpaceOnUse"
       id="clipPath3588"><path
         d="M 468.262,138.398 H 486.52 V 86.089 h -18.258 z"
         id="path3586"
         inkscape:connector-curvature="0" /></clipPath><clipPath
       clipPathUnits="userSpaceOnUse"
       id="clipPath1007"><path
         d="M 24.098,251.973 H 469.262 V 199.664 H 24.098 Z"
         id="path1005"
         inkscape:connector-curvature="0" /></clipPath><clipPath
       clipPathUnits="userSpaceOnUse"
       id="clipPath1053"><path
         d="M 24.098,195.184 H 469.262 V 142.875 H 24.098 Z"
         id="path1051"
         inkscape:connector-curvature="0" /></clipPath><clipPath
       clipPathUnits="userSpaceOnUse"
       id="clipPath1099"><path
         d="M 24.098,138.398 H 469.262 V 86.089 H 24.098 Z"
         id="path1097"
         inkscape:connector-curvature="0" /></clipPath></defs><sodipodi:namedview
     pagecolor="#ffffff"
     bordercolor="#666666"
     borderopacity="1"
     objecttolerance="10"
     gridtolerance="10"
     guidetolerance="10"
     inkscape:pageopacity="0"
     inkscape:pageshadow="2"
     inkscape:window-width="1920"
     inkscape:window-height="1017"
     id="namedview3408"
     showgrid="false"
     inkscape:zoom="2.6354488"
     inkscape:cx="218.21773"
     inkscape:cy="42.751204"
     inkscape:window-x="-8"
     inkscape:window-y="-8"
     inkscape:window-maximized="1"
     inkscape:current-layer="g3414" /><g
     id="g3414"
     inkscape:groupmode="layer"
     inkscape:label="densities"
     transform="matrix(1.3333333,0,0,-1.3333333,0,368)"><g
       id="g3416"><path
         d="M 0,0 H 491 V 276 H 0 Z"
         style="fill:#ffffff;fill-opacity:1;fill-rule:nonzero;stroke:none"
         id="path3418"
         inkscape:connector-curvature="0" /></g><g
       id="g3420"
       style="stroke:none"><path
         d="M 0,0 H 491 V 276 H 0 Z"
         style="fill:#eaebef;fill-opacity:1;fill-rule:nonzero;stroke:none"
         id="path3422"
         inkscape:connector-curvature="0" /><path
         d="M 0,276 H 491 V 0 H 0 Z"
         style="fill:none;stroke:none;stroke-width:1.06697798;stroke-linecap:round;stroke-linejoin:round;stroke-miterlimit:10;stroke-dasharray:none;stroke-opacity:1"
         id="path3424"
         inkscape:connector-curvature="0" /></g><text
       transform="scale(1,-1)"
       id="text4173"
       y="-31.497555"
       x="186.00739"
       style="font-style:normal;font-variant:normal;font-weight:normal;font-stretch:normal;font-size:11.00000095px;line-height:1.25;font-family:'Open Sans';-inkscape-font-specification:'Open Sans';letter-spacing:0px;word-spacing:0px;fill:#000000;fill-opacity:1;stroke:none;stroke-width:0.75"
       xml:space="preserve"><tspan
         style="font-size:10px;stroke-width:0.75"
         y="-31.497555"
         x="186.00739"
         id="tspan4171"
         sodipodi:role="line"><tspan
           id="tspan4175"
           style="font-size:10px;fill:#901532;fill-opacity:0.70196078">christmas</tspan><tspan
           id="tspan4177"
           style="font-size:10px;fill:#40566b;fill-opacity:0.70196078">non-christmas</tspan></tspan></text>
<text
       xml:space="preserve"
       style="font-style:normal;font-variant:normal;font-weight:normal;font-stretch:normal;font-size:11.00000095px;line-height:1.25;font-family:'Open Sans';-inkscape-font-specification:'Open Sans';letter-spacing:0px;word-spacing:0px;fill:#000000;fill-opacity:1;stroke:none;stroke-width:0.75"
       x="146.03322"
       y="12.28837"
       id="text4181"
       transform="matrix(0,1,1,0,0,0)"><tspan
         sodipodi:role="line"
         id="tspan4179"
         x="146.03322"
         y="12.28837"
         style="font-size:11.00000028px;fill:#40566b;fill-opacity:1;stroke-width:0.75">Frequency</tspan></text>
<text
       xml:space="preserve"
       style="font-style:normal;font-variant:normal;font-weight:normal;font-stretch:normal;font-size:11.00000095px;line-height:1.25;font-family:'Open Sans';-inkscape-font-specification:'Open Sans';letter-spacing:0px;word-spacing:0px;fill:#000000;fill-opacity:1;stroke:none;stroke-width:0.75"
       x="155.26826"
       y="-62.634369"
       id="text4181-1"
       transform="scale(1,-1)"><tspan
         sodipodi:role="line"
         id="tspan4179-1"
         x="155.26826"
         y="-62.634369"
         style="font-size:11px;fill:#40566b;fill-opacity:1;stroke-width:0.75">Mentions (std. deviations +/- mean)</tspan></text>
<text
       xml:space="preserve"
       style="font-style:normal;font-variant:normal;font-weight:normal;font-stretch:normal;font-size:9px;line-height:1.25;font-family:'Open Sans';-inkscape-font-specification:'Open Sans';font-variant-ligatures:normal;font-variant-position:normal;font-variant-caps:normal;font-variant-numeric:normal;font-variant-alternates:normal;font-feature-settings:normal;text-indent:0;text-align:start;text-decoration:none;text-decoration-line:none;text-decoration-style:solid;text-decoration-color:#000000;letter-spacing:0px;word-spacing:0px;text-transform:none;writing-mode:lr-tb;direction:ltr;text-orientation:mixed;dominant-baseline:auto;baseline-shift:baseline;text-anchor:start;white-space:normal;shape-padding:0;opacity:1;vector-effect:none;fill:#40566b;fill-opacity:1;stroke:none;stroke-width:0.75;stroke-linecap:butt;stroke-linejoin:miter;stroke-miterlimit:4;stroke-dasharray:none;stroke-dashoffset:0;stroke-opacity:1"
       x="-125.19321"
       y="-473.85159"
       id="text4181-12"
       transform="matrix(0,-1,-1,0,0,0)"><tspan
         sodipodi:role="line"
         id="tspan4179-8"
         x="-125.19321"
         y="-473.85159"
         style="font-style:normal;font-variant:normal;font-weight:normal;font-stretch:normal;font-size:9px;line-height:1.25;font-family:'Open Sans';-inkscape-font-specification:'Open Sans';font-variant-ligatures:normal;font-variant-position:normal;font-variant-caps:normal;font-variant-numeric:normal;font-variant-alternates:normal;font-feature-settings:normal;text-indent:0;text-align:start;text-decoration:none;text-decoration-line:none;text-decoration-style:solid;text-decoration-color:#000000;letter-spacing:0px;word-spacing:0px;text-transform:none;writing-mode:lr-tb;direction:ltr;text-orientation:mixed;dominant-baseline:auto;baseline-shift:baseline;text-anchor:start;white-space:normal;shape-padding:0;vector-effect:none;fill:#40566b;fill-opacity:1;stroke:none;stroke-width:0.75;stroke-linecap:butt;stroke-linejoin:miter;stroke-miterlimit:4;stroke-dasharray:none;stroke-dashoffset:0;stroke-opacity:1">Santa</tspan></text>
<text
       xml:space="preserve"
       style="font-style:normal;font-variant:normal;font-weight:normal;font-stretch:normal;font-size:9px;line-height:1.25;font-family:'Open Sans';-inkscape-font-specification:'Open Sans';font-variant-ligatures:normal;font-variant-position:normal;font-variant-caps:normal;font-variant-numeric:normal;font-variant-alternates:normal;font-feature-settings:normal;text-indent:0;text-align:start;text-decoration:none;text-decoration-line:none;text-decoration-style:solid;text-decoration-color:#000000;letter-spacing:0px;word-spacing:0px;text-transform:none;writing-mode:lr-tb;direction:ltr;text-orientation:mixed;dominant-baseline:auto;baseline-shift:baseline;text-anchor:start;white-space:normal;shape-padding:0;opacity:1;vector-effect:none;fill:#40566b;fill-opacity:1;stroke:none;stroke-width:0.75;stroke-linecap:butt;stroke-linejoin:miter;stroke-miterlimit:4;stroke-dasharray:none;stroke-dashoffset:0;stroke-opacity:1"
       x="-180.69321"
       y="-473.85159"
       id="text4181-12-4"
       transform="matrix(0,-1,-1,0,0,0)"><tspan
         sodipodi:role="line"
         id="tspan4179-8-5"
         x="-180.69321"
         y="-473.85159"
         style="font-style:normal;font-variant:normal;font-weight:normal;font-stretch:normal;font-size:9px;line-height:1.25;font-family:'Open Sans';-inkscape-font-specification:'Open Sans';font-variant-ligatures:normal;font-variant-position:normal;font-variant-caps:normal;font-variant-numeric:normal;font-variant-alternates:normal;font-feature-settings:normal;text-indent:0;text-align:start;text-decoration:none;text-decoration-line:none;text-decoration-style:solid;text-decoration-color:#000000;letter-spacing:0px;word-spacing:0px;text-transform:none;writing-mode:lr-tb;direction:ltr;text-orientation:mixed;dominant-baseline:auto;baseline-shift:baseline;text-anchor:start;white-space:normal;shape-padding:0;vector-effect:none;fill:#40566b;fill-opacity:1;stroke:none;stroke-width:0.75;stroke-linecap:butt;stroke-linejoin:miter;stroke-miterlimit:4;stroke-dasharray:none;stroke-dashoffset:0;stroke-opacity:1">Gifts</tspan></text>
<text
       xml:space="preserve"
       style="font-style:normal;font-variant:normal;font-weight:normal;font-stretch:normal;font-size:9px;line-height:1.25;font-family:'Open Sans';-inkscape-font-specification:'Open Sans';font-variant-ligatures:normal;font-variant-position:normal;font-variant-caps:normal;font-variant-numeric:normal;font-variant-alternates:normal;font-feature-settings:normal;text-indent:0;text-align:start;text-decoration:none;text-decoration-line:none;text-decoration-style:solid;text-decoration-color:#000000;letter-spacing:0px;word-spacing:0px;text-transform:none;writing-mode:lr-tb;direction:ltr;text-orientation:mixed;dominant-baseline:auto;baseline-shift:baseline;text-anchor:start;white-space:normal;shape-padding:0;opacity:1;vector-effect:none;fill:#40566b;fill-opacity:1;stroke:none;stroke-width:0.75;stroke-linecap:butt;stroke-linejoin:miter;stroke-miterlimit:4;stroke-dasharray:none;stroke-dashoffset:0;stroke-opacity:1"
       x="-248.19321"
       y="-473.85159"
       id="text4181-12-4-0"
       transform="matrix(0,-1,-1,0,0,0)"><tspan
         sodipodi:role="line"
         id="tspan4179-8-5-1"
         x="-248.19321"
         y="-473.85159"
         style="font-style:normal;font-variant:normal;font-weight:normal;font-stretch:normal;font-size:9px;line-height:1.25;font-family:'Open Sans';-inkscape-font-specification:'Open Sans';font-variant-ligatures:normal;font-variant-position:normal;font-variant-caps:normal;font-variant-numeric:normal;font-variant-alternates:normal;font-feature-settings:normal;text-indent:0;text-align:start;text-decoration:none;text-decoration-line:none;text-decoration-style:solid;text-decoration-color:#000000;letter-spacing:0px;word-spacing:0px;text-transform:none;writing-mode:lr-tb;direction:ltr;text-orientation:mixed;dominant-baseline:auto;baseline-shift:baseline;text-anchor:start;white-space:normal;shape-padding:0;vector-effect:none;fill:#40566b;fill-opacity:1;stroke:none;stroke-width:0.75;stroke-linecap:butt;stroke-linejoin:miter;stroke-miterlimit:4;stroke-dasharray:none;stroke-dashoffset:0;stroke-opacity:1">Christmas</tspan></text>
<text
       xml:space="preserve"
       style="font-style:normal;font-variant:normal;font-weight:normal;font-stretch:normal;font-size:11.00000095px;line-height:1.25;font-family:'Open Sans';-inkscape-font-specification:'Open Sans';letter-spacing:0px;word-spacing:0px;fill:#000000;fill-opacity:1;stroke:none;stroke-width:0.75"
       x="148.28654"
       y="-8.2922277"
       id="text4181-1-8"
       transform="scale(1,-1)"><tspan
         sodipodi:role="line"
         id="tspan4179-1-2"
         x="148.28654"
         y="-8.2922277"
         style="font-size:10px;fill:#40566b;fill-opacity:1;stroke-width:0.75">Source: nathancunn.com (@nathcun); data: reddit (via fivethirtyeight)</tspan></text>
<text
       xml:space="preserve"
       style="font-style:normal;font-variant:normal;font-weight:normal;font-stretch:normal;font-size:11.00000095px;line-height:1.25;font-family:'Open Sans';-inkscape-font-specification:'Open Sans';letter-spacing:0px;word-spacing:0px;fill:#000000;fill-opacity:1;stroke:none;stroke-width:0.75"
       x="24.879166"
       y="-261.90207"
       id="text4181-1-86"
       transform="scale(1,-1)"><tspan
         sodipodi:role="line"
         id="tspan4179-1-3"
         x="24.879166"
         y="-261.90207"
         style="font-style:normal;font-variant:normal;font-weight:bold;font-stretch:normal;font-size:13px;font-family:Roboto;-inkscape-font-specification:'Roboto Bold';fill:#40566b;fill-opacity:1;stroke-width:0.75">How does Reddit speak during vs before Christmas (2016)</tspan></text>
<g
       transform="translate(0.0242506,-0.01320038)"
       id="g1001"><g
         id="g1003"
         clip-path="url(#clipPath1007)"><path
           d="M 24.098,251.973 H 468.262 V 200.664 H 24.098 Z"
           style="fill:#eaebef;fill-opacity:1;fill-rule:nonzero;stroke:#eaebef;stroke-width:1.06697798;stroke-linecap:round;stroke-linejoin:round;stroke-miterlimit:10;stroke-dasharray:none;stroke-opacity:1"
           id="path1009"
           inkscape:connector-curvature="0" /><path
           d="M 24.098,209.387 H 468.262"
           style="fill:none;stroke:#cad1db;stroke-width:0.53348899;stroke-linecap:butt;stroke-linejoin:round;stroke-miterlimit:10;stroke-dasharray:none;stroke-opacity:1"
           id="path1011"
           inkscape:connector-curvature="0" /><path
           d="M 24.098,222.164 H 468.262"
           style="fill:none;stroke:#cad1db;stroke-width:0.53348899;stroke-linecap:butt;stroke-linejoin:round;stroke-miterlimit:10;stroke-dasharray:none;stroke-opacity:1"
           id="path1013"
           inkscape:connector-curvature="0" /><path
           d="M 24.098,234.941 H 468.262"
           style="fill:none;stroke:#cad1db;stroke-width:0.53348899;stroke-linecap:butt;stroke-linejoin:round;stroke-miterlimit:10;stroke-dasharray:none;stroke-opacity:1"
           id="path1015"
           inkscape:connector-curvature="0" /><path
           d="M 24.098,247.723 H 468.262"
           style="fill:none;stroke:#cad1db;stroke-width:0.53348899;stroke-linecap:butt;stroke-linejoin:round;stroke-miterlimit:10;stroke-dasharray:none;stroke-opacity:1"
           id="path1017"
           inkscape:connector-curvature="0" /><path
           d="m 46.434,200.664 v 51.309"
           style="fill:none;stroke:#cad1db;stroke-width:0.53348899;stroke-linecap:butt;stroke-linejoin:round;stroke-miterlimit:10;stroke-dasharray:none;stroke-opacity:1"
           id="path1019"
           inkscape:connector-curvature="0" /><path
           d="m 152.359,200.664 v 51.309"
           style="fill:none;stroke:#cad1db;stroke-width:0.53348899;stroke-linecap:butt;stroke-linejoin:round;stroke-miterlimit:10;stroke-dasharray:none;stroke-opacity:1"
           id="path1021"
           inkscape:connector-curvature="0" /><path
           d="m 258.285,200.664 v 51.309"
           style="fill:none;stroke:#cad1db;stroke-width:0.53348899;stroke-linecap:butt;stroke-linejoin:round;stroke-miterlimit:10;stroke-dasharray:none;stroke-opacity:1"
           id="path1023"
           inkscape:connector-curvature="0" /><path
           d="m 364.211,200.664 v 51.309"
           style="fill:none;stroke:#cad1db;stroke-width:0.53348899;stroke-linecap:butt;stroke-linejoin:round;stroke-miterlimit:10;stroke-dasharray:none;stroke-opacity:1"
           id="path1025"
           inkscape:connector-curvature="0" /><path
           d="M 24.098,202.996 H 468.262"
           style="fill:none;stroke:#cad1db;stroke-width:1.06697798;stroke-linecap:butt;stroke-linejoin:round;stroke-miterlimit:10;stroke-dasharray:none;stroke-opacity:1"
           id="path1027"
           inkscape:connector-curvature="0" /><path
           d="M 24.098,215.773 H 468.262"
           style="fill:none;stroke:#cad1db;stroke-width:1.06697798;stroke-linecap:butt;stroke-linejoin:round;stroke-miterlimit:10;stroke-dasharray:none;stroke-opacity:1"
           id="path1029"
           inkscape:connector-curvature="0" /><path
           d="M 24.098,228.555 H 468.262"
           style="fill:none;stroke:#cad1db;stroke-width:1.06697798;stroke-linecap:butt;stroke-linejoin:round;stroke-miterlimit:10;stroke-dasharray:none;stroke-opacity:1"
           id="path1031"
           inkscape:connector-curvature="0" /><path
           d="M 24.098,241.332 H 468.262"
           style="fill:none;stroke:#cad1db;stroke-width:1.06697798;stroke-linecap:butt;stroke-linejoin:round;stroke-miterlimit:10;stroke-dasharray:none;stroke-opacity:1"
           id="path1033"
           inkscape:connector-curvature="0" /><path
           d="m 99.395,200.664 v 51.309"
           style="fill:none;stroke:#cad1db;stroke-width:1.06697798;stroke-linecap:butt;stroke-linejoin:round;stroke-miterlimit:10;stroke-dasharray:none;stroke-opacity:1"
           id="path1035"
           inkscape:connector-curvature="0" /><path
           d="m 205.32,200.664 v 51.309"
           style="fill:none;stroke:#cad1db;stroke-width:1.06697798;stroke-linecap:butt;stroke-linejoin:round;stroke-miterlimit:10;stroke-dasharray:none;stroke-opacity:1"
           id="path1037"
           inkscape:connector-curvature="0" /><path
           d="m 311.246,200.664 v 51.309"
           style="fill:none;stroke:#cad1db;stroke-width:1.06697798;stroke-linecap:butt;stroke-linejoin:round;stroke-miterlimit:10;stroke-dasharray:none;stroke-opacity:1"
           id="path1039"
           inkscape:connector-curvature="0" /><path
           d="m 417.172,200.664 v 51.309"
           style="fill:none;stroke:#cad1db;stroke-width:1.06697798;stroke-linecap:butt;stroke-linejoin:round;stroke-miterlimit:10;stroke-dasharray:none;stroke-opacity:1"
           id="path1041"
           inkscape:connector-curvature="0" /><path
           d="M 44.289,202.996 H 56.93 l 0.789,0.004 0.793,0.008 0.789,0.023 0.789,0.051 0.793,0.121 0.789,0.25 0.789,0.481 0.789,0.847 0.793,1.379 0.789,2.09 0.789,2.922 0.793,3.801 0.789,4.57 0.789,5.082 0.789,5.168 0.793,4.777 0.789,3.961 0.789,2.832 0.793,1.555 0.789,0.312 0.789,-0.738 0.793,-1.508 0.789,-1.968 0.79,-2.192 0.789,-2.261 0.793,-2.278 0.789,-2.308 0.789,-2.375 0.793,-2.45 0.789,-2.468 0.789,-2.379 0.789,-2.141 0.793,-1.758 0.789,-1.304 0.789,-0.86 0.793,-0.562 0.789,-0.438 0.789,-0.449 0.789,-0.523 0.793,-0.594 0.789,-0.594 0.789,-0.527 0.793,-0.422 0.789,-0.32 0.789,-0.247 0.789,-0.214 0.793,-0.211 0.789,-0.227 0.789,-0.246 0.793,-0.27 0.789,-0.293 0.79,-0.324 0.789,-0.34 0.793,-0.343 0.789,-0.309 0.789,-0.262 0.793,-0.211 0.789,-0.195 0.789,-0.203 0.789,-0.242 0.793,-0.27 0.789,-0.273 0.789,-0.231 0.793,-0.14 0.789,-0.02 0.789,0.113 0.789,0.227 0.793,0.301 0.789,0.32 0.789,0.262 0.793,0.152 h 0.789 l 0.789,-0.156 0.789,-0.277 0.793,-0.348 0.789,-0.356 0.789,-0.32 0.793,-0.258 0.789,-0.203 0.79,-0.152 0.789,-0.125 0.793,-0.109 0.789,-0.11 0.789,-0.113 0.793,-0.117 0.789,-0.118 0.789,-0.105 0.793,-0.086 0.789,-0.066 0.789,-0.047 0.789,-0.028 0.793,-0.015 0.789,-0.008 0.789,-0.004 h 88.5 l 0.793,0.004 0.789,0.008 0.789,0.015 0.793,0.024 0.789,0.039 0.789,0.055 0.793,0.066 0.789,0.074 0.789,0.063 0.789,0.043 0.793,0.011 0.789,-0.027 0.789,-0.055 0.793,-0.074 0.79,-0.07 0.789,-0.063 0.789,-0.046 0.793,-0.032 0.789,-0.015 0.789,-0.012 0.793,-0.004 0.789,-0.004 h 210.98 z"
           style="fill:#40566b;fill-opacity:0.70196096;fill-rule:nonzero;stroke:none"
           id="path1043"
           inkscape:connector-curvature="0" /><path
           d="M 44.289,202.996 H 59.301 L 60.09,203 h 3.953 l 0.789,0.004 h 1.582 l 0.789,0.004 h 0.789 l 0.789,0.004 h 0.793 l 1.578,0.008 h 0.793 l 1.578,0.007 0.793,0.008 0.789,0.004 0.79,0.008 0.789,0.004 0.793,0.008 0.789,0.007 0.789,0.012 0.793,0.008 1.578,0.023 0.789,0.016 0.793,0.012 0.789,0.015 0.789,0.02 0.793,0.019 0.789,0.02 1.578,0.047 0.793,0.027 1.578,0.063 0.793,0.031 0.789,0.035 1.578,0.078 0.793,0.047 0.789,0.043 0.789,0.051 0.793,0.051 0.789,0.054 1.579,0.117 0.793,0.063 0.789,0.066 0.789,0.071 0.793,0.07 1.578,0.148 0.789,0.082 0.793,0.083 1.578,0.171 0.793,0.09 0.789,0.09 1.578,0.188 0.793,0.093 1.578,0.196 0.793,0.101 0.789,0.098 1.578,0.203 0.793,0.098 0.789,0.101 0.789,0.098 0.793,0.101 1.579,0.196 0.789,0.093 0.793,0.094 0.789,0.094 0.789,0.09 0.793,0.086 1.578,0.172 0.793,0.082 0.789,0.078 1.578,0.148 0.793,0.071 0.789,0.07 0.789,0.066 0.793,0.063 1.578,0.117 0.789,0.055 0.793,0.054 0.789,0.051 0.789,0.047 0.793,0.047 1.578,0.086 0.789,0.039 0.793,0.043 0.789,0.035 0.79,0.039 0.793,0.035 1.578,0.071 0.789,0.031 0.793,0.035 1.578,0.062 0.793,0.036 0.789,0.031 0.789,0.035 0.789,0.031 0.793,0.035 0.789,0.032 0.789,0.035 0.793,0.035 2.367,0.105 0.793,0.036 0.789,0.039 0.789,0.035 0.793,0.039 1.578,0.07 0.789,0.039 0.793,0.035 1.579,0.071 0.793,0.035 2.367,0.094 0.793,0.027 0.789,0.027 0.789,0.024 0.793,0.023 0.789,0.02 0.789,0.015 0.793,0.012 0.789,0.012 0.789,0.008 h 1.582 l 0.789,-0.004 0.789,-0.008 0.793,-0.012 1.578,-0.039 0.789,-0.027 0.793,-0.032 0.789,-0.031 0.789,-0.043 0.793,-0.043 0.789,-0.047 1.579,-0.109 0.793,-0.062 1.578,-0.133 0.793,-0.074 0.789,-0.075 0.789,-0.078 0.789,-0.082 0.793,-0.086 0.789,-0.086 0.789,-0.09 0.793,-0.093 0.789,-0.09 0.789,-0.094 0.789,-0.098 0.793,-0.093 1.578,-0.196 0.793,-0.093 0.789,-0.098 0.789,-0.094 0.789,-0.097 0.793,-0.09 0.789,-0.094 0.789,-0.09 0.793,-0.09 1.578,-0.172 0.79,-0.082 0.793,-0.078 1.578,-0.156 0.793,-0.07 0.789,-0.071 1.578,-0.132 0.793,-0.059 1.578,-0.117 0.793,-0.055 0.789,-0.051 1.578,-0.093 0.793,-0.043 1.578,-0.079 0.793,-0.035 1.578,-0.07 0.793,-0.031 2.367,-0.082 0.793,-0.024 1.578,-0.047 0.793,-0.019 2.368,-0.059 0.793,-0.019 0.789,-0.02 0.789,-0.015 0.793,-0.02 0.789,-0.016 0.789,-0.019 0.789,-0.016 0.793,-0.019 1.578,-0.039 0.793,-0.02 1.578,-0.039 0.789,-0.023 0.793,-0.024 1.578,-0.047 0.793,-0.027 0.789,-0.023 0.789,-0.028 0.789,-0.031 0.793,-0.027 1.578,-0.063 0.793,-0.035 0.79,-0.031 1.578,-0.071 0.793,-0.039 0.789,-0.035 0.789,-0.039 0.793,-0.039 2.367,-0.117 0.793,-0.043 0.789,-0.039 0.789,-0.043 0.793,-0.039 0.789,-0.039 0.789,-0.043 0.789,-0.039 0.793,-0.039 1.578,-0.078 0.793,-0.04 0.789,-0.039 1.578,-0.07 0.793,-0.035 1.578,-0.063 0.793,-0.031 0.79,-0.031 0.789,-0.027 0.793,-0.028 2.367,-0.07 0.793,-0.024 0.789,-0.019 0.789,-0.016 0.793,-0.015 0.789,-0.016 1.578,-0.023 0.793,-0.012 1.578,-0.016 0.793,-0.008 1.578,-0.007 h 0.789 l 0.793,-0.004 0.789,0.004 h 1.582 l 1.578,0.007 0.789,0.008 0.793,0.004 0.79,0.008 0.789,0.004 0.793,0.008 2.367,0.023 0.793,0.008 0.789,0.012 0.789,0.008 0.793,0.007 2.367,0.024 0.793,0.008 0.789,0.007 0.789,0.004 0.793,0.008 2.367,0.012 0.793,0.004 h 0.789 l 0.789,0.004 h 2.371 l 0.789,-0.004 0.793,-0.004 1.579,-0.008 0.793,-0.004 0.789,-0.004 0.789,-0.008 0.793,-0.007 1.578,-0.016 0.789,-0.012 0.793,-0.008 0.789,-0.011 0.789,-0.008 0.793,-0.012 0.789,-0.012 0.789,-0.007 0.789,-0.012 0.793,-0.012 1.578,-0.023 0.793,-0.012 0.789,-0.012 0.789,-0.007 0.789,-0.012 0.793,-0.012 0.789,-0.008 0.789,-0.011 0.793,-0.008 0.789,-0.012 1.579,-0.016 0.793,-0.007 1.578,-0.016 0.793,-0.008 0.789,-0.008 0.789,-0.004 0.789,-0.007 0.793,-0.004 0.789,-0.008 0.789,-0.004 0.793,-0.004 2.367,-0.012 0.793,-0.004 0.789,-0.003 h 0.789 l 0.793,-0.004 h 0.789 l 0.789,-0.004 h 0.789 l 0.793,-0.004 h 0.789 l 0.789,-0.004 h 2.372 L 365.102,203 h 15.804 l 0.793,0.004 h 2.367 l 0.793,0.004 h 1.579 l 0.792,0.004 h 0.79 l 1.578,0.008 h 0.793 l 1.578,0.007 0.793,0.004 2.367,0.012 0.793,0.004 0.789,0.004 0.789,0.008 0.793,0.004 0.789,0.007 0.789,0.004 0.789,0.008 0.793,0.008 1.578,0.015 0.793,0.008 0.789,0.012 1.578,0.016 0.793,0.011 0.789,0.008 0.79,0.012 0.792,0.012 0.79,0.011 0.789,0.008 0.789,0.012 0.793,0.012 1.578,0.023 0.793,0.012 0.789,0.011 0.789,0.008 0.789,0.012 0.793,0.012 0.789,0.008 0.789,0.011 0.793,0.008 1.578,0.016 0.793,0.007 1.578,0.016 0.789,0.004 0.793,0.004 1.578,0.008 h 0.793 l 0.789,0.004 h 0.789 l 0.79,-0.004 h 1.582 l 0.789,-0.004 0.793,-0.004 0.789,-0.008 0.789,-0.004 0.789,-0.008 0.793,-0.004 1.578,-0.015 0.793,-0.012 0.789,-0.008 0.789,-0.011 0.789,-0.008 0.793,-0.012 0.789,-0.012 0.789,-0.007 0.793,-0.012 2.367,-0.035 0.793,-0.012 v -0.215 z"
           style="fill:#901532;fill-opacity:0.70196096;fill-rule:nonzero;stroke:none"
           id="path1045"
           inkscape:connector-curvature="0" /></g></g><g
       transform="translate(0.0242506,-0.01320038)"
       id="g1047"><g
         id="g1049"
         clip-path="url(#clipPath1053)"><path
           d="M 24.098,195.184 H 468.262 V 143.875 H 24.098 Z"
           style="fill:#eaebef;fill-opacity:1;fill-rule:nonzero;stroke:#eaebef;stroke-width:1.06697798;stroke-linecap:round;stroke-linejoin:round;stroke-miterlimit:10;stroke-dasharray:none;stroke-opacity:1"
           id="path1055"
           inkscape:connector-curvature="0" /><path
           d="M 24.098,152.598 H 468.262"
           style="fill:none;stroke:#cad1db;stroke-width:0.53348899;stroke-linecap:butt;stroke-linejoin:round;stroke-miterlimit:10;stroke-dasharray:none;stroke-opacity:1"
           id="path1057"
           inkscape:connector-curvature="0" /><path
           d="M 24.098,165.375 H 468.262"
           style="fill:none;stroke:#cad1db;stroke-width:0.53348899;stroke-linecap:butt;stroke-linejoin:round;stroke-miterlimit:10;stroke-dasharray:none;stroke-opacity:1"
           id="path1059"
           inkscape:connector-curvature="0" /><path
           d="M 24.098,178.156 H 468.262"
           style="fill:none;stroke:#cad1db;stroke-width:0.53348899;stroke-linecap:butt;stroke-linejoin:round;stroke-miterlimit:10;stroke-dasharray:none;stroke-opacity:1"
           id="path1061"
           inkscape:connector-curvature="0" /><path
           d="M 24.098,190.934 H 468.262"
           style="fill:none;stroke:#cad1db;stroke-width:0.53348899;stroke-linecap:butt;stroke-linejoin:round;stroke-miterlimit:10;stroke-dasharray:none;stroke-opacity:1"
           id="path1063"
           inkscape:connector-curvature="0" /><path
           d="m 46.434,143.875 v 51.309"
           style="fill:none;stroke:#cad1db;stroke-width:0.53348899;stroke-linecap:butt;stroke-linejoin:round;stroke-miterlimit:10;stroke-dasharray:none;stroke-opacity:1"
           id="path1065"
           inkscape:connector-curvature="0" /><path
           d="m 152.359,143.875 v 51.309"
           style="fill:none;stroke:#cad1db;stroke-width:0.53348899;stroke-linecap:butt;stroke-linejoin:round;stroke-miterlimit:10;stroke-dasharray:none;stroke-opacity:1"
           id="path1067"
           inkscape:connector-curvature="0" /><path
           d="m 258.285,143.875 v 51.309"
           style="fill:none;stroke:#cad1db;stroke-width:0.53348899;stroke-linecap:butt;stroke-linejoin:round;stroke-miterlimit:10;stroke-dasharray:none;stroke-opacity:1"
           id="path1069"
           inkscape:connector-curvature="0" /><path
           d="m 364.211,143.875 v 51.309"
           style="fill:none;stroke:#cad1db;stroke-width:0.53348899;stroke-linecap:butt;stroke-linejoin:round;stroke-miterlimit:10;stroke-dasharray:none;stroke-opacity:1"
           id="path1071"
           inkscape:connector-curvature="0" /><path
           d="M 24.098,146.207 H 468.262"
           style="fill:none;stroke:#cad1db;stroke-width:1.06697798;stroke-linecap:butt;stroke-linejoin:round;stroke-miterlimit:10;stroke-dasharray:none;stroke-opacity:1"
           id="path1073"
           inkscape:connector-curvature="0" /><path
           d="M 24.098,158.988 H 468.262"
           style="fill:none;stroke:#cad1db;stroke-width:1.06697798;stroke-linecap:butt;stroke-linejoin:round;stroke-miterlimit:10;stroke-dasharray:none;stroke-opacity:1"
           id="path1075"
           inkscape:connector-curvature="0" /><path
           d="M 24.098,171.766 H 468.262"
           style="fill:none;stroke:#cad1db;stroke-width:1.06697798;stroke-linecap:butt;stroke-linejoin:round;stroke-miterlimit:10;stroke-dasharray:none;stroke-opacity:1"
           id="path1077"
           inkscape:connector-curvature="0" /><path
           d="M 24.098,184.543 H 468.262"
           style="fill:none;stroke:#cad1db;stroke-width:1.06697798;stroke-linecap:butt;stroke-linejoin:round;stroke-miterlimit:10;stroke-dasharray:none;stroke-opacity:1"
           id="path1079"
           inkscape:connector-curvature="0" /><path
           d="m 99.395,143.875 v 51.309"
           style="fill:none;stroke:#cad1db;stroke-width:1.06697798;stroke-linecap:butt;stroke-linejoin:round;stroke-miterlimit:10;stroke-dasharray:none;stroke-opacity:1"
           id="path1081"
           inkscape:connector-curvature="0" /><path
           d="m 205.32,143.875 v 51.309"
           style="fill:none;stroke:#cad1db;stroke-width:1.06697798;stroke-linecap:butt;stroke-linejoin:round;stroke-miterlimit:10;stroke-dasharray:none;stroke-opacity:1"
           id="path1083"
           inkscape:connector-curvature="0" /><path
           d="m 311.246,143.875 v 51.309"
           style="fill:none;stroke:#cad1db;stroke-width:1.06697798;stroke-linecap:butt;stroke-linejoin:round;stroke-miterlimit:10;stroke-dasharray:none;stroke-opacity:1"
           id="path1085"
           inkscape:connector-curvature="0" /><path
           d="m 417.172,143.875 v 51.309"
           style="fill:none;stroke:#cad1db;stroke-width:1.06697798;stroke-linecap:butt;stroke-linejoin:round;stroke-miterlimit:10;stroke-dasharray:none;stroke-opacity:1"
           id="path1087"
           inkscape:connector-curvature="0" /><path
           d="m 44.289,147.176 0.789,0.199 0.789,0.23 0.789,0.258 0.793,0.285 0.789,0.309 0.789,0.328 0.793,0.344 0.789,0.348 0.789,0.355 0.79,0.352 0.792,0.351 0.79,0.356 0.789,0.363 0.793,0.383 0.789,0.414 0.789,0.453 0.789,0.508 0.793,0.558 0.789,0.625 0.789,0.68 0.793,0.734 0.789,0.782 0.789,0.816 0.789,0.828 0.793,0.824 0.789,0.801 0.789,0.758 0.793,0.695 0.789,0.625 0.789,0.535 0.789,0.45 0.793,0.355 0.789,0.27 0.789,0.191 0.793,0.121 0.789,0.067 0.789,0.019 0.793,-0.012 0.789,-0.043 0.79,-0.074 0.789,-0.105 0.793,-0.133 0.789,-0.164 0.789,-0.195 0.793,-0.219 0.789,-0.246 0.789,-0.266 0.789,-0.273 0.793,-0.289 0.789,-0.293 0.789,-0.305 0.793,-0.316 0.789,-0.34 0.789,-0.364 0.789,-0.398 0.793,-0.43 0.789,-0.468 0.789,-0.504 0.793,-0.532 0.789,-0.55 1.578,-1.11 0.793,-0.543 0.789,-0.519 0.789,-0.496 0.793,-0.469 0.789,-0.445 0.79,-0.422 0.789,-0.41 0.793,-0.399 0.789,-0.394 0.789,-0.399 0.793,-0.394 0.789,-0.399 0.789,-0.394 0.789,-0.387 0.793,-0.371 0.789,-0.352 0.789,-0.324 0.793,-0.289 0.789,-0.254 0.789,-0.215 0.789,-0.172 0.793,-0.132 0.789,-0.09 0.789,-0.055 0.793,-0.027 0.789,-0.008 0.789,0.008 0.789,0.015 0.793,0.012 0.789,0.008 0.789,-0.008 0.793,-0.023 0.789,-0.047 0.79,-0.067 0.789,-0.086 0.793,-0.109 0.789,-0.117 0.789,-0.129 0.793,-0.129 0.789,-0.125 0.789,-0.113 0.793,-0.102 0.789,-0.082 0.789,-0.059 0.789,-0.039 0.793,-0.015 h 0.789 l 0.789,0.015 0.793,0.024 1.578,0.055 0.789,0.019 0.793,0.012 h 0.789 l 0.789,-0.016 0.793,-0.023 0.789,-0.035 1.578,-0.094 0.793,-0.047 0.789,-0.047 0.79,-0.043 0.793,-0.039 0.789,-0.031 0.789,-0.028 0.789,-0.019 0.793,-0.016 1.578,-0.015 0.793,-0.008 h 0.789 l 0.789,-0.004 h 5.531 l 0.789,0.004 0.793,0.004 0.789,0.004 0.789,0.007 0.793,0.008 0.789,0.012 0.789,0.016 0.789,0.019 0.793,0.024 1.579,0.046 0.793,0.024 0.789,0.023 0.789,0.02 0.789,0.012 0.793,0.007 h 0.789 l 0.789,-0.007 0.793,-0.012 0.789,-0.02 0.789,-0.023 0.793,-0.024 2.367,-0.07 0.793,-0.019 0.789,-0.016 0.789,-0.012 0.793,-0.008 0.789,-0.007 1.578,-0.008 0.793,-0.004 h 3.16 l 0.789,-0.004 H 448.074 44.289 Z"
           style="fill:#40566b;fill-opacity:0.70196096;fill-rule:nonzero;stroke:none"
           id="path1089"
           inkscape:connector-curvature="0" /><path
           d="m 44.289,146.254 2.367,0.012 0.793,0.004 1.578,0.007 0.793,0.004 0.789,0.008 0.789,0.004 0.79,0.008 0.792,0.008 0.79,0.004 0.789,0.007 0.793,0.008 0.789,0.012 1.578,0.015 0.793,0.012 0.789,0.008 0.789,0.012 0.793,0.011 1.578,0.024 0.789,0.016 0.793,0.011 1.578,0.031 0.793,0.016 0.789,0.016 1.578,0.039 0.793,0.015 0.789,0.024 0.789,0.019 0.793,0.02 1.578,0.047 0.793,0.023 0.789,0.028 0.79,0.023 0.789,0.027 0.793,0.032 0.789,0.027 0.789,0.031 0.793,0.028 0.789,0.035 0.789,0.031 0.789,0.035 0.793,0.035 1.578,0.071 0.793,0.039 2.367,0.117 0.793,0.043 1.578,0.086 0.793,0.043 0.789,0.047 0.789,0.043 0.789,0.046 0.793,0.047 0.789,0.051 0.789,0.047 0.793,0.051 2.368,0.152 0.793,0.051 0.789,0.055 0.789,0.05 0.793,0.051 2.367,0.164 0.793,0.051 1.578,0.109 0.793,0.055 0.789,0.055 0.789,0.05 0.789,0.055 0.793,0.055 0.789,0.051 0.789,0.054 0.793,0.051 0.789,0.051 0.789,0.055 0.789,0.05 0.793,0.047 1.578,0.102 0.793,0.047 2.368,0.14 0.793,0.043 0.789,0.047 0.789,0.043 0.793,0.039 0.789,0.043 0.789,0.039 0.793,0.039 1.578,0.078 0.789,0.036 0.793,0.035 1.578,0.07 0.793,0.031 1.578,0.063 0.789,0.027 0.793,0.027 0.789,0.032 0.789,0.023 0.793,0.027 0.789,0.024 0.789,0.027 0.789,0.02 0.793,0.023 0.789,0.024 0.79,0.019 0.793,0.02 2.367,0.058 0.793,0.016 0.789,0.019 0.789,0.016 0.793,0.016 1.578,0.031 0.789,0.012 0.793,0.015 0.789,0.012 0.789,0.016 0.793,0.011 2.367,0.036 0.793,0.007 1.578,0.024 0.793,0.008 2.367,0.023 0.793,0.008 1.579,0.015 0.793,0.004 2.367,0.012 0.793,0.004 0.789,0.004 h 0.789 l 0.793,0.004 h 1.578 l 0.793,-0.004 h 0.789 l 1.578,-0.008 0.793,-0.004 0.789,-0.004 0.789,-0.008 0.793,-0.007 2.367,-0.024 0.793,-0.011 0.789,-0.012 0.789,-0.016 0.793,-0.012 2.368,-0.046 0.793,-0.02 0.789,-0.016 0.789,-0.019 0.793,-0.024 0.789,-0.019 1.578,-0.047 0.793,-0.023 1.578,-0.047 0.793,-0.028 2.367,-0.082 0.793,-0.027 0.789,-0.031 0.789,-0.028 0.793,-0.031 1.578,-0.062 0.789,-0.028 0.793,-0.035 1.578,-0.062 0.793,-0.032 2.368,-0.093 0.793,-0.035 1.578,-0.063 0.793,-0.031 2.367,-0.094 0.793,-0.031 0.789,-0.028 0.789,-0.031 0.793,-0.027 0.789,-0.031 1.578,-0.055 0.793,-0.027 1.578,-0.055 0.793,-0.027 0.789,-0.024 0.789,-0.027 0.793,-0.024 2.367,-0.07 0.793,-0.02 1.578,-0.046 0.793,-0.02 2.368,-0.059 0.793,-0.019 1.578,-0.039 0.793,-0.02 0.789,-0.015 0.789,-0.02 0.789,-0.015 0.793,-0.02 0.789,-0.016 0.789,-0.019 0.793,-0.016 0.789,-0.019 1.578,-0.032 0.793,-0.019 0.789,-0.016 0.789,-0.019 0.793,-0.016 1.578,-0.039 0.789,-0.016 0.793,-0.019 1.578,-0.039 0.793,-0.02 0.79,-0.019 0.789,-0.024 0.789,-0.019 0.793,-0.02 0.789,-0.023 0.789,-0.02 0.793,-0.023 2.367,-0.07 0.793,-0.024 1.578,-0.047 0.793,-0.023 0.789,-0.028 0.789,-0.023 0.789,-0.027 0.793,-0.024 0.789,-0.027 0.789,-0.024 0.793,-0.027 0.789,-0.027 0.789,-0.024 0.789,-0.027 0.793,-0.027 0.789,-0.028 0.789,-0.023 0.793,-0.027 0.79,-0.028 0.789,-0.023 0.793,-0.028 0.789,-0.023 0.789,-0.027 0.789,-0.024 0.793,-0.027 1.578,-0.047 0.793,-0.023 2.367,-0.071 0.793,-0.023 0.789,-0.024 0.789,-0.019 0.793,-0.024 0.789,-0.019 0.789,-0.024 0.789,-0.019 0.793,-0.02 1.578,-0.039 0.793,-0.015 1.578,-0.039 0.789,-0.016 0.793,-0.02 1.579,-0.031 0.793,-0.015 2.367,-0.047 0.793,-0.016 0.789,-0.016 0.789,-0.011 0.793,-0.016 0.789,-0.016 0.789,-0.011 0.789,-0.016 0.793,-0.012 0.789,-0.011 0.789,-0.016 0.793,-0.012 2.367,-0.035 0.793,-0.012 1.578,-0.023 0.793,-0.012 2.367,-0.035 0.793,-0.008 1.579,-0.023 0.793,-0.008 0.789,-0.012 0.789,-0.007 0.793,-0.012 0.789,-0.008 0.789,-0.012 0.789,-0.007 0.793,-0.008 1.578,-0.016 0.793,-0.008 2.367,-0.023 0.793,-0.008 0.789,-0.008 0.789,-0.004 0.793,-0.008 0.789,-0.003 0.789,-0.008 0.789,-0.004 0.793,-0.004 0.789,-0.004 0.789,-0.008 0.793,-0.004 2.368,-0.011 h 0.793 l 1.578,-0.008 0.793,-0.004 h 0.789 l 0.789,-0.004 h 0.789 l 0.793,-0.004 h 0.789 l 0.789,-0.004 h 0.793 l 0.789,-0.004 h 1.578 l 0.793,-0.004 h 1.578 l 0.793,-0.004 h 0.789 l 0.789,-0.003 h 1.582 l 0.789,-0.004 h 0.789 l 0.793,-0.004 h 1.579 l 0.789,-0.004 0.793,-0.004 h 0.789 l 0.789,-0.004 h 0.793 l 2.367,-0.012 h 0.793 l 1.578,-0.008 0.793,-0.003 1.578,-0.008 0.793,-0.004 2.367,-0.012 0.793,-0.008 1.578,-0.007 0.793,-0.004 0.789,-0.008 1.578,-0.008 0.793,-0.004 0.789,-0.008 0.79,-0.004 0.792,-0.004 0.79,-0.007 0.789,-0.004 0.789,-0.008 0.793,-0.004 0.789,-0.004 0.789,-0.008 0.793,-0.004 0.789,-0.004 0.789,-0.007 0.789,-0.004 0.793,-0.004 0.789,-0.008 0.789,-0.004 0.793,-0.004 0.789,-0.004 0.789,-0.007 0.789,-0.004 0.793,-0.004 1.578,-0.008 0.793,-0.004 2.367,-0.012 0.793,-0.004 1.579,-0.007 0.792,-0.004 h 0.79 l 1.578,-0.008 0.793,-0.004 h 0.789 l 0.789,-0.004 0.793,-0.004 h 0.789 l 0.789,-0.004 h 0.789 l 0.793,-0.004 h 0.789 l 0.789,-0.004 h 0.793 l 0.789,-0.004 h 0.789 l 0.793,-0.003 h 1.578 l 0.789,-0.004 h 2.371 l 0.793,-0.004 h 3.16 l 0.79,-0.004 h 4.742 l 0.789,-0.004 h 10.273 v -0.004 H 44.289 Z"
           style="fill:#901532;fill-opacity:0.70196096;fill-rule:nonzero;stroke:none"
           id="path1091"
           inkscape:connector-curvature="0" /></g></g><g
       transform="translate(0.0242506,-0.01320038)"
       id="g1093"><g
         id="g1095"
         clip-path="url(#clipPath1099)"><path
           d="M 24.098,138.398 H 468.262 V 87.089 H 24.098 Z"
           style="fill:#eaebef;fill-opacity:1;fill-rule:nonzero;stroke:#eaebef;stroke-width:1.06697798;stroke-linecap:round;stroke-linejoin:round;stroke-miterlimit:10;stroke-dasharray:none;stroke-opacity:1"
           id="path1101"
           inkscape:connector-curvature="0" /><path
           d="M 24.098,95.813 H 468.262"
           style="fill:none;stroke:#cad1db;stroke-width:0.53348899;stroke-linecap:butt;stroke-linejoin:round;stroke-miterlimit:10;stroke-dasharray:none;stroke-opacity:1"
           id="path1103"
           inkscape:connector-curvature="0" /><path
           d="M 24.098,108.59 H 468.262"
           style="fill:none;stroke:#cad1db;stroke-width:0.53348899;stroke-linecap:butt;stroke-linejoin:round;stroke-miterlimit:10;stroke-dasharray:none;stroke-opacity:1"
           id="path1105"
           inkscape:connector-curvature="0" /><path
           d="M 24.098,121.367 H 468.262"
           style="fill:none;stroke:#cad1db;stroke-width:0.53348899;stroke-linecap:butt;stroke-linejoin:round;stroke-miterlimit:10;stroke-dasharray:none;stroke-opacity:1"
           id="path1107"
           inkscape:connector-curvature="0" /><path
           d="M 24.098,134.148 H 468.262"
           style="fill:none;stroke:#cad1db;stroke-width:0.53348899;stroke-linecap:butt;stroke-linejoin:round;stroke-miterlimit:10;stroke-dasharray:none;stroke-opacity:1"
           id="path1109"
           inkscape:connector-curvature="0" /><path
           d="m 46.434,87.09 v 51.308"
           style="fill:none;stroke:#cad1db;stroke-width:0.53348899;stroke-linecap:butt;stroke-linejoin:round;stroke-miterlimit:10;stroke-dasharray:none;stroke-opacity:1"
           id="path1111"
           inkscape:connector-curvature="0" /><path
           d="m 152.359,87.09 v 51.308"
           style="fill:none;stroke:#cad1db;stroke-width:0.53348899;stroke-linecap:butt;stroke-linejoin:round;stroke-miterlimit:10;stroke-dasharray:none;stroke-opacity:1"
           id="path1113"
           inkscape:connector-curvature="0" /><path
           d="m 258.285,87.09 v 51.308"
           style="fill:none;stroke:#cad1db;stroke-width:0.53348899;stroke-linecap:butt;stroke-linejoin:round;stroke-miterlimit:10;stroke-dasharray:none;stroke-opacity:1"
           id="path1115"
           inkscape:connector-curvature="0" /><path
           d="m 364.211,87.09 v 51.308"
           style="fill:none;stroke:#cad1db;stroke-width:0.53348899;stroke-linecap:butt;stroke-linejoin:round;stroke-miterlimit:10;stroke-dasharray:none;stroke-opacity:1"
           id="path1117"
           inkscape:connector-curvature="0" /><path
           d="M 24.098,89.422 H 468.262"
           style="fill:none;stroke:#cad1db;stroke-width:1.06697798;stroke-linecap:butt;stroke-linejoin:round;stroke-miterlimit:10;stroke-dasharray:none;stroke-opacity:1"
           id="path1119"
           inkscape:connector-curvature="0" /><path
           d="M 24.098,102.199 H 468.262"
           style="fill:none;stroke:#cad1db;stroke-width:1.06697798;stroke-linecap:butt;stroke-linejoin:round;stroke-miterlimit:10;stroke-dasharray:none;stroke-opacity:1"
           id="path1121"
           inkscape:connector-curvature="0" /><path
           d="M 24.098,114.98 H 468.262"
           style="fill:none;stroke:#cad1db;stroke-width:1.06697798;stroke-linecap:butt;stroke-linejoin:round;stroke-miterlimit:10;stroke-dasharray:none;stroke-opacity:1"
           id="path1123"
           inkscape:connector-curvature="0" /><path
           d="M 24.098,127.758 H 468.262"
           style="fill:none;stroke:#cad1db;stroke-width:1.06697798;stroke-linecap:butt;stroke-linejoin:round;stroke-miterlimit:10;stroke-dasharray:none;stroke-opacity:1"
           id="path1125"
           inkscape:connector-curvature="0" /><path
           d="m 99.395,87.09 v 51.308"
           style="fill:none;stroke:#cad1db;stroke-width:1.06697798;stroke-linecap:butt;stroke-linejoin:round;stroke-miterlimit:10;stroke-dasharray:none;stroke-opacity:1"
           id="path1127"
           inkscape:connector-curvature="0" /><path
           d="m 205.32,87.09 v 51.308"
           style="fill:none;stroke:#cad1db;stroke-width:1.06697798;stroke-linecap:butt;stroke-linejoin:round;stroke-miterlimit:10;stroke-dasharray:none;stroke-opacity:1"
           id="path1129"
           inkscape:connector-curvature="0" /><path
           d="m 311.246,87.09 v 51.308"
           style="fill:none;stroke:#cad1db;stroke-width:1.06697798;stroke-linecap:butt;stroke-linejoin:round;stroke-miterlimit:10;stroke-dasharray:none;stroke-opacity:1"
           id="path1131"
           inkscape:connector-curvature="0" /><path
           d="m 417.172,87.09 v 51.308"
           style="fill:none;stroke:#cad1db;stroke-width:1.06697798;stroke-linecap:butt;stroke-linejoin:round;stroke-miterlimit:10;stroke-dasharray:none;stroke-opacity:1"
           id="path1133"
           inkscape:connector-curvature="0" /><path
           d="m 44.289,89.422 h 22.125 l 0.789,0.004 0.789,0.008 0.789,0.027 0.793,0.078 0.789,0.168 0.789,0.332 0.793,0.574 0.789,0.887 0.789,1.273 0.793,1.735 0.789,2.254 0.79,2.804 0.789,3.379 0.793,3.965 0.789,4.574 0.789,5.149 0.793,5.488 0.789,5.293 0.789,4.344 0.789,2.863 0.793,1.317 0.789,0.128 0.789,-0.675 0.793,-1.309 0.789,-1.945 0.789,-2.582 0.789,-3.067 0.793,-3.3 0.789,-3.27 0.789,-3.063 0.793,-2.875 0.789,-2.871 0.789,-3.035 0.789,-3.086 0.793,-2.761 0.789,-2.059 0.789,-1.293 0.793,-0.824 0.789,-0.742 0.79,-0.871 0.789,-0.993 0.793,-1 0.789,-0.906 0.789,-0.758 0.793,-0.605 0.789,-0.473 0.789,-0.328 0.789,-0.152 0.793,0.031 0.789,0.144 0.789,0.153 0.793,0.07 0.789,-0.023 0.789,-0.102 0.789,-0.168 0.793,-0.246 0.789,-0.344 0.789,-0.386 0.793,-0.34 0.789,-0.203 0.789,-0.028 0.789,0.133 0.793,0.231 0.789,0.226 0.789,0.125 0.793,-0.039 0.789,-0.18 0.79,-0.234 0.789,-0.195 0.793,-0.078 0.789,0.035 0.789,0.101 0.793,0.086 0.789,0.004 0.789,-0.094 0.793,-0.152 0.789,-0.145 0.789,-0.097 0.789,-0.055 0.793,-0.019 0.789,-0.008 0.789,-0.004 h 316.867 z"
           style="fill:#40566b;fill-opacity:0.70196096;fill-rule:nonzero;stroke:none"
           id="path1135"
           inkscape:connector-curvature="0" /><path
           d="m 44.289,89.426 h 4.738 l 0.793,0.004 h 1.578 l 0.79,0.004 h 1.582 l 0.789,0.004 0.793,0.003 h 0.789 l 1.578,0.008 0.793,0.004 1.578,0.008 0.793,0.008 0.789,0.004 1.578,0.015 0.793,0.008 0.789,0.012 0.789,0.008 0.793,0.011 0.789,0.016 0.789,0.012 0.789,0.015 0.793,0.02 1.578,0.039 0.793,0.023 0.789,0.024 0.789,0.027 0.793,0.027 1.579,0.063 0.789,0.035 0.793,0.039 0.789,0.039 0.789,0.047 0.793,0.047 0.789,0.047 1.578,0.109 0.793,0.059 1.578,0.125 0.793,0.07 0.789,0.07 0.789,0.075 0.789,0.078 0.793,0.082 1.578,0.172 0.793,0.09 1.578,0.187 0.789,0.098 0.793,0.101 1.578,0.211 0.793,0.106 2.368,0.328 0.793,0.113 0.789,0.113 0.789,0.11 0.793,0.113 1.578,0.227 0.789,0.109 0.793,0.113 0.789,0.106 0.789,0.109 0.793,0.106 0.789,0.101 1.578,0.195 0.793,0.098 0.789,0.09 0.789,0.086 0.793,0.086 0.789,0.078 1.578,0.148 0.793,0.067 0.789,0.062 0.789,0.059 0.793,0.051 0.789,0.05 0.79,0.047 0.789,0.039 0.793,0.036 0.789,0.031 0.789,0.027 0.793,0.024 0.789,0.019 0.789,0.016 0.793,0.011 1.578,0.016 h 0.789 l 0.793,0.004 0.789,-0.004 h 0.789 L 132,94.66 l 0.789,-0.008 0.789,-0.004 0.789,-0.007 0.793,-0.004 0.789,-0.008 0.789,-0.004 h 0.793 l 0.789,-0.004 h 0.789 l 0.789,0.004 0.793,0.008 0.789,0.008 0.79,0.011 0.793,0.016 0.789,0.02 1.578,0.046 0.793,0.032 1.578,0.078 0.793,0.043 0.789,0.047 1.578,0.109 0.793,0.059 0.789,0.062 0.789,0.07 0.793,0.071 0.789,0.07 0.789,0.078 0.789,0.074 0.793,0.082 0.789,0.079 0.789,0.082 0.793,0.082 1.578,0.164 0.789,0.078 0.793,0.078 0.789,0.078 0.79,0.07 0.793,0.075 1.578,0.125 0.789,0.058 0.793,0.055 0.789,0.047 0.789,0.039 0.793,0.035 0.789,0.031 0.789,0.02 0.793,0.011 0.789,0.008 h 0.789 l 0.789,-0.008 0.793,-0.015 0.789,-0.024 0.789,-0.031 0.793,-0.039 0.789,-0.047 0.789,-0.055 0.789,-0.062 0.793,-0.066 0.789,-0.079 0.789,-0.082 0.793,-0.089 0.789,-0.098 0.789,-0.102 0.79,-0.105 0.793,-0.113 0.789,-0.118 0.789,-0.121 0.793,-0.129 0.789,-0.128 0.789,-0.133 0.789,-0.137 0.793,-0.137 1.578,-0.281 0.793,-0.145 0.789,-0.14 1.578,-0.289 0.793,-0.145 1.578,-0.289 0.793,-0.14 1.578,-0.282 0.789,-0.136 0.793,-0.137 1.578,-0.266 0.793,-0.129 0.789,-0.125 1.579,-0.242 0.793,-0.117 0.789,-0.117 0.789,-0.11 0.793,-0.109 0.789,-0.105 0.789,-0.102 0.789,-0.098 0.793,-0.097 1.578,-0.18 0.793,-0.086 0.789,-0.086 1.578,-0.156 0.793,-0.074 1.578,-0.141 0.793,-0.066 0.789,-0.063 0.789,-0.058 0.793,-0.059 1.578,-0.109 0.789,-0.051 0.793,-0.047 0.789,-0.047 0.789,-0.043 0.793,-0.039 1.579,-0.078 0.789,-0.035 0.793,-0.032 1.578,-0.062 0.793,-0.027 0.789,-0.028 1.578,-0.047 0.793,-0.023 1.578,-0.039 0.793,-0.016 0.789,-0.019 0.789,-0.016 0.789,-0.012 0.793,-0.015 1.578,-0.024 0.793,-0.007 0.789,-0.012 1.578,-0.016 0.793,-0.008 0.789,-0.004 0.789,-0.007 0.793,-0.004 0.79,-0.008 1.578,-0.008 0.793,-0.004 0.789,-0.004 h 0.789 l 0.793,-0.004 0.789,-0.003 h 0.789 l 0.789,-0.004 h 1.582 l 0.789,-0.004 h 1.582 l 0.789,-0.004 h 4.742 l 0.789,-0.004 h 123.27 l 0.789,0.004 h 4.742 l 0.789,0.004 h 2.371 l 0.793,0.004 h 1.578 l 0.789,0.004 h 0.793 l 1.579,0.007 h 0.792 l 2.368,0.012 0.793,0.004 1.578,0.008 0.793,0.004 0.789,0.007 1.578,0.008 0.793,0.008 1.578,0.016 0.793,0.008 1.578,0.015 0.793,0.008 0.789,0.012 0.789,0.008 0.789,0.011 0.793,0.008 1.578,0.023 0.793,0.012 2.368,0.035 0.792,0.012 1.579,0.024 0.793,0.011 1.578,0.024 0.789,0.007 0.793,0.012 0.789,0.012 0.789,0.008 0.793,0.011 2.367,0.024 0.793,0.004 0.789,0.008 0.789,0.004 0.793,0.003 1.578,0.008 h 1.582 V 89.422 H 44.289 Z"
           style="fill:#901532;fill-opacity:0.70196096;fill-rule:nonzero;stroke:none"
           id="path1137"
           inkscape:connector-curvature="0" /></g></g><text
       id="text1179"
       style="font-variant:normal;font-weight:normal;font-size:8.80000019px;font-family:Arial;-inkscape-font-specification:ArialMT;writing-mode:lr-tb;fill:#4d4d4d;fill-opacity:1;fill-rule:nonzero;stroke:none;stroke-width:0.99999994"
       x="96.973488"
       y="-75.846191"
       transform="scale(1,-1)"><tspan
         style="stroke-width:0.99999994;-inkscape-font-specification:'Open Sans';font-family:'Open Sans';font-weight:normal;font-style:normal;font-stretch:normal;font-variant:normal"
         id="tspan1177"
         sodipodi:role="line"
         y="-75.846191"
         x="96.973488 202.89931 308.82495 414.75073">0246</tspan></text>
</g></svg>