<?xml version="1.0" encoding="UTF-8" standalone="no"?>
<svg
   xmlns:dc="http://purl.org/dc/elements/1.1/"
   xmlns:cc="http://creativecommons.org/ns#"
   xmlns:rdf="http://www.w3.org/1999/02/22-rdf-syntax-ns#"
   xmlns:svg="http://www.w3.org/2000/svg"
   xmlns="http://www.w3.org/2000/svg"
   xmlns:sodipodi="http://sodipodi.sourceforge.net/DTD/sodipodi-0.dtd"
   xmlns:inkscape="http://www.inkscape.org/namespaces/inkscape"
   viewBox="0 0 654.66669 368"
   height="368"
   width="654.66669"
   xml:space="preserve"
   id="svg815"
   version="1.1"
   sodipodi:docname="christmas.svg"
   inkscape:version="0.92.2 (5c3e80d, 2017-08-06)"
   inkscape:export-filename="C:\Users\ncunningham\Google Drive\Statistics Articles\Christmas_spirit\plots\christmas_sprits.png"
   inkscape:export-xdpi="150.15886"
   inkscape:export-ydpi="150.15886"><sodipodi:namedview
     pagecolor="#ffffff"
     bordercolor="#666666"
     borderopacity="1"
     objecttolerance="10"
     gridtolerance="10"
     guidetolerance="10"
     inkscape:pageopacity="0"
     inkscape:pageshadow="2"
     inkscape:window-width="1920"
     inkscape:window-height="1017"
     id="namedview876"
     showgrid="false"
     inkscape:zoom="1.5553468"
     inkscape:cx="269.47787"
     inkscape:cy="217.59777"
     inkscape:window-x="-8"
     inkscape:window-y="-8"
     inkscape:window-maximized="1"
     inkscape:current-layer="g823" /><metadata
     id="metadata821"><rdf:RDF><cc:Work
         rdf:about=""><dc:format>image/svg+xml</dc:format><dc:type
           rdf:resource="http://purl.org/dc/dcmitype/StillImage" /><dc:title /></cc:Work></rdf:RDF></metadata><defs
     id="defs819"><marker
       inkscape:stockid="Arrow2Mend"
       orient="auto"
       refY="0.0"
       refX="0.0"
       id="Arrow2Mend"
       style="overflow:visible;"
       inkscape:isstock="true"><path
         id="path4637"
         style="fill-rule:evenodd;stroke-width:0.625;stroke-linejoin:round;stroke:#901532;stroke-opacity:1;fill:#901532;fill-opacity:1"
         d="M 8.7185878,4.0337352 L -2.2072895,0.016013256 L 8.7185884,-4.0017078 C 6.9730900,-1.6296469 6.9831476,1.6157441 8.7185878,4.0337352 z "
         transform="scale(0.6) rotate(180) translate(0,0)" /></marker><marker
       inkscape:stockid="Arrow1Mend"
       orient="auto"
       refY="0.0"
       refX="0.0"
       id="Arrow1Mend"
       style="overflow:visible;"
       inkscape:isstock="true"><path
         id="path4619"
         d="M 0.0,0.0 L 5.0,-5.0 L -12.5,0.0 L 5.0,5.0 L 0.0,0.0 z "
         style="fill-rule:evenodd;stroke:#000000;stroke-width:1pt;stroke-opacity:1;fill:#000000;fill-opacity:1"
         transform="scale(0.4) rotate(180) translate(10,0)" /></marker><clipPath
       id="clipPath841"
       clipPathUnits="userSpaceOnUse"><path
         id="path839"
         d="M 31.184,252.113 H 486.52 V 69.168 H 31.184 Z" /></clipPath></defs><g
     transform="matrix(1.3333333,0,0,-1.3333333,0,368)"
     id="g823"><g
       id="g825"><path
         id="path827"
         style="fill:#ffffff;fill-opacity:1;fill-rule:nonzero;stroke:none"
         d="M 0,0 H 491 V 276 H 0 Z" /></g><g
       id="g829"><path
         id="path831"
         style="fill:#eaebef;fill-opacity:1;fill-rule:nonzero;stroke:none"
         d="M 0,0 H 491 V 276 H 0 Z"
         inkscape:connector-curvature="0" /><path
         id="path833"
         style="fill:none;stroke:#eaebef;stroke-width:1.06697798;stroke-linecap:round;stroke-linejoin:round;stroke-miterlimit:10;stroke-dasharray:none;stroke-opacity:1"
         d="M 0,276 H 491 V 0 H 0 Z"
         inkscape:connector-curvature="0" /></g><g
       id="g835"><g
         clip-path="url(#clipPath841)"
         id="g837"><path
           id="path843"
           style="fill:#eaebef;fill-opacity:1;fill-rule:nonzero;stroke:#eaebef;stroke-width:1.06697798;stroke-linecap:round;stroke-linejoin:round;stroke-miterlimit:10;stroke-dasharray:none;stroke-opacity:1"
           d="M 31.184,252.113 H 485.52 V 70.168 H 31.184 Z"
           inkscape:connector-curvature="0" /><path
           id="path845"
           style="fill:none;stroke:#cad1db;stroke-width:0.53348899;stroke-linecap:butt;stroke-linejoin:round;stroke-miterlimit:10;stroke-dasharray:none;stroke-opacity:1"
           d="M 31.184,79.48 H 485.52"
           inkscape:connector-curvature="0" /><path
           id="path847"
           style="fill:none;stroke:#cad1db;stroke-width:0.53348899;stroke-linecap:butt;stroke-linejoin:round;stroke-miterlimit:10;stroke-dasharray:none;stroke-opacity:1"
           d="M 31.184,134.422 H 485.52"
           inkscape:connector-curvature="0" /><path
           id="path849"
           style="fill:none;stroke:#cad1db;stroke-width:0.53348899;stroke-linecap:butt;stroke-linejoin:round;stroke-miterlimit:10;stroke-dasharray:none;stroke-opacity:1"
           d="M 31.184,189.363 H 485.52"
           inkscape:connector-curvature="0" /><path
           id="path851"
           style="fill:none;stroke:#cad1db;stroke-width:0.53348899;stroke-linecap:butt;stroke-linejoin:round;stroke-miterlimit:10;stroke-dasharray:none;stroke-opacity:1"
           d="M 31.184,244.301 H 485.52"
           inkscape:connector-curvature="0" /><path
           id="path853"
           style="fill:none;stroke:#cad1db;stroke-width:0.53348899;stroke-linecap:butt;stroke-linejoin:round;stroke-miterlimit:10;stroke-dasharray:none;stroke-opacity:1"
           d="M 99.492,70.168 V 252.113"
           inkscape:connector-curvature="0" /><path
           id="path855"
           style="fill:none;stroke:#cad1db;stroke-width:0.53348899;stroke-linecap:butt;stroke-linejoin:round;stroke-miterlimit:10;stroke-dasharray:none;stroke-opacity:1"
           d="M 178.922,70.168 V 252.113"
           inkscape:connector-curvature="0" /><path
           id="path857"
           style="fill:none;stroke:#cad1db;stroke-width:0.53348899;stroke-linecap:butt;stroke-linejoin:round;stroke-miterlimit:10;stroke-dasharray:none;stroke-opacity:1"
           d="M 258.352,70.168 V 252.113"
           inkscape:connector-curvature="0" /><path
           id="path859"
           style="fill:none;stroke:#cad1db;stroke-width:0.53348899;stroke-linecap:butt;stroke-linejoin:round;stroke-miterlimit:10;stroke-dasharray:none;stroke-opacity:1"
           d="M 337.781,70.168 V 252.113"
           inkscape:connector-curvature="0" /><path
           id="path861"
           style="fill:none;stroke:#cad1db;stroke-width:0.53348899;stroke-linecap:butt;stroke-linejoin:round;stroke-miterlimit:10;stroke-dasharray:none;stroke-opacity:1"
           d="M 417.211,70.168 V 252.113"
           inkscape:connector-curvature="0" /><path
           id="path863"
           style="fill:none;stroke:#cad1db;stroke-width:1.06697798;stroke-linecap:butt;stroke-linejoin:round;stroke-miterlimit:10;stroke-dasharray:none;stroke-opacity:1"
           d="M 31.184,106.953 H 485.52"
           inkscape:connector-curvature="0" /><path
           id="path865"
           style="fill:none;stroke:#cad1db;stroke-width:1.06697798;stroke-linecap:butt;stroke-linejoin:round;stroke-miterlimit:10;stroke-dasharray:none;stroke-opacity:1"
           d="M 31.184,161.891 H 485.52"
           inkscape:connector-curvature="0" /><path
           id="path867"
           style="fill:none;stroke:#cad1db;stroke-width:1.06697798;stroke-linecap:butt;stroke-linejoin:round;stroke-miterlimit:10;stroke-dasharray:none;stroke-opacity:1"
           d="M 31.184,216.832 H 485.52"
           inkscape:connector-curvature="0" /><path
           id="path869"
           style="fill:none;stroke:#cad1db;stroke-width:1.06697798;stroke-linecap:butt;stroke-linejoin:round;stroke-miterlimit:10;stroke-dasharray:none;stroke-opacity:1"
           d="M 59.777,70.168 V 252.113"
           inkscape:connector-curvature="0" /><path
           id="path871"
           style="fill:none;stroke:#cad1db;stroke-width:1.06697798;stroke-linecap:butt;stroke-linejoin:round;stroke-miterlimit:10;stroke-dasharray:none;stroke-opacity:1"
           d="M 139.207,70.168 V 252.113"
           inkscape:connector-curvature="0" /><path
           id="path873"
           style="fill:none;stroke:#cad1db;stroke-width:1.06697798;stroke-linecap:butt;stroke-linejoin:round;stroke-miterlimit:10;stroke-dasharray:none;stroke-opacity:1"
           d="M 218.637,70.168 V 252.113"
           inkscape:connector-curvature="0" /><path
           id="path875"
           style="fill:none;stroke:#cad1db;stroke-width:1.06697798;stroke-linecap:butt;stroke-linejoin:round;stroke-miterlimit:10;stroke-dasharray:none;stroke-opacity:1"
           d="M 298.066,70.168 V 252.113"
           inkscape:connector-curvature="0" /><path
           id="path877"
           style="fill:none;stroke:#cad1db;stroke-width:1.06697798;stroke-linecap:butt;stroke-linejoin:round;stroke-miterlimit:10;stroke-dasharray:none;stroke-opacity:1"
           d="M 377.496,70.168 V 252.113"
           inkscape:connector-curvature="0" /><path
           id="path879"
           style="fill:none;stroke:#cad1db;stroke-width:1.06697798;stroke-linecap:butt;stroke-linejoin:round;stroke-miterlimit:10;stroke-dasharray:none;stroke-opacity:1"
           d="M 456.926,70.168 V 252.113"
           inkscape:connector-curvature="0" /><path
           id="path881"
           style="fill:none;stroke:#901532;stroke-width:2.13395691;stroke-linecap:butt;stroke-linejoin:round;stroke-miterlimit:1;stroke-dasharray:none;stroke-opacity:1"
           d="m 51.836,103.797 7.941,-0.598 7.946,-5.051 7.941,1.508 7.941,-1.422 7.946,0.067 7.941,3.597 7.946,-6.105 7.941,-0.883 7.941,-3.344 7.946,2.356 7.941,-0.504 7.945,0.848 7.942,0.507 7.941,3.09 7.945,-4.211 7.942,-0.964 7.945,-0.239 7.942,3.727 7.941,-4.289 7.945,-0.067 7.942,3.715 7.945,-2.129 7.941,2.801 7.942,-1.242 7.945,-1.324 7.942,0.937 7.945,1.293 7.941,2.145 7.942,-3.078 7.945,-1.125 7.941,28.875 7.946,-17.231 7.941,-0.117 7.942,-4.817 7.945,0.829 7.941,-3.696 7.946,2.824 7.941,0.375 7.941,4.594 7.946,0.031 7.941,-3.566 7.942,-0.672 7.945,7.785 7.941,1.246 7.946,7.215 7.941,1.325 7.941,11.371 7.946,11.14 7.941,12.145 7.945,27.758 7.942,62.613 7.941,-101.375"
           inkscape:connector-curvature="0" /><path
           id="path883"
           style="fill:none;stroke:#ec464a;stroke-width:2.13395691;stroke-linecap:butt;stroke-linejoin:round;stroke-miterlimit:1;stroke-dasharray:none;stroke-opacity:1"
           d="m 51.836,91.047 7.941,-1.582 7.946,-6.856 7.941,-4.171 7.941,0.632 7.946,2.075 7.941,2.632 7.946,-3.367 7.941,1.129 7.941,0.047 7.946,-1.832 7.941,-0.828 7.945,1.66 7.942,3.629 7.941,5.371 7.945,-1.047 7.942,5.856 7.945,-3.149 7.942,0.317 7.941,0.046 7.945,2.098 7.942,1.488 7.945,5.59 7.941,12.973 7.942,-17.637 7.945,-4.66 7.942,1.125 7.945,5.687 7.941,-1.636 7.942,3.023 7.945,-0.996 7.941,4.02 7.946,0.589 7.941,2.512 7.942,8.688 7.945,1.097 7.941,4.535 7.946,0.977 7.941,1.563 7.941,3.339 7.946,0.586 7.941,-5.101 7.942,1.629 7.945,0.711 7.941,-5 7.946,2.929 7.941,9.66 7.941,8.125 7.946,12.293 7.941,16.395 7.945,13.535 7.942,9.348 7.941,-42.59"
           inkscape:connector-curvature="0" /><path
           id="path885"
           style="fill:none;stroke:#e7a2cc;stroke-width:2.13395691;stroke-linecap:butt;stroke-linejoin:round;stroke-miterlimit:1;stroke-dasharray:none;stroke-opacity:1"
           d="m 51.836,99.621 7.941,-11.644 7.946,-0.524 7.941,12.539 7.941,0.613 7.946,1.633 7.941,-5.058 7.946,-3.282 7.941,-0.66 7.941,-2.769 7.946,2.625 7.941,-2.707 7.945,1.894 7.942,6.145 7.941,-9.434 7.945,4.449 7.942,-3.007 7.945,-0.684 7.942,7.793 7.941,-5.387 7.945,5.051 7.942,5.898 7.945,-5.156 7.941,-2.226 7.942,-1.387 7.945,-0.805 7.942,1.985 7.945,3.476 7.941,-1.801 7.942,5.34 7.945,0.211 7.941,3.321 7.946,6.644 7.941,-5.332 7.942,-2.305 7.945,-3.586 7.941,-3.66 7.946,0.078 7.941,1.321 7.941,-1.543 7.946,5.261 7.941,1.77 7.942,5.82 7.945,3.227 7.941,-3.664 7.946,4.285 7.941,4.351 7.941,9.465 7.946,14.442 7.941,21.035 7.945,33.867 7.942,24.719 7.941,-72.442"
           inkscape:connector-curvature="0" /><path
           id="path887"
           style="fill:none;stroke:#4ca8ff;stroke-width:2.13395691;stroke-linecap:butt;stroke-linejoin:round;stroke-miterlimit:1;stroke-dasharray:none;stroke-opacity:0.94117647"
           d="m 51.836,101.52 7.941,-10.59 7.946,-1.293 7.941,3.652 7.941,-1.137 7.946,-1.941 7.941,0.144 7.946,-1.82 7.941,3.18 7.941,-2.707 7.946,0.519 7.941,0.336 7.945,-0.644 7.942,9.097 7.941,-5.617 7.945,-6.867 7.942,4.473 7.945,2.269 7.942,4.301 7.941,-5.277 7.945,4.75 7.942,3.957 7.945,-2.817 7.941,0.989 7.942,-3.926 7.945,5.652 7.942,1.039 7.945,-1.039 7.941,-0.039 7.942,2.039 7.945,-1.226 7.941,-3.239 7.946,5.055 7.941,3.508 7.942,-3.063 7.945,-2.34 7.941,-0.605 7.946,8.937 7.941,-3.742 7.941,-3.078 7.946,3.344 7.941,0.277 7.942,4.477 7.945,15.816 7.941,-19.812 7.946,3.285 7.941,10.262 7.941,6.437 7.946,12.422 7.941,25.094 7.945,24.289 7.942,26.308 7.941,-22.531"
           inkscape:connector-curvature="0" /><path
           id="path889"
           style="fill:none;stroke:#40566b;stroke-width:2.13395691;stroke-linecap:butt;stroke-linejoin:round;stroke-miterlimit:1;stroke-dasharray:none;stroke-opacity:1"
           d="m 51.836,101.305 7.941,-3.028 7.946,-0.797 7.941,12.676 7.941,-8.496 7.946,-5.844 7.941,-1.73 7.946,-1.293 7.941,1.07 7.941,-0.613 7.946,-0.434 7.941,1.067 7.945,-0.223 7.942,1.684 7.941,-4.821 7.945,0.211 7.942,1.778 7.945,1.668 7.942,-2.215 7.941,0.125 7.945,1.137 7.942,3.289 7.945,1.168 7.941,4.226 7.942,-3.472 7.945,-6.004 7.942,-4.922 7.945,2.597 7.941,1.032 7.942,-2.082 7.945,4.793 7.941,0.636 7.946,-0.386 7.941,1.652 7.942,0.176 7.945,0.867 7.941,-1.363 7.946,0.129 7.941,1.906 7.941,0.601 7.946,4.785 7.941,1.133 7.942,7.407 7.945,5.753 7.941,3.481 7.946,5.109 7.941,14.922 7.941,12.18 7.946,16.265 7.941,14.778 7.945,15.015 7.942,-2.074 7.941,-58.726"
           inkscape:connector-curvature="0" /><path
           id="path891"
           style="fill:none;stroke:#40566b;stroke-width:1.06697798;stroke-linecap:butt;stroke-linejoin:round;stroke-miterlimit:10;stroke-dasharray:4.267913, 4.267913;stroke-dashoffset:0;stroke-opacity:1"
           d="M 31.184,106.953 H 485.52"
           inkscape:connector-curvature="0" /></g></g><text
       y="-103.80078"
       x="21.359375"
       transform="scale(1,-1)"
       style="font-variant:normal;font-weight:normal;font-size:8.80000019px;font-family:Arial;-inkscape-font-specification:ArialMT;writing-mode:lr-tb;fill:#4d4d4d;fill-opacity:1;fill-rule:nonzero;stroke:none"
       id="text903"><tspan
         x="21.359375"
         y="-103.80078"
         id="tspan895">0</tspan><tspan
         x="21.359375"
         y="-158.74219"
         id="tspan897">2</tspan><tspan
         x="21.359375"
         y="-213.68359"
         id="tspan899">4</tspan><tspan
         y="-70.698914"
         x="21.359375"
         id="tspan901" /><tspan
         y="-59.698914"
         x="21.359375"
         id="tspan965" /><tspan
         y="1.2211713e-022"
         x="21.359375"
         id="tspan967" /><tspan
         id="tspan969" /><tspan
         id="tspan882" /><tspan
         id="tspan884" /></text>
<text
       y="-60.300781"
       x="21.359375"
       transform="scale(1,-1)"
       style="font-variant:normal;font-weight:normal;font-size:8.80000019px;font-family:Arial;-inkscape-font-specification:ArialMT;writing-mode:lr-tb;fill:#4d4d4d;fill-opacity:1;fill-rule:nonzero;stroke:none"
       id="text878"><tspan
         x="56.34837 61.241169 135.77716 140.66997 215.20775 220.10054 294.63654 299.52936 374.06714 378.95993 454.48154"
         id="tspan880">50403020100</tspan></text>
<text
       y="-45.582031"
       x="203.64453"
       transform="scale(1,-1)"
       style="font-variant:normal;font-weight:normal;font-size:11px;font-family:Arial;-inkscape-font-specification:ArialMT;writing-mode:lr-tb;fill:#40566b;fill-opacity:1;fill-rule:nonzero;stroke:none"
       id="text907"><tspan
         x="203.64453 214.01753 220.13353 226.24953 231.74953 237.24953 240.29652 246.41254 252.52853 255.57553 258.01752 260.45953 263.50653 271.44852 277.56451 281.22754 283.66953 289.16953 292.21652 301.37952 307.49551"
         y="-45.582031"
         id="tspan905">Weeks until Christmas</tspan></text>
<text
       y="-261.07031"
       x="31.183594"
       transform="scale(1,-1)"
       style="font-variant:normal;font-weight:normal;font-size:13.19999981px;font-family:Arial;-inkscape-font-specification:ArialMT;writing-mode:lr-tb;fill:#40566b;fill-opacity:1;fill-rule:nonzero;stroke:none"
       id="text933"><tspan
         style="font-style:normal;font-variant:normal;font-weight:bold;font-stretch:normal;font-family:Roboto;-inkscape-font-specification:'Roboto Bold'"
         y="-261.07031"
         x="31.183594"
         id="tspan931">Searching for the Christmas spirit</tspan></text>
<text
       transform="matrix(0,1,1,0,0,0)"
       id="text957"
       y="12.966312"
       x="73.204346"
       style="font-style:normal;font-variant:normal;font-weight:normal;font-stretch:normal;font-size:11.00000095px;line-height:1.25;font-family:'Open Sans';-inkscape-font-specification:'Open Sans';letter-spacing:0px;word-spacing:0px;fill:#40566b;fill-opacity:1;stroke:none;stroke-width:0.75"
       xml:space="preserve"><tspan
         style="fill:#40566b;fill-opacity:1;stroke-width:0.75"
         y="12.966312"
         x="73.204346"
         id="tspan955">Search volume (std. dev. +/- mean)</tspan></text>
<text
       transform="scale(1,-1)"
       id="text987"
       y="-27.88681"
       x="179.46161"
       style="font-style:normal;font-variant:normal;font-weight:normal;font-stretch:normal;font-size:11.00000095px;line-height:1.25;font-family:'Open Sans';-inkscape-font-specification:'Open Sans';letter-spacing:0px;word-spacing:0px;fill:#000000;fill-opacity:1;stroke:none;stroke-width:0.75"
       xml:space="preserve"><tspan
         style="font-style:normal;font-variant:normal;font-weight:normal;font-stretch:normal;font-family:'Open Sans';-inkscape-font-specification:'Open Sans';fill:#40566b;fill-opacity:1;stroke-width:0.75"
         y="-27.88681"
         x="179.46161"
         id="tspan985"><tspan
   id="tspan989"
   style="fill:#901532;fill-opacity:1">brandy </tspan><tspan
   id="tspan991"
   style="fill:#c0093f;fill-opacity:1"><tspan
     style="fill:#ec464a;fill-opacity:1"
     id="tspan885">gin </tspan></tspan><tspan
   id="tspan993"
   style="fill:#dcc1c6;fill-opacity:1"><tspan
     style="fill:#e7a2cc;fill-opacity:1"
     id="tspan891">rum </tspan></tspan><tspan
   id="tspan995"
   style="fill:#4ca8ff;fill-opacity:1">vodka</tspan> whiskey</tspan></text>
<text
       transform="scale(1,-1)"
       id="text999"
       y="-4.1425786"
       x="122.45264"
       style="font-style:normal;font-variant:normal;font-weight:normal;font-stretch:normal;font-size:11.00000095px;line-height:1.25;font-family:'Open Sans';-inkscape-font-specification:'Open Sans';letter-spacing:0px;word-spacing:0px;fill:#000000;fill-opacity:1;stroke:none;stroke-width:0.75"
       xml:space="preserve"><tspan
         style="fill:#40566b;fill-opacity:1;stroke-width:0.75"
         y="-4.1425786"
         x="122.45264"
         id="tspan997">Source: nathancunn.com (@nathcun); data: Google Trends (2012 - 2016)</tspan></text>
<text
       y="-260.58145"
       x="404.56821"
       style="font-variant:normal;font-weight:normal;font-size:11px;font-family:Arial;-inkscape-font-specification:ArialMT;writing-mode:lr-tb;fill:#901532;fill-opacity:1;fill-rule:nonzero;stroke:none;stroke-width:0.99999994"
       id="text907-6"
       transform="scale(1,-1)"><tspan
         style="fill:#901532;fill-opacity:1;stroke-width:0.99999994"
         id="tspan905-0">brandy</tspan></text>
<path
       style="fill:none;stroke:#901532;stroke-width:0.75px;stroke-linecap:butt;stroke-linejoin:miter;stroke-opacity:1;marker-end:url(#Arrow2Mend)"
       d="m 439.69811,263.18724 c 0,0 13.13622,-1.61695 17.22789,-14.84724"
       id="path4608"
       inkscape:connector-curvature="0"
       sodipodi:nodetypes="cc" /></g></svg>